G75*
G70*
%OFA0B0*%
%FSLAX24Y24*%
%IPPOS*%
%LPD*%
%AMOC8*
5,1,8,0,0,1.08239X$1,22.5*
%
%ADD10C,0.0050*%
%ADD11C,0.0010*%
%ADD12C,0.0000*%
%ADD13C,0.0160*%
D10*
X001459Y003942D02*
X001459Y007092D01*
X004215Y009454D01*
X009333Y009454D01*
X014057Y007092D01*
X014057Y003942D01*
X009333Y001580D01*
X004215Y001580D01*
X001459Y003942D01*
X004293Y010753D02*
X009411Y010753D01*
X014136Y013115D01*
X014136Y016265D01*
X009411Y018627D01*
X004293Y018627D01*
X001537Y016265D01*
X001537Y013115D01*
X004293Y010753D01*
D11*
X005876Y012698D02*
X005878Y012737D01*
X005884Y012775D01*
X005893Y012813D01*
X005907Y012849D01*
X005923Y012885D01*
X005944Y012918D01*
X005967Y012949D01*
X005994Y012977D01*
X006023Y013003D01*
X006054Y013026D01*
X006088Y013045D01*
X006124Y013061D01*
X006160Y013073D01*
X006198Y013082D01*
X006237Y013087D01*
X006276Y013088D01*
X006314Y013085D01*
X006353Y013078D01*
X006390Y013068D01*
X006426Y013053D01*
X006461Y013036D01*
X006494Y013015D01*
X006524Y012990D01*
X006552Y012963D01*
X006577Y012933D01*
X006599Y012901D01*
X006617Y012867D01*
X006632Y012831D01*
X006644Y012794D01*
X006652Y012756D01*
X006656Y012717D01*
X006656Y012679D01*
X006652Y012640D01*
X006644Y012602D01*
X006632Y012565D01*
X006617Y012529D01*
X006599Y012495D01*
X006577Y012463D01*
X006552Y012433D01*
X006524Y012406D01*
X006494Y012381D01*
X006461Y012360D01*
X006426Y012343D01*
X006390Y012328D01*
X006353Y012318D01*
X006314Y012311D01*
X006276Y012308D01*
X006237Y012309D01*
X006198Y012314D01*
X006160Y012323D01*
X006124Y012335D01*
X006088Y012351D01*
X006054Y012370D01*
X006023Y012393D01*
X005994Y012419D01*
X005967Y012447D01*
X005944Y012478D01*
X005923Y012511D01*
X005907Y012547D01*
X005893Y012583D01*
X005884Y012621D01*
X005878Y012659D01*
X005876Y012698D01*
X005866Y012298D02*
X006666Y013098D01*
X005876Y013194D02*
X005878Y013233D01*
X005884Y013271D01*
X005893Y013309D01*
X005907Y013345D01*
X005923Y013381D01*
X005944Y013414D01*
X005967Y013445D01*
X005994Y013473D01*
X006023Y013499D01*
X006054Y013522D01*
X006088Y013541D01*
X006124Y013557D01*
X006160Y013569D01*
X006198Y013578D01*
X006237Y013583D01*
X006276Y013584D01*
X006314Y013581D01*
X006353Y013574D01*
X006390Y013564D01*
X006426Y013549D01*
X006461Y013532D01*
X006494Y013511D01*
X006524Y013486D01*
X006552Y013459D01*
X006577Y013429D01*
X006599Y013397D01*
X006617Y013363D01*
X006632Y013327D01*
X006644Y013290D01*
X006652Y013252D01*
X006656Y013213D01*
X006656Y013175D01*
X006652Y013136D01*
X006644Y013098D01*
X006632Y013061D01*
X006617Y013025D01*
X006599Y012991D01*
X006577Y012959D01*
X006552Y012929D01*
X006524Y012902D01*
X006494Y012877D01*
X006461Y012856D01*
X006426Y012839D01*
X006390Y012824D01*
X006353Y012814D01*
X006314Y012807D01*
X006276Y012804D01*
X006237Y012805D01*
X006198Y012810D01*
X006160Y012819D01*
X006124Y012831D01*
X006088Y012847D01*
X006054Y012866D01*
X006023Y012889D01*
X005994Y012915D01*
X005967Y012943D01*
X005944Y012974D01*
X005923Y013007D01*
X005907Y013043D01*
X005893Y013079D01*
X005884Y013117D01*
X005878Y013155D01*
X005876Y013194D01*
X005866Y012794D02*
X006666Y013594D01*
X006337Y014253D02*
X005537Y015053D01*
X005537Y014253D02*
X006337Y015053D01*
X005868Y016186D02*
X005870Y016225D01*
X005876Y016263D01*
X005885Y016301D01*
X005899Y016337D01*
X005915Y016373D01*
X005936Y016406D01*
X005959Y016437D01*
X005986Y016465D01*
X006015Y016491D01*
X006046Y016514D01*
X006080Y016533D01*
X006116Y016549D01*
X006152Y016561D01*
X006190Y016570D01*
X006229Y016575D01*
X006268Y016576D01*
X006306Y016573D01*
X006345Y016566D01*
X006382Y016556D01*
X006418Y016541D01*
X006453Y016524D01*
X006486Y016503D01*
X006516Y016478D01*
X006544Y016451D01*
X006569Y016421D01*
X006591Y016389D01*
X006609Y016355D01*
X006624Y016319D01*
X006636Y016282D01*
X006644Y016244D01*
X006648Y016205D01*
X006648Y016167D01*
X006644Y016128D01*
X006636Y016090D01*
X006624Y016053D01*
X006609Y016017D01*
X006591Y015983D01*
X006569Y015951D01*
X006544Y015921D01*
X006516Y015894D01*
X006486Y015869D01*
X006453Y015848D01*
X006418Y015831D01*
X006382Y015816D01*
X006345Y015806D01*
X006306Y015799D01*
X006268Y015796D01*
X006229Y015797D01*
X006190Y015802D01*
X006152Y015811D01*
X006116Y015823D01*
X006080Y015839D01*
X006046Y015858D01*
X006015Y015881D01*
X005986Y015907D01*
X005959Y015935D01*
X005936Y015966D01*
X005915Y015999D01*
X005899Y016035D01*
X005885Y016071D01*
X005876Y016109D01*
X005870Y016147D01*
X005868Y016186D01*
X005858Y015786D02*
X006658Y016586D01*
X005868Y016682D02*
X005870Y016721D01*
X005876Y016759D01*
X005885Y016797D01*
X005899Y016833D01*
X005915Y016869D01*
X005936Y016902D01*
X005959Y016933D01*
X005986Y016961D01*
X006015Y016987D01*
X006046Y017010D01*
X006080Y017029D01*
X006116Y017045D01*
X006152Y017057D01*
X006190Y017066D01*
X006229Y017071D01*
X006268Y017072D01*
X006306Y017069D01*
X006345Y017062D01*
X006382Y017052D01*
X006418Y017037D01*
X006453Y017020D01*
X006486Y016999D01*
X006516Y016974D01*
X006544Y016947D01*
X006569Y016917D01*
X006591Y016885D01*
X006609Y016851D01*
X006624Y016815D01*
X006636Y016778D01*
X006644Y016740D01*
X006648Y016701D01*
X006648Y016663D01*
X006644Y016624D01*
X006636Y016586D01*
X006624Y016549D01*
X006609Y016513D01*
X006591Y016479D01*
X006569Y016447D01*
X006544Y016417D01*
X006516Y016390D01*
X006486Y016365D01*
X006453Y016344D01*
X006418Y016327D01*
X006382Y016312D01*
X006345Y016302D01*
X006306Y016295D01*
X006268Y016292D01*
X006229Y016293D01*
X006190Y016298D01*
X006152Y016307D01*
X006116Y016319D01*
X006080Y016335D01*
X006046Y016354D01*
X006015Y016377D01*
X005986Y016403D01*
X005959Y016431D01*
X005936Y016462D01*
X005915Y016495D01*
X005899Y016531D01*
X005885Y016567D01*
X005876Y016605D01*
X005870Y016643D01*
X005868Y016682D01*
X005858Y016282D02*
X006658Y017082D01*
X004837Y015753D02*
X004037Y016553D01*
X004037Y015753D02*
X004837Y016553D01*
X003588Y014686D02*
X003590Y014725D01*
X003596Y014763D01*
X003605Y014801D01*
X003619Y014837D01*
X003635Y014873D01*
X003656Y014906D01*
X003679Y014937D01*
X003706Y014965D01*
X003735Y014991D01*
X003766Y015014D01*
X003800Y015033D01*
X003836Y015049D01*
X003872Y015061D01*
X003910Y015070D01*
X003949Y015075D01*
X003988Y015076D01*
X004026Y015073D01*
X004065Y015066D01*
X004102Y015056D01*
X004138Y015041D01*
X004173Y015024D01*
X004206Y015003D01*
X004236Y014978D01*
X004264Y014951D01*
X004289Y014921D01*
X004311Y014889D01*
X004329Y014855D01*
X004344Y014819D01*
X004356Y014782D01*
X004364Y014744D01*
X004368Y014705D01*
X004368Y014667D01*
X004364Y014628D01*
X004356Y014590D01*
X004344Y014553D01*
X004329Y014517D01*
X004311Y014483D01*
X004289Y014451D01*
X004264Y014421D01*
X004236Y014394D01*
X004206Y014369D01*
X004173Y014348D01*
X004138Y014331D01*
X004102Y014316D01*
X004065Y014306D01*
X004026Y014299D01*
X003988Y014296D01*
X003949Y014297D01*
X003910Y014302D01*
X003872Y014311D01*
X003836Y014323D01*
X003800Y014339D01*
X003766Y014358D01*
X003735Y014381D01*
X003706Y014407D01*
X003679Y014435D01*
X003656Y014466D01*
X003635Y014499D01*
X003619Y014535D01*
X003605Y014571D01*
X003596Y014609D01*
X003590Y014647D01*
X003588Y014686D01*
X003578Y014286D02*
X004378Y015086D01*
X003092Y014686D02*
X003094Y014725D01*
X003100Y014763D01*
X003109Y014801D01*
X003123Y014837D01*
X003139Y014873D01*
X003160Y014906D01*
X003183Y014937D01*
X003210Y014965D01*
X003239Y014991D01*
X003270Y015014D01*
X003304Y015033D01*
X003340Y015049D01*
X003376Y015061D01*
X003414Y015070D01*
X003453Y015075D01*
X003492Y015076D01*
X003530Y015073D01*
X003569Y015066D01*
X003606Y015056D01*
X003642Y015041D01*
X003677Y015024D01*
X003710Y015003D01*
X003740Y014978D01*
X003768Y014951D01*
X003793Y014921D01*
X003815Y014889D01*
X003833Y014855D01*
X003848Y014819D01*
X003860Y014782D01*
X003868Y014744D01*
X003872Y014705D01*
X003872Y014667D01*
X003868Y014628D01*
X003860Y014590D01*
X003848Y014553D01*
X003833Y014517D01*
X003815Y014483D01*
X003793Y014451D01*
X003768Y014421D01*
X003740Y014394D01*
X003710Y014369D01*
X003677Y014348D01*
X003642Y014331D01*
X003606Y014316D01*
X003569Y014306D01*
X003530Y014299D01*
X003492Y014296D01*
X003453Y014297D01*
X003414Y014302D01*
X003376Y014311D01*
X003340Y014323D01*
X003304Y014339D01*
X003270Y014358D01*
X003239Y014381D01*
X003210Y014407D01*
X003183Y014435D01*
X003160Y014466D01*
X003139Y014499D01*
X003123Y014535D01*
X003109Y014571D01*
X003100Y014609D01*
X003094Y014647D01*
X003092Y014686D01*
X003082Y014286D02*
X003882Y015086D01*
X004137Y013553D02*
X004937Y012753D01*
X004137Y012753D02*
X004937Y013553D01*
X007447Y014690D02*
X007449Y014729D01*
X007455Y014767D01*
X007464Y014805D01*
X007478Y014841D01*
X007494Y014877D01*
X007515Y014910D01*
X007538Y014941D01*
X007565Y014969D01*
X007594Y014995D01*
X007625Y015018D01*
X007659Y015037D01*
X007695Y015053D01*
X007731Y015065D01*
X007769Y015074D01*
X007808Y015079D01*
X007847Y015080D01*
X007885Y015077D01*
X007924Y015070D01*
X007961Y015060D01*
X007997Y015045D01*
X008032Y015028D01*
X008065Y015007D01*
X008095Y014982D01*
X008123Y014955D01*
X008148Y014925D01*
X008170Y014893D01*
X008188Y014859D01*
X008203Y014823D01*
X008215Y014786D01*
X008223Y014748D01*
X008227Y014709D01*
X008227Y014671D01*
X008223Y014632D01*
X008215Y014594D01*
X008203Y014557D01*
X008188Y014521D01*
X008170Y014487D01*
X008148Y014455D01*
X008123Y014425D01*
X008095Y014398D01*
X008065Y014373D01*
X008032Y014352D01*
X007997Y014335D01*
X007961Y014320D01*
X007924Y014310D01*
X007885Y014303D01*
X007847Y014300D01*
X007808Y014301D01*
X007769Y014306D01*
X007731Y014315D01*
X007695Y014327D01*
X007659Y014343D01*
X007625Y014362D01*
X007594Y014385D01*
X007565Y014411D01*
X007538Y014439D01*
X007515Y014470D01*
X007494Y014503D01*
X007478Y014539D01*
X007464Y014575D01*
X007455Y014613D01*
X007449Y014651D01*
X007447Y014690D01*
X007437Y014290D02*
X008237Y015090D01*
X009337Y015853D02*
X008537Y016653D01*
X008537Y015853D02*
X009337Y016653D01*
X009206Y015053D02*
X010006Y014253D01*
X009206Y014253D02*
X010006Y015053D01*
X010518Y014694D02*
X010520Y014733D01*
X010526Y014771D01*
X010535Y014809D01*
X010549Y014845D01*
X010565Y014881D01*
X010586Y014914D01*
X010609Y014945D01*
X010636Y014973D01*
X010665Y014999D01*
X010696Y015022D01*
X010730Y015041D01*
X010766Y015057D01*
X010802Y015069D01*
X010840Y015078D01*
X010879Y015083D01*
X010918Y015084D01*
X010956Y015081D01*
X010995Y015074D01*
X011032Y015064D01*
X011068Y015049D01*
X011103Y015032D01*
X011136Y015011D01*
X011166Y014986D01*
X011194Y014959D01*
X011219Y014929D01*
X011241Y014897D01*
X011259Y014863D01*
X011274Y014827D01*
X011286Y014790D01*
X011294Y014752D01*
X011298Y014713D01*
X011298Y014675D01*
X011294Y014636D01*
X011286Y014598D01*
X011274Y014561D01*
X011259Y014525D01*
X011241Y014491D01*
X011219Y014459D01*
X011194Y014429D01*
X011166Y014402D01*
X011136Y014377D01*
X011103Y014356D01*
X011068Y014339D01*
X011032Y014324D01*
X010995Y014314D01*
X010956Y014307D01*
X010918Y014304D01*
X010879Y014305D01*
X010840Y014310D01*
X010802Y014319D01*
X010766Y014331D01*
X010730Y014347D01*
X010696Y014366D01*
X010665Y014389D01*
X010636Y014415D01*
X010609Y014443D01*
X010586Y014474D01*
X010565Y014507D01*
X010549Y014543D01*
X010535Y014579D01*
X010526Y014617D01*
X010520Y014655D01*
X010518Y014694D01*
X010508Y014294D02*
X011308Y015094D01*
X011014Y014694D02*
X011016Y014733D01*
X011022Y014771D01*
X011031Y014809D01*
X011045Y014845D01*
X011061Y014881D01*
X011082Y014914D01*
X011105Y014945D01*
X011132Y014973D01*
X011161Y014999D01*
X011192Y015022D01*
X011226Y015041D01*
X011262Y015057D01*
X011298Y015069D01*
X011336Y015078D01*
X011375Y015083D01*
X011414Y015084D01*
X011452Y015081D01*
X011491Y015074D01*
X011528Y015064D01*
X011564Y015049D01*
X011599Y015032D01*
X011632Y015011D01*
X011662Y014986D01*
X011690Y014959D01*
X011715Y014929D01*
X011737Y014897D01*
X011755Y014863D01*
X011770Y014827D01*
X011782Y014790D01*
X011790Y014752D01*
X011794Y014713D01*
X011794Y014675D01*
X011790Y014636D01*
X011782Y014598D01*
X011770Y014561D01*
X011755Y014525D01*
X011737Y014491D01*
X011715Y014459D01*
X011690Y014429D01*
X011662Y014402D01*
X011632Y014377D01*
X011599Y014356D01*
X011564Y014339D01*
X011528Y014324D01*
X011491Y014314D01*
X011452Y014307D01*
X011414Y014304D01*
X011375Y014305D01*
X011336Y014310D01*
X011298Y014319D01*
X011262Y014331D01*
X011226Y014347D01*
X011192Y014366D01*
X011161Y014389D01*
X011132Y014415D01*
X011105Y014443D01*
X011082Y014474D01*
X011061Y014507D01*
X011045Y014543D01*
X011031Y014579D01*
X011022Y014617D01*
X011016Y014655D01*
X011014Y014694D01*
X011004Y014294D02*
X011804Y015094D01*
X012947Y014653D02*
X012949Y014692D01*
X012955Y014730D01*
X012964Y014768D01*
X012978Y014804D01*
X012994Y014840D01*
X013015Y014873D01*
X013038Y014904D01*
X013065Y014932D01*
X013094Y014958D01*
X013125Y014981D01*
X013159Y015000D01*
X013195Y015016D01*
X013231Y015028D01*
X013269Y015037D01*
X013308Y015042D01*
X013347Y015043D01*
X013385Y015040D01*
X013424Y015033D01*
X013461Y015023D01*
X013497Y015008D01*
X013532Y014991D01*
X013565Y014970D01*
X013595Y014945D01*
X013623Y014918D01*
X013648Y014888D01*
X013670Y014856D01*
X013688Y014822D01*
X013703Y014786D01*
X013715Y014749D01*
X013723Y014711D01*
X013727Y014672D01*
X013727Y014634D01*
X013723Y014595D01*
X013715Y014557D01*
X013703Y014520D01*
X013688Y014484D01*
X013670Y014450D01*
X013648Y014418D01*
X013623Y014388D01*
X013595Y014361D01*
X013565Y014336D01*
X013532Y014315D01*
X013497Y014298D01*
X013461Y014283D01*
X013424Y014273D01*
X013385Y014266D01*
X013347Y014263D01*
X013308Y014264D01*
X013269Y014269D01*
X013231Y014278D01*
X013195Y014290D01*
X013159Y014306D01*
X013125Y014325D01*
X013094Y014348D01*
X013065Y014374D01*
X013038Y014402D01*
X013015Y014433D01*
X012994Y014466D01*
X012978Y014502D01*
X012964Y014538D01*
X012955Y014576D01*
X012949Y014614D01*
X012947Y014653D01*
X012937Y014253D02*
X013737Y015053D01*
X010986Y012609D02*
X010186Y012609D01*
X010586Y012209D02*
X010986Y012609D01*
X010586Y012209D02*
X010586Y013009D01*
X010186Y012609D01*
X010087Y012171D02*
X009287Y012171D01*
X009687Y011771D02*
X010087Y012171D01*
X009687Y011771D02*
X009687Y012571D01*
X009287Y012171D01*
X009237Y012753D02*
X008437Y013553D01*
X008437Y012753D02*
X009237Y013553D01*
X005789Y007509D02*
X005791Y007548D01*
X005797Y007586D01*
X005806Y007624D01*
X005820Y007660D01*
X005836Y007696D01*
X005857Y007729D01*
X005880Y007760D01*
X005907Y007788D01*
X005936Y007814D01*
X005967Y007837D01*
X006001Y007856D01*
X006037Y007872D01*
X006073Y007884D01*
X006111Y007893D01*
X006150Y007898D01*
X006189Y007899D01*
X006227Y007896D01*
X006266Y007889D01*
X006303Y007879D01*
X006339Y007864D01*
X006374Y007847D01*
X006407Y007826D01*
X006437Y007801D01*
X006465Y007774D01*
X006490Y007744D01*
X006512Y007712D01*
X006530Y007678D01*
X006545Y007642D01*
X006557Y007605D01*
X006565Y007567D01*
X006569Y007528D01*
X006569Y007490D01*
X006565Y007451D01*
X006557Y007413D01*
X006545Y007376D01*
X006530Y007340D01*
X006512Y007306D01*
X006490Y007274D01*
X006465Y007244D01*
X006437Y007217D01*
X006407Y007192D01*
X006374Y007171D01*
X006339Y007154D01*
X006303Y007139D01*
X006266Y007129D01*
X006227Y007122D01*
X006189Y007119D01*
X006150Y007120D01*
X006111Y007125D01*
X006073Y007134D01*
X006037Y007146D01*
X006001Y007162D01*
X005967Y007181D01*
X005936Y007204D01*
X005907Y007230D01*
X005880Y007258D01*
X005857Y007289D01*
X005836Y007322D01*
X005820Y007358D01*
X005806Y007394D01*
X005797Y007432D01*
X005791Y007470D01*
X005789Y007509D01*
X005779Y007109D02*
X006579Y007909D01*
X005789Y007013D02*
X005791Y007052D01*
X005797Y007090D01*
X005806Y007128D01*
X005820Y007164D01*
X005836Y007200D01*
X005857Y007233D01*
X005880Y007264D01*
X005907Y007292D01*
X005936Y007318D01*
X005967Y007341D01*
X006001Y007360D01*
X006037Y007376D01*
X006073Y007388D01*
X006111Y007397D01*
X006150Y007402D01*
X006189Y007403D01*
X006227Y007400D01*
X006266Y007393D01*
X006303Y007383D01*
X006339Y007368D01*
X006374Y007351D01*
X006407Y007330D01*
X006437Y007305D01*
X006465Y007278D01*
X006490Y007248D01*
X006512Y007216D01*
X006530Y007182D01*
X006545Y007146D01*
X006557Y007109D01*
X006565Y007071D01*
X006569Y007032D01*
X006569Y006994D01*
X006565Y006955D01*
X006557Y006917D01*
X006545Y006880D01*
X006530Y006844D01*
X006512Y006810D01*
X006490Y006778D01*
X006465Y006748D01*
X006437Y006721D01*
X006407Y006696D01*
X006374Y006675D01*
X006339Y006658D01*
X006303Y006643D01*
X006266Y006633D01*
X006227Y006626D01*
X006189Y006623D01*
X006150Y006624D01*
X006111Y006629D01*
X006073Y006638D01*
X006037Y006650D01*
X006001Y006666D01*
X005967Y006685D01*
X005936Y006708D01*
X005907Y006734D01*
X005880Y006762D01*
X005857Y006793D01*
X005836Y006826D01*
X005820Y006862D01*
X005806Y006898D01*
X005797Y006936D01*
X005791Y006974D01*
X005789Y007013D01*
X005779Y006613D02*
X006579Y007413D01*
X005459Y005880D02*
X006259Y005080D01*
X005459Y005080D02*
X006259Y005880D01*
X007368Y005517D02*
X007370Y005556D01*
X007376Y005594D01*
X007385Y005632D01*
X007399Y005668D01*
X007415Y005704D01*
X007436Y005737D01*
X007459Y005768D01*
X007486Y005796D01*
X007515Y005822D01*
X007546Y005845D01*
X007580Y005864D01*
X007616Y005880D01*
X007652Y005892D01*
X007690Y005901D01*
X007729Y005906D01*
X007768Y005907D01*
X007806Y005904D01*
X007845Y005897D01*
X007882Y005887D01*
X007918Y005872D01*
X007953Y005855D01*
X007986Y005834D01*
X008016Y005809D01*
X008044Y005782D01*
X008069Y005752D01*
X008091Y005720D01*
X008109Y005686D01*
X008124Y005650D01*
X008136Y005613D01*
X008144Y005575D01*
X008148Y005536D01*
X008148Y005498D01*
X008144Y005459D01*
X008136Y005421D01*
X008124Y005384D01*
X008109Y005348D01*
X008091Y005314D01*
X008069Y005282D01*
X008044Y005252D01*
X008016Y005225D01*
X007986Y005200D01*
X007953Y005179D01*
X007918Y005162D01*
X007882Y005147D01*
X007845Y005137D01*
X007806Y005130D01*
X007768Y005127D01*
X007729Y005128D01*
X007690Y005133D01*
X007652Y005142D01*
X007616Y005154D01*
X007580Y005170D01*
X007546Y005189D01*
X007515Y005212D01*
X007486Y005238D01*
X007459Y005266D01*
X007436Y005297D01*
X007415Y005330D01*
X007399Y005366D01*
X007385Y005402D01*
X007376Y005440D01*
X007370Y005478D01*
X007368Y005517D01*
X007358Y005117D02*
X008158Y005917D01*
X009259Y006680D02*
X008459Y007480D01*
X008459Y006680D02*
X009259Y007480D01*
X009127Y005880D02*
X009927Y005080D01*
X009127Y005080D02*
X009927Y005880D01*
X010439Y005521D02*
X010441Y005560D01*
X010447Y005598D01*
X010456Y005636D01*
X010470Y005672D01*
X010486Y005708D01*
X010507Y005741D01*
X010530Y005772D01*
X010557Y005800D01*
X010586Y005826D01*
X010617Y005849D01*
X010651Y005868D01*
X010687Y005884D01*
X010723Y005896D01*
X010761Y005905D01*
X010800Y005910D01*
X010839Y005911D01*
X010877Y005908D01*
X010916Y005901D01*
X010953Y005891D01*
X010989Y005876D01*
X011024Y005859D01*
X011057Y005838D01*
X011087Y005813D01*
X011115Y005786D01*
X011140Y005756D01*
X011162Y005724D01*
X011180Y005690D01*
X011195Y005654D01*
X011207Y005617D01*
X011215Y005579D01*
X011219Y005540D01*
X011219Y005502D01*
X011215Y005463D01*
X011207Y005425D01*
X011195Y005388D01*
X011180Y005352D01*
X011162Y005318D01*
X011140Y005286D01*
X011115Y005256D01*
X011087Y005229D01*
X011057Y005204D01*
X011024Y005183D01*
X010989Y005166D01*
X010953Y005151D01*
X010916Y005141D01*
X010877Y005134D01*
X010839Y005131D01*
X010800Y005132D01*
X010761Y005137D01*
X010723Y005146D01*
X010687Y005158D01*
X010651Y005174D01*
X010617Y005193D01*
X010586Y005216D01*
X010557Y005242D01*
X010530Y005270D01*
X010507Y005301D01*
X010486Y005334D01*
X010470Y005370D01*
X010456Y005406D01*
X010447Y005444D01*
X010441Y005482D01*
X010439Y005521D01*
X010429Y005121D02*
X011229Y005921D01*
X010935Y005521D02*
X010937Y005560D01*
X010943Y005598D01*
X010952Y005636D01*
X010966Y005672D01*
X010982Y005708D01*
X011003Y005741D01*
X011026Y005772D01*
X011053Y005800D01*
X011082Y005826D01*
X011113Y005849D01*
X011147Y005868D01*
X011183Y005884D01*
X011219Y005896D01*
X011257Y005905D01*
X011296Y005910D01*
X011335Y005911D01*
X011373Y005908D01*
X011412Y005901D01*
X011449Y005891D01*
X011485Y005876D01*
X011520Y005859D01*
X011553Y005838D01*
X011583Y005813D01*
X011611Y005786D01*
X011636Y005756D01*
X011658Y005724D01*
X011676Y005690D01*
X011691Y005654D01*
X011703Y005617D01*
X011711Y005579D01*
X011715Y005540D01*
X011715Y005502D01*
X011711Y005463D01*
X011703Y005425D01*
X011691Y005388D01*
X011676Y005352D01*
X011658Y005318D01*
X011636Y005286D01*
X011611Y005256D01*
X011583Y005229D01*
X011553Y005204D01*
X011520Y005183D01*
X011485Y005166D01*
X011449Y005151D01*
X011412Y005141D01*
X011373Y005134D01*
X011335Y005131D01*
X011296Y005132D01*
X011257Y005137D01*
X011219Y005146D01*
X011183Y005158D01*
X011147Y005174D01*
X011113Y005193D01*
X011082Y005216D01*
X011053Y005242D01*
X011026Y005270D01*
X011003Y005301D01*
X010982Y005334D01*
X010966Y005370D01*
X010952Y005406D01*
X010943Y005444D01*
X010937Y005482D01*
X010935Y005521D01*
X010925Y005121D02*
X011725Y005921D01*
X012869Y005480D02*
X012871Y005519D01*
X012877Y005557D01*
X012886Y005595D01*
X012900Y005631D01*
X012916Y005667D01*
X012937Y005700D01*
X012960Y005731D01*
X012987Y005759D01*
X013016Y005785D01*
X013047Y005808D01*
X013081Y005827D01*
X013117Y005843D01*
X013153Y005855D01*
X013191Y005864D01*
X013230Y005869D01*
X013269Y005870D01*
X013307Y005867D01*
X013346Y005860D01*
X013383Y005850D01*
X013419Y005835D01*
X013454Y005818D01*
X013487Y005797D01*
X013517Y005772D01*
X013545Y005745D01*
X013570Y005715D01*
X013592Y005683D01*
X013610Y005649D01*
X013625Y005613D01*
X013637Y005576D01*
X013645Y005538D01*
X013649Y005499D01*
X013649Y005461D01*
X013645Y005422D01*
X013637Y005384D01*
X013625Y005347D01*
X013610Y005311D01*
X013592Y005277D01*
X013570Y005245D01*
X013545Y005215D01*
X013517Y005188D01*
X013487Y005163D01*
X013454Y005142D01*
X013419Y005125D01*
X013383Y005110D01*
X013346Y005100D01*
X013307Y005093D01*
X013269Y005090D01*
X013230Y005091D01*
X013191Y005096D01*
X013153Y005105D01*
X013117Y005117D01*
X013081Y005133D01*
X013047Y005152D01*
X013016Y005175D01*
X012987Y005201D01*
X012960Y005229D01*
X012937Y005260D01*
X012916Y005293D01*
X012900Y005329D01*
X012886Y005365D01*
X012877Y005403D01*
X012871Y005441D01*
X012869Y005480D01*
X012859Y005080D02*
X013659Y005880D01*
X010907Y003436D02*
X010107Y003436D01*
X010507Y003036D02*
X010907Y003436D01*
X010507Y003036D02*
X010507Y003836D01*
X010107Y003436D01*
X010009Y002998D02*
X009209Y002998D01*
X009609Y002598D02*
X010009Y002998D01*
X009609Y002598D02*
X009609Y003398D01*
X009209Y002998D01*
X009159Y003580D02*
X008359Y004380D01*
X008359Y003580D02*
X009159Y004380D01*
X005797Y004021D02*
X005799Y004060D01*
X005805Y004098D01*
X005814Y004136D01*
X005828Y004172D01*
X005844Y004208D01*
X005865Y004241D01*
X005888Y004272D01*
X005915Y004300D01*
X005944Y004326D01*
X005975Y004349D01*
X006009Y004368D01*
X006045Y004384D01*
X006081Y004396D01*
X006119Y004405D01*
X006158Y004410D01*
X006197Y004411D01*
X006235Y004408D01*
X006274Y004401D01*
X006311Y004391D01*
X006347Y004376D01*
X006382Y004359D01*
X006415Y004338D01*
X006445Y004313D01*
X006473Y004286D01*
X006498Y004256D01*
X006520Y004224D01*
X006538Y004190D01*
X006553Y004154D01*
X006565Y004117D01*
X006573Y004079D01*
X006577Y004040D01*
X006577Y004002D01*
X006573Y003963D01*
X006565Y003925D01*
X006553Y003888D01*
X006538Y003852D01*
X006520Y003818D01*
X006498Y003786D01*
X006473Y003756D01*
X006445Y003729D01*
X006415Y003704D01*
X006382Y003683D01*
X006347Y003666D01*
X006311Y003651D01*
X006274Y003641D01*
X006235Y003634D01*
X006197Y003631D01*
X006158Y003632D01*
X006119Y003637D01*
X006081Y003646D01*
X006045Y003658D01*
X006009Y003674D01*
X005975Y003693D01*
X005944Y003716D01*
X005915Y003742D01*
X005888Y003770D01*
X005865Y003801D01*
X005844Y003834D01*
X005828Y003870D01*
X005814Y003906D01*
X005805Y003944D01*
X005799Y003982D01*
X005797Y004021D01*
X005787Y003621D02*
X006587Y004421D01*
X005797Y003525D02*
X005799Y003564D01*
X005805Y003602D01*
X005814Y003640D01*
X005828Y003676D01*
X005844Y003712D01*
X005865Y003745D01*
X005888Y003776D01*
X005915Y003804D01*
X005944Y003830D01*
X005975Y003853D01*
X006009Y003872D01*
X006045Y003888D01*
X006081Y003900D01*
X006119Y003909D01*
X006158Y003914D01*
X006197Y003915D01*
X006235Y003912D01*
X006274Y003905D01*
X006311Y003895D01*
X006347Y003880D01*
X006382Y003863D01*
X006415Y003842D01*
X006445Y003817D01*
X006473Y003790D01*
X006498Y003760D01*
X006520Y003728D01*
X006538Y003694D01*
X006553Y003658D01*
X006565Y003621D01*
X006573Y003583D01*
X006577Y003544D01*
X006577Y003506D01*
X006573Y003467D01*
X006565Y003429D01*
X006553Y003392D01*
X006538Y003356D01*
X006520Y003322D01*
X006498Y003290D01*
X006473Y003260D01*
X006445Y003233D01*
X006415Y003208D01*
X006382Y003187D01*
X006347Y003170D01*
X006311Y003155D01*
X006274Y003145D01*
X006235Y003138D01*
X006197Y003135D01*
X006158Y003136D01*
X006119Y003141D01*
X006081Y003150D01*
X006045Y003162D01*
X006009Y003178D01*
X005975Y003197D01*
X005944Y003220D01*
X005915Y003246D01*
X005888Y003274D01*
X005865Y003305D01*
X005844Y003338D01*
X005828Y003374D01*
X005814Y003410D01*
X005805Y003448D01*
X005799Y003486D01*
X005797Y003525D01*
X005787Y003125D02*
X006587Y003925D01*
X004859Y003580D02*
X004059Y004380D01*
X004059Y003580D02*
X004859Y004380D01*
X003510Y005513D02*
X003512Y005552D01*
X003518Y005590D01*
X003527Y005628D01*
X003541Y005664D01*
X003557Y005700D01*
X003578Y005733D01*
X003601Y005764D01*
X003628Y005792D01*
X003657Y005818D01*
X003688Y005841D01*
X003722Y005860D01*
X003758Y005876D01*
X003794Y005888D01*
X003832Y005897D01*
X003871Y005902D01*
X003910Y005903D01*
X003948Y005900D01*
X003987Y005893D01*
X004024Y005883D01*
X004060Y005868D01*
X004095Y005851D01*
X004128Y005830D01*
X004158Y005805D01*
X004186Y005778D01*
X004211Y005748D01*
X004233Y005716D01*
X004251Y005682D01*
X004266Y005646D01*
X004278Y005609D01*
X004286Y005571D01*
X004290Y005532D01*
X004290Y005494D01*
X004286Y005455D01*
X004278Y005417D01*
X004266Y005380D01*
X004251Y005344D01*
X004233Y005310D01*
X004211Y005278D01*
X004186Y005248D01*
X004158Y005221D01*
X004128Y005196D01*
X004095Y005175D01*
X004060Y005158D01*
X004024Y005143D01*
X003987Y005133D01*
X003948Y005126D01*
X003910Y005123D01*
X003871Y005124D01*
X003832Y005129D01*
X003794Y005138D01*
X003758Y005150D01*
X003722Y005166D01*
X003688Y005185D01*
X003657Y005208D01*
X003628Y005234D01*
X003601Y005262D01*
X003578Y005293D01*
X003557Y005326D01*
X003541Y005362D01*
X003527Y005398D01*
X003518Y005436D01*
X003512Y005474D01*
X003510Y005513D01*
X003500Y005113D02*
X004300Y005913D01*
X003014Y005513D02*
X003016Y005552D01*
X003022Y005590D01*
X003031Y005628D01*
X003045Y005664D01*
X003061Y005700D01*
X003082Y005733D01*
X003105Y005764D01*
X003132Y005792D01*
X003161Y005818D01*
X003192Y005841D01*
X003226Y005860D01*
X003262Y005876D01*
X003298Y005888D01*
X003336Y005897D01*
X003375Y005902D01*
X003414Y005903D01*
X003452Y005900D01*
X003491Y005893D01*
X003528Y005883D01*
X003564Y005868D01*
X003599Y005851D01*
X003632Y005830D01*
X003662Y005805D01*
X003690Y005778D01*
X003715Y005748D01*
X003737Y005716D01*
X003755Y005682D01*
X003770Y005646D01*
X003782Y005609D01*
X003790Y005571D01*
X003794Y005532D01*
X003794Y005494D01*
X003790Y005455D01*
X003782Y005417D01*
X003770Y005380D01*
X003755Y005344D01*
X003737Y005310D01*
X003715Y005278D01*
X003690Y005248D01*
X003662Y005221D01*
X003632Y005196D01*
X003599Y005175D01*
X003564Y005158D01*
X003528Y005143D01*
X003491Y005133D01*
X003452Y005126D01*
X003414Y005123D01*
X003375Y005124D01*
X003336Y005129D01*
X003298Y005138D01*
X003262Y005150D01*
X003226Y005166D01*
X003192Y005185D01*
X003161Y005208D01*
X003132Y005234D01*
X003105Y005262D01*
X003082Y005293D01*
X003061Y005326D01*
X003045Y005362D01*
X003031Y005398D01*
X003022Y005436D01*
X003016Y005474D01*
X003014Y005513D01*
X003004Y005113D02*
X003804Y005913D01*
X004759Y006580D02*
X003959Y007380D01*
X003959Y006580D02*
X004759Y007380D01*
D12*
X006971Y005517D02*
X006973Y005573D01*
X006979Y005628D01*
X006989Y005682D01*
X007002Y005736D01*
X007020Y005789D01*
X007041Y005840D01*
X007065Y005890D01*
X007093Y005938D01*
X007125Y005984D01*
X007159Y006028D01*
X007197Y006069D01*
X007237Y006107D01*
X007280Y006142D01*
X007325Y006174D01*
X007373Y006203D01*
X007422Y006229D01*
X007473Y006251D01*
X007525Y006269D01*
X007579Y006283D01*
X007634Y006294D01*
X007689Y006301D01*
X007744Y006304D01*
X007800Y006303D01*
X007855Y006298D01*
X007910Y006289D01*
X007964Y006277D01*
X008017Y006260D01*
X008069Y006240D01*
X008119Y006216D01*
X008167Y006189D01*
X008214Y006159D01*
X008258Y006125D01*
X008300Y006088D01*
X008338Y006048D01*
X008375Y006006D01*
X008408Y005961D01*
X008437Y005915D01*
X008464Y005866D01*
X008486Y005815D01*
X008506Y005763D01*
X008521Y005709D01*
X008533Y005655D01*
X008541Y005600D01*
X008545Y005545D01*
X008545Y005489D01*
X008541Y005434D01*
X008533Y005379D01*
X008521Y005325D01*
X008506Y005271D01*
X008486Y005219D01*
X008464Y005168D01*
X008437Y005119D01*
X008408Y005073D01*
X008375Y005028D01*
X008338Y004986D01*
X008300Y004946D01*
X008258Y004909D01*
X008214Y004875D01*
X008167Y004845D01*
X008119Y004818D01*
X008069Y004794D01*
X008017Y004774D01*
X007964Y004757D01*
X007910Y004745D01*
X007855Y004736D01*
X007800Y004731D01*
X007744Y004730D01*
X007689Y004733D01*
X007634Y004740D01*
X007579Y004751D01*
X007525Y004765D01*
X007473Y004783D01*
X007422Y004805D01*
X007373Y004831D01*
X007325Y004860D01*
X007280Y004892D01*
X007237Y004927D01*
X007197Y004965D01*
X007159Y005006D01*
X007125Y005050D01*
X007093Y005096D01*
X007065Y005144D01*
X007041Y005194D01*
X007020Y005245D01*
X007002Y005298D01*
X006989Y005352D01*
X006979Y005406D01*
X006973Y005461D01*
X006971Y005517D01*
X012946Y005480D02*
X012948Y005515D01*
X012954Y005550D01*
X012964Y005583D01*
X012977Y005616D01*
X012994Y005647D01*
X013014Y005675D01*
X013038Y005701D01*
X013064Y005725D01*
X013092Y005745D01*
X013123Y005762D01*
X013156Y005775D01*
X013189Y005785D01*
X013224Y005791D01*
X013259Y005793D01*
X013294Y005791D01*
X013329Y005785D01*
X013362Y005775D01*
X013395Y005762D01*
X013426Y005745D01*
X013454Y005725D01*
X013480Y005701D01*
X013504Y005675D01*
X013524Y005647D01*
X013541Y005616D01*
X013554Y005583D01*
X013564Y005550D01*
X013570Y005515D01*
X013572Y005480D01*
X013570Y005445D01*
X013564Y005410D01*
X013554Y005377D01*
X013541Y005344D01*
X013524Y005313D01*
X013504Y005285D01*
X013480Y005259D01*
X013454Y005235D01*
X013426Y005215D01*
X013395Y005198D01*
X013362Y005185D01*
X013329Y005175D01*
X013294Y005169D01*
X013259Y005167D01*
X013224Y005169D01*
X013189Y005175D01*
X013156Y005185D01*
X013123Y005198D01*
X013092Y005215D01*
X013064Y005235D01*
X013038Y005259D01*
X013014Y005285D01*
X012994Y005313D01*
X012977Y005344D01*
X012964Y005377D01*
X012954Y005410D01*
X012948Y005445D01*
X012946Y005480D01*
X013024Y014653D02*
X013026Y014688D01*
X013032Y014723D01*
X013042Y014756D01*
X013055Y014789D01*
X013072Y014820D01*
X013092Y014848D01*
X013116Y014874D01*
X013142Y014898D01*
X013170Y014918D01*
X013201Y014935D01*
X013234Y014948D01*
X013267Y014958D01*
X013302Y014964D01*
X013337Y014966D01*
X013372Y014964D01*
X013407Y014958D01*
X013440Y014948D01*
X013473Y014935D01*
X013504Y014918D01*
X013532Y014898D01*
X013558Y014874D01*
X013582Y014848D01*
X013602Y014820D01*
X013619Y014789D01*
X013632Y014756D01*
X013642Y014723D01*
X013648Y014688D01*
X013650Y014653D01*
X013648Y014618D01*
X013642Y014583D01*
X013632Y014550D01*
X013619Y014517D01*
X013602Y014486D01*
X013582Y014458D01*
X013558Y014432D01*
X013532Y014408D01*
X013504Y014388D01*
X013473Y014371D01*
X013440Y014358D01*
X013407Y014348D01*
X013372Y014342D01*
X013337Y014340D01*
X013302Y014342D01*
X013267Y014348D01*
X013234Y014358D01*
X013201Y014371D01*
X013170Y014388D01*
X013142Y014408D01*
X013116Y014432D01*
X013092Y014458D01*
X013072Y014486D01*
X013055Y014517D01*
X013042Y014550D01*
X013032Y014583D01*
X013026Y014618D01*
X013024Y014653D01*
X007050Y014690D02*
X007052Y014746D01*
X007058Y014801D01*
X007068Y014855D01*
X007081Y014909D01*
X007099Y014962D01*
X007120Y015013D01*
X007144Y015063D01*
X007172Y015111D01*
X007204Y015157D01*
X007238Y015201D01*
X007276Y015242D01*
X007316Y015280D01*
X007359Y015315D01*
X007404Y015347D01*
X007452Y015376D01*
X007501Y015402D01*
X007552Y015424D01*
X007604Y015442D01*
X007658Y015456D01*
X007713Y015467D01*
X007768Y015474D01*
X007823Y015477D01*
X007879Y015476D01*
X007934Y015471D01*
X007989Y015462D01*
X008043Y015450D01*
X008096Y015433D01*
X008148Y015413D01*
X008198Y015389D01*
X008246Y015362D01*
X008293Y015332D01*
X008337Y015298D01*
X008379Y015261D01*
X008417Y015221D01*
X008454Y015179D01*
X008487Y015134D01*
X008516Y015088D01*
X008543Y015039D01*
X008565Y014988D01*
X008585Y014936D01*
X008600Y014882D01*
X008612Y014828D01*
X008620Y014773D01*
X008624Y014718D01*
X008624Y014662D01*
X008620Y014607D01*
X008612Y014552D01*
X008600Y014498D01*
X008585Y014444D01*
X008565Y014392D01*
X008543Y014341D01*
X008516Y014292D01*
X008487Y014246D01*
X008454Y014201D01*
X008417Y014159D01*
X008379Y014119D01*
X008337Y014082D01*
X008293Y014048D01*
X008246Y014018D01*
X008198Y013991D01*
X008148Y013967D01*
X008096Y013947D01*
X008043Y013930D01*
X007989Y013918D01*
X007934Y013909D01*
X007879Y013904D01*
X007823Y013903D01*
X007768Y013906D01*
X007713Y013913D01*
X007658Y013924D01*
X007604Y013938D01*
X007552Y013956D01*
X007501Y013978D01*
X007452Y014004D01*
X007404Y014033D01*
X007359Y014065D01*
X007316Y014100D01*
X007276Y014138D01*
X007238Y014179D01*
X007204Y014223D01*
X007172Y014269D01*
X007144Y014317D01*
X007120Y014367D01*
X007099Y014418D01*
X007081Y014471D01*
X007068Y014525D01*
X007058Y014579D01*
X007052Y014634D01*
X007050Y014690D01*
D13*
X000180Y019865D02*
X000180Y000180D01*
X019865Y000180D01*
X019865Y019865D01*
X000180Y019865D01*
M02*
