%
M48
M72
T01C0.0098
T02C0.0138
T03C0.0236
T04C0.0472
T05C0.0625
T06C0.1575
%
T01
X3404Y5513
X6179Y7509
X6187Y3525
X11325Y5521
X6266Y12698
X6258Y16682
X3482Y14686
X11404Y14694
T02
X3900Y5513
X6179Y7013
X6187Y4021
X10829Y5521
X6266Y13194
X6258Y16186
X3978Y14686
X10908Y14694
T03
X4359Y6980
X5859Y5480
X4459Y3980
X8759Y3980
X9527Y5480
X8859Y7080
X4537Y13153
X5937Y14653
X4437Y16153
X8837Y13153
X9606Y14653
X8937Y16253
T04
X9687Y12171
X10586Y12609
X10507Y3436
X9609Y2998
T05
X13337Y14653
X13259Y5480
T06
X7837Y14690
X7758Y5517
M30
