G75*
G70*
%OFA0B0*%
%FSLAX24Y24*%
%IPPOS*%
%LPD*%
%AMOC8*
5,1,8,0,0,1.08239X$1,22.5*
%
%ADD10C,0.0050*%
%ADD11C,0.0000*%
%ADD12C,0.0160*%
D10*
X001459Y003942D02*
X001459Y007092D01*
X004215Y009454D01*
X009333Y009454D01*
X014057Y007092D01*
X014057Y003942D01*
X009333Y001580D01*
X004215Y001580D01*
X001459Y003942D01*
X004293Y010753D02*
X009411Y010753D01*
X014136Y013115D01*
X014136Y016265D01*
X009411Y018627D01*
X004293Y018627D01*
X001537Y016265D01*
X001537Y013115D01*
X004293Y010753D01*
D11*
X007050Y014690D02*
X007052Y014746D01*
X007058Y014801D01*
X007068Y014855D01*
X007081Y014909D01*
X007099Y014962D01*
X007120Y015013D01*
X007144Y015063D01*
X007172Y015111D01*
X007204Y015157D01*
X007238Y015201D01*
X007276Y015242D01*
X007316Y015280D01*
X007359Y015315D01*
X007404Y015347D01*
X007452Y015376D01*
X007501Y015402D01*
X007552Y015424D01*
X007604Y015442D01*
X007658Y015456D01*
X007713Y015467D01*
X007768Y015474D01*
X007823Y015477D01*
X007879Y015476D01*
X007934Y015471D01*
X007989Y015462D01*
X008043Y015450D01*
X008096Y015433D01*
X008148Y015413D01*
X008198Y015389D01*
X008246Y015362D01*
X008293Y015332D01*
X008337Y015298D01*
X008379Y015261D01*
X008417Y015221D01*
X008454Y015179D01*
X008487Y015134D01*
X008516Y015088D01*
X008543Y015039D01*
X008565Y014988D01*
X008585Y014936D01*
X008600Y014882D01*
X008612Y014828D01*
X008620Y014773D01*
X008624Y014718D01*
X008624Y014662D01*
X008620Y014607D01*
X008612Y014552D01*
X008600Y014498D01*
X008585Y014444D01*
X008565Y014392D01*
X008543Y014341D01*
X008516Y014292D01*
X008487Y014246D01*
X008454Y014201D01*
X008417Y014159D01*
X008379Y014119D01*
X008337Y014082D01*
X008293Y014048D01*
X008246Y014018D01*
X008198Y013991D01*
X008148Y013967D01*
X008096Y013947D01*
X008043Y013930D01*
X007989Y013918D01*
X007934Y013909D01*
X007879Y013904D01*
X007823Y013903D01*
X007768Y013906D01*
X007713Y013913D01*
X007658Y013924D01*
X007604Y013938D01*
X007552Y013956D01*
X007501Y013978D01*
X007452Y014004D01*
X007404Y014033D01*
X007359Y014065D01*
X007316Y014100D01*
X007276Y014138D01*
X007238Y014179D01*
X007204Y014223D01*
X007172Y014269D01*
X007144Y014317D01*
X007120Y014367D01*
X007099Y014418D01*
X007081Y014471D01*
X007068Y014525D01*
X007058Y014579D01*
X007052Y014634D01*
X007050Y014690D01*
X013024Y014653D02*
X013026Y014688D01*
X013032Y014723D01*
X013042Y014756D01*
X013055Y014789D01*
X013072Y014820D01*
X013092Y014848D01*
X013116Y014874D01*
X013142Y014898D01*
X013170Y014918D01*
X013201Y014935D01*
X013234Y014948D01*
X013267Y014958D01*
X013302Y014964D01*
X013337Y014966D01*
X013372Y014964D01*
X013407Y014958D01*
X013440Y014948D01*
X013473Y014935D01*
X013504Y014918D01*
X013532Y014898D01*
X013558Y014874D01*
X013582Y014848D01*
X013602Y014820D01*
X013619Y014789D01*
X013632Y014756D01*
X013642Y014723D01*
X013648Y014688D01*
X013650Y014653D01*
X013648Y014618D01*
X013642Y014583D01*
X013632Y014550D01*
X013619Y014517D01*
X013602Y014486D01*
X013582Y014458D01*
X013558Y014432D01*
X013532Y014408D01*
X013504Y014388D01*
X013473Y014371D01*
X013440Y014358D01*
X013407Y014348D01*
X013372Y014342D01*
X013337Y014340D01*
X013302Y014342D01*
X013267Y014348D01*
X013234Y014358D01*
X013201Y014371D01*
X013170Y014388D01*
X013142Y014408D01*
X013116Y014432D01*
X013092Y014458D01*
X013072Y014486D01*
X013055Y014517D01*
X013042Y014550D01*
X013032Y014583D01*
X013026Y014618D01*
X013024Y014653D01*
X012946Y005480D02*
X012948Y005515D01*
X012954Y005550D01*
X012964Y005583D01*
X012977Y005616D01*
X012994Y005647D01*
X013014Y005675D01*
X013038Y005701D01*
X013064Y005725D01*
X013092Y005745D01*
X013123Y005762D01*
X013156Y005775D01*
X013189Y005785D01*
X013224Y005791D01*
X013259Y005793D01*
X013294Y005791D01*
X013329Y005785D01*
X013362Y005775D01*
X013395Y005762D01*
X013426Y005745D01*
X013454Y005725D01*
X013480Y005701D01*
X013504Y005675D01*
X013524Y005647D01*
X013541Y005616D01*
X013554Y005583D01*
X013564Y005550D01*
X013570Y005515D01*
X013572Y005480D01*
X013570Y005445D01*
X013564Y005410D01*
X013554Y005377D01*
X013541Y005344D01*
X013524Y005313D01*
X013504Y005285D01*
X013480Y005259D01*
X013454Y005235D01*
X013426Y005215D01*
X013395Y005198D01*
X013362Y005185D01*
X013329Y005175D01*
X013294Y005169D01*
X013259Y005167D01*
X013224Y005169D01*
X013189Y005175D01*
X013156Y005185D01*
X013123Y005198D01*
X013092Y005215D01*
X013064Y005235D01*
X013038Y005259D01*
X013014Y005285D01*
X012994Y005313D01*
X012977Y005344D01*
X012964Y005377D01*
X012954Y005410D01*
X012948Y005445D01*
X012946Y005480D01*
X006971Y005517D02*
X006973Y005573D01*
X006979Y005628D01*
X006989Y005682D01*
X007002Y005736D01*
X007020Y005789D01*
X007041Y005840D01*
X007065Y005890D01*
X007093Y005938D01*
X007125Y005984D01*
X007159Y006028D01*
X007197Y006069D01*
X007237Y006107D01*
X007280Y006142D01*
X007325Y006174D01*
X007373Y006203D01*
X007422Y006229D01*
X007473Y006251D01*
X007525Y006269D01*
X007579Y006283D01*
X007634Y006294D01*
X007689Y006301D01*
X007744Y006304D01*
X007800Y006303D01*
X007855Y006298D01*
X007910Y006289D01*
X007964Y006277D01*
X008017Y006260D01*
X008069Y006240D01*
X008119Y006216D01*
X008167Y006189D01*
X008214Y006159D01*
X008258Y006125D01*
X008300Y006088D01*
X008338Y006048D01*
X008375Y006006D01*
X008408Y005961D01*
X008437Y005915D01*
X008464Y005866D01*
X008486Y005815D01*
X008506Y005763D01*
X008521Y005709D01*
X008533Y005655D01*
X008541Y005600D01*
X008545Y005545D01*
X008545Y005489D01*
X008541Y005434D01*
X008533Y005379D01*
X008521Y005325D01*
X008506Y005271D01*
X008486Y005219D01*
X008464Y005168D01*
X008437Y005119D01*
X008408Y005073D01*
X008375Y005028D01*
X008338Y004986D01*
X008300Y004946D01*
X008258Y004909D01*
X008214Y004875D01*
X008167Y004845D01*
X008119Y004818D01*
X008069Y004794D01*
X008017Y004774D01*
X007964Y004757D01*
X007910Y004745D01*
X007855Y004736D01*
X007800Y004731D01*
X007744Y004730D01*
X007689Y004733D01*
X007634Y004740D01*
X007579Y004751D01*
X007525Y004765D01*
X007473Y004783D01*
X007422Y004805D01*
X007373Y004831D01*
X007325Y004860D01*
X007280Y004892D01*
X007237Y004927D01*
X007197Y004965D01*
X007159Y005006D01*
X007125Y005050D01*
X007093Y005096D01*
X007065Y005144D01*
X007041Y005194D01*
X007020Y005245D01*
X007002Y005298D01*
X006989Y005352D01*
X006979Y005406D01*
X006973Y005461D01*
X006971Y005517D01*
D12*
X000180Y000180D02*
X000180Y019865D01*
X019865Y019865D01*
X019865Y000180D01*
X000180Y000180D01*
M02*
