  0
SECTION
  2
HEADER
  9
$ACADVER
  1
AC1009
  9
$FILLMODE
 70
0
  9
$EXTMIN
 10
-0.045000
 20
-0.045000
 30
0.000000
  9
$EXTMAX
 10
1.315000
 20
0.845000
 30
0.000000
  0
ENDSEC
  0
SECTION
  2
TABLES
  0
TABLE
  2
LTYPE
 70
1
  0
LTYPE
  2
CONTINUOUS
 70
64
  3
Solid line
 72
65
 73
0
 40
0
  0
ENDTAB
  0
TABLE
  2
LAYER
 70
255
  0
LAYER
  2
1
 70
64
 62
14
  6
CONTINUOUS
  0
LAYER
  2
16
 70
64
 62
174
  6
CONTINUOUS
  0
LAYER
  2
17
 70
64
 62
94
  6
CONTINUOUS
  0
LAYER
  2
18
 70
64
 62
94
  6
CONTINUOUS
  0
LAYER
  2
19
 70
64
 62
54
  6
CONTINUOUS
  0
LAYER
  2
20
 70
64
 62
178
  6
CONTINUOUS
  0
LAYER
  2
21
 70
64
 62
251
  6
CONTINUOUS
  0
LAYER
  2
22
 70
64
 62
251
  6
CONTINUOUS
  0
LAYER
  2
23
 70
64
 62
178
  6
CONTINUOUS
  0
LAYER
  2
24
 70
64
 62
178
  6
CONTINUOUS
  0
LAYER
  2
25
 70
64
 62
251
  6
CONTINUOUS
  0
LAYER
  2
26
 70
64
 62
251
  6
CONTINUOUS
  0
LAYER
  2
27
 70
64
 62
251
  6
CONTINUOUS
  0
LAYER
  2
28
 70
64
 62
251
  6
CONTINUOUS
  0
LAYER
  2
39
 70
64
 62
14
  6
CONTINUOUS
  0
LAYER
  2
40
 70
64
 62
174
  6
CONTINUOUS
  0
LAYER
  2
41
 70
64
 62
14
  6
CONTINUOUS
  0
LAYER
  2
42
 70
64
 62
174
  6
CONTINUOUS
  0
LAYER
  2
43
 70
64
 62
94
  6
CONTINUOUS
  0
LAYER
  2
45
 70
64
 62
251
  6
CONTINUOUS
  0
LAYER
  2
48
 70
64
 62
251
  6
CONTINUOUS
  0
LAYER
  2
49
 70
64
 62
251
  6
CONTINUOUS
  0
LAYER
  2
51
 70
64
 62
251
  6
CONTINUOUS
  0
LAYER
  2
52
 70
64
 62
251
  6
CONTINUOUS
  0
ENDTAB
  0
ENDSEC
  0
SECTION
  2
BLOCKS
  0
BLOCK
  8
0
  2
RECT
 70
64
 10
0.000000
 20
0.000000
 30
0.000000
  3
RECT
  0
SOLID
  8
0
 10
-0.500000
 20
-0.500000
 30
0.000000
 11
0.500000
 21
-0.500000
 31
0.000000
 12
-0.500000
 22
0.500000
 32
0.000000
 13
0.500000
 23
0.500000
 33
0.000000
  0
ENDBLK
  8
0
  0
BLOCK
  8
0
  2
PIE
 70
64
 10
0.000000
 20
0.000000
 30
0.000000
  3
PIE
  0
CIRCLE
  8
0
 10
0.000000
 20
0.000000
 30
0.000000
 40
0.500000
  0
ENDBLK
  8
0
  0
BLOCK
  8
0
  2
OCTAGONP
 70
64
 10
0.000000
 20
0.000000
 30
0.000000
  3
OCTAGONP
  0
POLYLINE
  8
0
 66
1
 10
0.000000
 20
0.000000
 30
0.000000
 40
0.000000
 41
0.000000
 70
1
  0
VERTEX
  8
0
 10
-0.500000
 20
-0.207107
 30
0.000000
  0
VERTEX
  8
0
 10
-0.500000
 20
0.207107
 30
0.000000
  0
VERTEX
  8
0
 10
-0.207107
 20
0.500000
 30
0.000000
  0
VERTEX
  8
0
 10
0.207107
 20
0.500000
 30
0.000000
  0
VERTEX
  8
0
 10
0.500000
 20
0.207107
 30
0.000000
  0
VERTEX
  8
0
 10
0.500000
 20
-0.207107
 30
0.000000
  0
VERTEX
  8
0
 10
0.207107
 20
-0.500000
 30
0.000000
  0
VERTEX
  8
0
 10
-0.207107
 20
-0.500000
 30
0.000000
  0
SEQEND
  8
0
  0
ENDBLK
  8
0
  0
BLOCK
  8
0
  2
SQUAREP
 70
64
 10
0.000000
 20
0.000000
 30
0.000000
  3
SQUAREP
  0
SOLID
  8
0
 10
-0.500000
 20
-0.500000
 30
0.000000
 11
0.500000
 21
-0.500000
 31
0.000000
 12
-0.500000
 22
0.500000
 32
0.000000
 13
0.500000
 23
0.500000
 33
0.000000
  0
ENDBLK
  8
0
  0
BLOCK
  8
0
  2
ROUNDP
 70
64
 10
0.000000
 20
0.000000
 30
0.000000
  3
ROUNDP
  0
CIRCLE
  8
0
 10
0.000000
 20
0.000000
 30
0.000000
 40
0.500000
  0
ENDBLK
  8
0
  0
BLOCK
  8
0
  2
ANNULUSP
 70
64
 10
0.000000
 20
0.000000
 30
0.000000
  3
ANNULUSP
  0
CIRCLE
  8
0
 10
0.000000
 20
0.000000
 30
0.000000
 40
0.500000
  0
ENDBLK
  8
0
  0
BLOCK
  8
0
  2
THERMALP
 70
64
 10
0.000000
 20
0.000000
 30
0.000000
  3
THERMALP
  0
LINE
  8
0
 10
-0.237868
 20
0.450000
 30
0.000000
 11
0.237868
 21
0.450000
 31
0.000000
  0
LINE
  8
0
 10
0.450000
 20
0.237868
 30
0.000000
 11
0.450000
 21
-0.237868
 31
0.000000
  0
LINE
  8
0
 10
0.237868
 20
-0.450000
 30
0.000000
 11
-0.237868
 21
-0.450000
 31
0.000000
  0
LINE
  8
0
 10
-0.450000
 20
-0.237868
 30
0.000000
 11
-0.450000
 21
0.237868
 31
0.000000
  0
ENDBLK
  8
0
  0
BLOCK
  8
0
  2
OCTAGONV
 70
64
 10
0.000000
 20
0.000000
 30
0.000000
  3
OCTAGONV
  0
POLYLINE
  8
0
 66
1
 10
0.000000
 20
0.000000
 30
0.000000
 40
0.000000
 41
0.000000
 70
1
  0
VERTEX
  8
0
 10
-0.500000
 20
-0.207107
 30
0.000000
  0
VERTEX
  8
0
 10
-0.500000
 20
0.207107
 30
0.000000
  0
VERTEX
  8
0
 10
-0.207107
 20
0.500000
 30
0.000000
  0
VERTEX
  8
0
 10
0.207107
 20
0.500000
 30
0.000000
  0
VERTEX
  8
0
 10
0.500000
 20
0.207107
 30
0.000000
  0
VERTEX
  8
0
 10
0.500000
 20
-0.207107
 30
0.000000
  0
VERTEX
  8
0
 10
0.207107
 20
-0.500000
 30
0.000000
  0
VERTEX
  8
0
 10
-0.207107
 20
-0.500000
 30
0.000000
  0
SEQEND
  8
0
  0
ENDBLK
  8
0
  0
BLOCK
  8
0
  2
SQUAREV
 70
64
 10
0.000000
 20
0.000000
 30
0.000000
  3
SQUAREV
  0
SOLID
  8
0
 10
-0.500000
 20
-0.500000
 30
0.000000
 11
0.500000
 21
-0.500000
 31
0.000000
 12
-0.500000
 22
0.500000
 32
0.000000
 13
0.500000
 23
0.500000
 33
0.000000
  0
ENDBLK
  8
0
  0
BLOCK
  8
0
  2
ROUNDV
 70
64
 10
0.000000
 20
0.000000
 30
0.000000
  3
ROUNDV
  0
CIRCLE
  8
0
 10
0.000000
 20
0.000000
 30
0.000000
 40
0.500000
  0
ENDBLK
  8
0
  0
BLOCK
  8
0
  2
ANNULUSV
 70
64
 10
0.000000
 20
0.000000
 30
0.000000
  3
ANNULUSV
  0
CIRCLE
  8
0
 10
0.000000
 20
0.000000
 30
0.000000
 40
0.500000
  0
ENDBLK
  8
0
  0
BLOCK
  8
0
  2
THERMALV
 70
64
 10
0.000000
 20
0.000000
 30
0.000000
  3
THERMALV
  0
LINE
  8
0
 10
-0.237868
 20
0.450000
 30
0.000000
 11
0.237868
 21
0.450000
 31
0.000000
  0
LINE
  8
0
 10
0.450000
 20
0.237868
 30
0.000000
 11
0.450000
 21
-0.237868
 31
0.000000
  0
LINE
  8
0
 10
0.237868
 20
-0.450000
 30
0.000000
 11
-0.237868
 21
-0.450000
 31
0.000000
  0
LINE
  8
0
 10
-0.450000
 20
-0.237868
 30
0.000000
 11
-0.450000
 21
0.237868
 31
0.000000
  0
ENDBLK
  8
0
  0
BLOCK
  8
0
  2
RECT201600X116800R25
 70
64
 10
0.000000
 20
0.000000
 30
0.000000
  3
RECT201600X116800R25
  0
POLYLINE
  8
0
 66
1
 10
0.000000
 20
0.000000
 30
0.000000
 40
0.000000
 41
0.000000
 70
1
  0
VERTEX
  8
0
 10
0.024803
 20
-0.010778
 30
0.000000
  0
VERTEX
  8
0
 10
0.024803
 20
0.010778
 30
0.000000
 42
0.414214
  0
VERTEX
  8
0
 10
0.021211
 20
0.014370
 30
0.000000
  0
VERTEX
  8
0
 10
-0.021211
 20
0.014370
 30
0.000000
 42
0.414214
  0
VERTEX
  8
0
 10
-0.024803
 20
0.010778
 30
0.000000
  0
VERTEX
  8
0
 10
-0.024803
 20
-0.010778
 30
0.000000
 42
0.414214
  0
VERTEX
  8
0
 10
-0.021211
 20
-0.014370
 30
0.000000
  0
VERTEX
  8
0
 10
0.021211
 20
-0.014370
 30
0.000000
 42
0.414214
  0
SEQEND
  8
0
  0
ENDBLK
  8
0
  0
BLOCK
  8
0
  2
RECT176000X91200R50
 70
64
 10
0.000000
 20
0.000000
 30
0.000000
  3
RECT176000X91200R50
  0
POLYLINE
  8
0
 66
1
 10
0.000000
 20
0.000000
 30
0.000000
 40
0.000000
 41
0.000000
 70
1
  0
VERTEX
  8
0
 10
0.021654
 20
-0.005610
 30
0.000000
  0
VERTEX
  8
0
 10
0.021654
 20
0.005610
 30
0.000000
 42
0.414214
  0
VERTEX
  8
0
 10
0.016043
 20
0.011220
 30
0.000000
  0
VERTEX
  8
0
 10
-0.016043
 20
0.011220
 30
0.000000
 42
0.414214
  0
VERTEX
  8
0
 10
-0.021654
 20
0.005610
 30
0.000000
  0
VERTEX
  8
0
 10
-0.021654
 20
-0.005610
 30
0.000000
 42
0.414214
  0
VERTEX
  8
0
 10
-0.016043
 20
-0.011220
 30
0.000000
  0
VERTEX
  8
0
 10
0.016043
 20
-0.011220
 30
0.000000
 42
0.414214
  0
SEQEND
  8
0
  0
ENDBLK
  8
0
  0
BLOCK
  8
0
  2
LONGP100
 70
64
 10
0.000000
 20
0.000000
 30
0.000000
  3
LONGP100
  0
POLYLINE
  8
0
 66
1
 10
0.000000
 20
0.000000
 30
0.000000
 40
0.000000
 41
0.000000
 70
1
  0
VERTEX
  8
0
 10
-0.500000
 20
-0.500000
 30
0.000000
  0
VERTEX
  8
0
 10
0.500000
 20
-0.500000
 30
0.000000
 42
1.000000
  0
VERTEX
  8
0
 10
0.500000
 20
0.500000
 30
0.000000
  0
VERTEX
  8
0
 10
-0.500000
 20
0.500000
 30
0.000000
 42
1.000000
  0
SEQEND
  8
0
  0
ENDBLK
  8
0
  0
ENDSEC
  0
SECTION
  2
ENTITIES
  0
LINE
  8
20
 10
0.275591
 20
0.000000
 30
0.000000
 11
0.000000
 21
0.236220
 31
0.000000
  0
LINE
  8
20
 10
0.000000
 20
0.236220
 30
0.000000
 11
0.000000
 21
0.551181
 31
0.000000
  0
LINE
  8
20
 10
0.000000
 20
0.551181
 30
0.000000
 11
0.275591
 21
0.787402
 31
0.000000
  0
LINE
  8
20
 10
0.275591
 20
0.787402
 30
0.000000
 11
0.787402
 21
0.787402
 31
0.000000
  0
LINE
  8
20
 10
0.787402
 20
0.787402
 30
0.000000
 11
1.259843
 21
0.551181
 31
0.000000
  0
LINE
  8
20
 10
1.259843
 20
0.551181
 30
0.000000
 11
1.259843
 21
0.236220
 31
0.000000
  0
LINE
  8
20
 10
1.259843
 20
0.236220
 30
0.000000
 11
0.787402
 21
0.000000
 31
0.000000
  0
LINE
  8
20
 10
0.787402
 20
0.000000
 30
0.000000
 11
0.275591
 21
0.000000
 31
0.000000
  0
LINE
  8
21
 10
0.684192
 20
0.162719
 30
0.000000
 11
0.722573
 21
0.181438
 31
0.000000
  0
LINE
  8
21
 10
0.694022
 20
0.191269
 30
0.000000
 11
0.712742
 21
0.152888
 31
0.000000
  0
LINE
  8
21
 10
0.928286
 20
0.292640
 30
0.000000
 11
0.966667
 21
0.311360
 31
0.000000
  0
LINE
  8
16
 10
1.146897
 20
0.577608
 30
0.000000
 11
1.169086
 21
0.566785
 31
0.000000
  0
LINE
  8
16
 10
1.169086
 20
0.566785
 30
0.000000
 11
1.152853
 21
0.533502
 31
0.000000
  0
LINE
  8
16
 10
1.152853
 20
0.533502
 30
0.000000
 11
1.130664
 21
0.544324
 31
0.000000
  0
LINE
  8
16
 10
1.160970
 20
0.550143
 30
0.000000
 11
1.149875
 21
0.555555
 31
0.000000
  0
LINE
  8
16
 10
1.119749
 20
0.549648
 30
0.000000
 11
1.135983
 21
0.582931
 31
0.000000
  0
LINE
  8
16
 10
1.135983
 20
0.582931
 30
0.000000
 11
1.119477
 21
0.577248
 31
0.000000
  0
LINE
  8
16
 10
1.119477
 20
0.577248
 30
0.000000
 11
1.113793
 21
0.593754
 31
0.000000
  0
LINE
  8
16
 10
1.113793
 20
0.593754
 30
0.000000
 11
1.097560
 21
0.560470
 31
0.000000
  0
LINE
  8
16
 10
1.064456
 20
0.576616
 30
0.000000
 11
1.086645
 21
0.565793
 31
0.000000
  0
LINE
  8
16
 10
1.086645
 20
0.565793
 30
0.000000
 11
1.075278
 21
0.598805
 31
0.000000
  0
LINE
  8
16
 10
1.075278
 20
0.598805
 30
0.000000
 11
1.077984
 21
0.604352
 31
0.000000
  0
LINE
  8
16
 10
1.077984
 20
0.604352
 30
0.000000
 11
1.086237
 21
0.607194
 31
0.000000
  0
LINE
  8
16
 10
1.086237
 20
0.607194
 30
0.000000
 11
1.097331
 21
0.601783
 31
0.000000
  0
LINE
  8
16
 10
1.097331
 20
0.601783
 30
0.000000
 11
1.100173
 21
0.593530
 31
0.000000
  0
LINE
  8
16
 10
1.056247
 20
0.587486
 30
0.000000
 11
1.067069
 21
0.609675
 31
0.000000
  0
LINE
  8
16
 10
1.067069
 20
0.609675
 30
0.000000
 11
1.064228
 21
0.617928
 31
0.000000
  0
LINE
  8
16
 10
1.064228
 20
0.617928
 30
0.000000
 11
1.053133
 21
0.623340
 31
0.000000
  0
LINE
  8
16
 10
1.053133
 20
0.623340
 30
0.000000
 11
1.044880
 21
0.620498
 31
0.000000
  0
LINE
  8
16
 10
1.044880
 20
0.620498
 30
0.000000
 11
1.034058
 21
0.598309
 31
0.000000
  0
LINE
  8
16
 10
1.034058
 20
0.598309
 30
0.000000
 11
1.036899
 21
0.590056
 31
0.000000
  0
LINE
  8
16
 10
1.036899
 20
0.590056
 30
0.000000
 11
1.047994
 21
0.584645
 31
0.000000
  0
LINE
  8
16
 10
1.047994
 20
0.584645
 30
0.000000
 11
1.056247
 21
0.587486
 31
0.000000
  0
LINE
  8
16
 10
1.056247
 20
0.587486
 30
0.000000
 11
1.044880
 21
0.620498
 31
0.000000
  0
LINE
  8
16
 10
1.031260
 20
0.620274
 30
0.000000
 11
1.025576
 21
0.636780
 31
0.000000
  0
LINE
  8
16
 10
1.025576
 20
0.636780
 30
0.000000
 11
1.009343
 21
0.603496
 31
0.000000
  0
LINE
  8
16
 10
1.020437
 20
0.598085
 30
0.000000
 11
0.998248
 21
0.608907
 31
0.000000
  0
LINE
  8
16
 10
1.000862
 20
0.641967
 30
0.000000
 11
0.998020
 21
0.650220
 31
0.000000
  0
LINE
  8
16
 10
0.998020
 20
0.650220
 30
0.000000
 11
0.986925
 21
0.655631
 31
0.000000
  0
LINE
  8
16
 10
0.986925
 20
0.655631
 30
0.000000
 11
0.978672
 21
0.652789
 31
0.000000
  0
LINE
  8
16
 10
0.978672
 20
0.652789
 30
0.000000
 11
0.975967
 21
0.647242
 31
0.000000
  0
LINE
  8
16
 10
0.975967
 20
0.647242
 30
0.000000
 11
0.978809
 21
0.638989
 31
0.000000
  0
LINE
  8
16
 10
0.978809
 20
0.638989
 30
0.000000
 11
0.984356
 21
0.636284
 31
0.000000
  0
LINE
  8
16
 10
0.978809
 20
0.638989
 30
0.000000
 11
0.970556
 21
0.636148
 31
0.000000
  0
LINE
  8
16
 10
0.970556
 20
0.636148
 30
0.000000
 11
0.967850
 21
0.630600
 31
0.000000
  0
LINE
  8
16
 10
0.967850
 20
0.630600
 30
0.000000
 11
0.970692
 21
0.622347
 31
0.000000
  0
LINE
  8
16
 10
0.970692
 20
0.622347
 30
0.000000
 11
0.981786
 21
0.616936
 31
0.000000
  0
LINE
  8
16
 10
0.981786
 20
0.616936
 30
0.000000
 11
0.990039
 21
0.619778
 31
0.000000
  0
LINE
  8
16
 10
0.956935
 20
0.635924
 30
0.000000
 11
0.967758
 21
0.658113
 31
0.000000
  0
LINE
  8
16
 10
0.967758
 20
0.658113
 30
0.000000
 11
0.964916
 21
0.666366
 31
0.000000
  0
LINE
  8
16
 10
0.964916
 20
0.666366
 30
0.000000
 11
0.953821
 21
0.671777
 31
0.000000
  0
LINE
  8
16
 10
0.953821
 20
0.671777
 30
0.000000
 11
0.945569
 21
0.668935
 31
0.000000
  0
LINE
  8
16
 10
0.945569
 20
0.668935
 30
0.000000
 11
0.934746
 21
0.646746
 31
0.000000
  0
LINE
  8
16
 10
0.934746
 20
0.646746
 30
0.000000
 11
0.937588
 21
0.638493
 31
0.000000
  0
LINE
  8
16
 10
0.937588
 20
0.638493
 30
0.000000
 11
0.948682
 21
0.633082
 31
0.000000
  0
LINE
  8
16
 10
0.948682
 20
0.633082
 30
0.000000
 11
0.956935
 21
0.635924
 31
0.000000
  0
LINE
  8
16
 10
0.956935
 20
0.635924
 30
0.000000
 11
0.945569
 21
0.668935
 31
0.000000
  0
LINE
  8
16
 10
0.904484
 20
0.654639
 30
0.000000
 11
0.920718
 21
0.687923
 31
0.000000
  0
LINE
  8
16
 10
0.920718
 20
0.687923
 30
0.000000
 11
0.929243
 21
0.663164
 31
0.000000
  0
LINE
  8
16
 10
0.929243
 20
0.663164
 30
0.000000
 11
0.907054
 21
0.673986
 31
0.000000
  0
LINE
  8
16
 10
0.898844
 20
0.684857
 30
0.000000
 11
0.893161
 21
0.701363
 31
0.000000
  0
LINE
  8
16
 10
0.893161
 20
0.701363
 30
0.000000
 11
0.876928
 21
0.668079
 31
0.000000
  0
LINE
  8
16
 10
0.888022
 20
0.662668
 30
0.000000
 11
0.865833
 21
0.673490
 31
0.000000
  0
LINE
  8
16
 10
0.832729
 20
0.689636
 30
0.000000
 11
0.854918
 21
0.678814
 31
0.000000
  0
LINE
  8
16
 10
0.854918
 20
0.678814
 30
0.000000
 11
0.843551
 21
0.711825
 31
0.000000
  0
LINE
  8
16
 10
0.843551
 20
0.711825
 30
0.000000
 11
0.846257
 21
0.717373
 31
0.000000
  0
LINE
  8
16
 10
0.846257
 20
0.717373
 30
0.000000
 11
0.854510
 21
0.720214
 31
0.000000
  0
LINE
  8
16
 10
0.854510
 20
0.720214
 30
0.000000
 11
0.865605
 21
0.714803
 31
0.000000
  0
LINE
  8
16
 10
0.865605
 20
0.714803
 30
0.000000
 11
0.868446
 21
0.706550
 31
0.000000
  0
CIRCLE
  8
20
 10
0.629921
 20
0.393701
 30
0.000000
 40
0.078740
  0
CIRCLE
  8
20
 10
1.180000
 20
0.390000
 30
0.000000
 40
0.031250
  0
POINT
  8
23
 10
0.984252
 20
0.393701
 30
0.000000
  0
LINE
  8
51
 10
1.096260
 20
0.450197
 30
0.000000
 11
1.096260
 21
0.337205
 31
0.000000
  0
LINE
  8
51
 10
1.096260
 20
0.337205
 30
0.000000
 11
0.928937
 21
0.337205
 31
0.000000
  0
LINE
  8
51
 10
0.928937
 20
0.337205
 30
0.000000
 11
0.928937
 21
0.450197
 31
0.000000
  0
LINE
  8
51
 10
0.928937
 20
0.450197
 30
0.000000
 11
1.096260
 21
0.450197
 31
0.000000
  0
ARC
  8
21
 10
0.984063
 20
0.393307
 30
0.000000
 40
0.046707
 50
293.855589
 51
66.144411
  0
LINE
  8
21
 10
1.066260
 20
0.337205
 30
0.000000
 11
1.008937
 21
0.337205
 31
0.000000
  0
LINE
  8
21
 10
1.008937
 20
0.450197
 30
0.000000
 11
1.066260
 21
0.450197
 31
0.000000
  0
LINE
  8
21
 10
1.096260
 20
0.395197
 30
0.000000
 11
1.096260
 21
0.392992
 31
0.000000
  0
CIRCLE
  8
51
 10
0.984252
 20
0.393701
 30
0.000000
 40
0.046260
  0
CIRCLE
  8
21
 10
1.072756
 20
0.393701
 30
0.000000
 40
0.001969
  0
CIRCLE
  8
51
 10
0.935039
 20
0.442913
 30
0.000000
 40
0.001969
  0
INSERT
  8
1
  2
RECT201600X116800R25
 10
1.083071
 20
0.427953
 30
0.000000
 41
1.000000
 42
1.000000
 43
1.000000
 50
270.000000
  0
INSERT
  8
1
  2
RECT176000X91200R50
 10
1.093701
 20
0.448425
 30
0.000000
 41
1.000000
 42
1.000000
 43
1.000000
 50
45.000000
  0
INSERT
  8
1
  2
RECT201600X116800R25
 10
1.083071
 20
0.359449
 30
0.000000
 41
1.000000
 42
1.000000
 43
1.000000
 50
270.000000
  0
INSERT
  8
1
  2
RECT176000X91200R50
 10
1.094094
 20
0.338976
 30
0.000000
 41
1.000000
 42
1.000000
 43
1.000000
 50
315.000000
  0
INSERT
  8
1
  2
RECT
 10
0.964961
 20
0.394094
 30
0.000000
 41
0.112598
 42
0.072047
 43
1.000000
 50
270.000000
  0
INSERT
  8
1
  2
RECT176000X91200R50
 10
0.930315
 20
0.338976
 30
0.000000
 41
1.000000
 42
1.000000
 43
1.000000
 50
225.000000
  0
INSERT
  8
1
  2
RECT176000X91200R50
 10
0.929921
 20
0.448425
 30
0.000000
 41
1.000000
 42
1.000000
 43
1.000000
 50
135.000000
  0
INSERT
  8
17
  2
ROUNDP
 10
0.986614
 20
0.394094
 30
0.000000
 41
0.029843
 42
0.029843
 43
1.000000
 50
270.000000
  0
INSERT
  8
17
  2
ROUNDP
 10
0.986614
 20
0.394094
 30
0.000000
 41
0.029843
 42
0.029843
 43
1.000000
 50
270.000000
  0
INSERT
  8
17
  2
ROUNDP
 10
0.937008
 20
0.394094
 30
0.000000
 41
0.033780
 42
0.033780
 43
1.000000
 50
270.000000
  0
INSERT
  8
17
  2
ROUNDP
 10
0.937008
 20
0.394094
 30
0.000000
 41
0.033780
 42
0.033780
 43
1.000000
 50
270.000000
  0
POINT
  8
23
 10
0.472441
 20
0.590551
 30
0.000000
  0
LINE
  8
51
 10
0.415945
 20
0.702559
 30
0.000000
 11
0.528937
 21
0.702559
 31
0.000000
  0
LINE
  8
51
 10
0.528937
 20
0.702559
 30
0.000000
 11
0.528937
 21
0.535236
 31
0.000000
  0
LINE
  8
51
 10
0.528937
 20
0.535236
 30
0.000000
 11
0.415945
 21
0.535236
 31
0.000000
  0
LINE
  8
51
 10
0.415945
 20
0.535236
 30
0.000000
 11
0.415945
 21
0.702559
 31
0.000000
  0
ARC
  8
21
 10
0.472835
 20
0.590362
 30
0.000000
 40
0.046707
 50
23.855589
 51
156.144411
  0
LINE
  8
21
 10
0.528937
 20
0.672559
 30
0.000000
 11
0.528937
 21
0.615236
 31
0.000000
  0
LINE
  8
21
 10
0.415945
 20
0.615236
 30
0.000000
 11
0.415945
 21
0.672559
 31
0.000000
  0
LINE
  8
21
 10
0.470945
 20
0.702559
 30
0.000000
 11
0.473150
 21
0.702559
 31
0.000000
  0
CIRCLE
  8
51
 10
0.472441
 20
0.590551
 30
0.000000
 40
0.046260
  0
CIRCLE
  8
21
 10
0.472441
 20
0.679055
 30
0.000000
 40
0.001969
  0
CIRCLE
  8
51
 10
0.423228
 20
0.541339
 30
0.000000
 40
0.001969
  0
INSERT
  8
1
  2
RECT201600X116800R25
 10
0.438189
 20
0.689370
 30
0.000000
 41
1.000000
 42
1.000000
 43
1.000000
 50
0.000000
  0
INSERT
  8
1
  2
RECT176000X91200R50
 10
0.417717
 20
0.700000
 30
0.000000
 41
1.000000
 42
1.000000
 43
1.000000
 50
135.000000
  0
INSERT
  8
1
  2
RECT201600X116800R25
 10
0.506693
 20
0.689370
 30
0.000000
 41
1.000000
 42
1.000000
 43
1.000000
 50
0.000000
  0
INSERT
  8
1
  2
RECT176000X91200R50
 10
0.527165
 20
0.700394
 30
0.000000
 41
1.000000
 42
1.000000
 43
1.000000
 50
45.000000
  0
INSERT
  8
1
  2
RECT
 10
0.472047
 20
0.571260
 30
0.000000
 41
0.112598
 42
0.072047
 43
1.000000
 50
0.000000
  0
INSERT
  8
1
  2
RECT176000X91200R50
 10
0.527165
 20
0.536614
 30
0.000000
 41
1.000000
 42
1.000000
 43
1.000000
 50
315.000000
  0
INSERT
  8
1
  2
RECT176000X91200R50
 10
0.417717
 20
0.536220
 30
0.000000
 41
1.000000
 42
1.000000
 43
1.000000
 50
225.000000
  0
INSERT
  8
17
  2
ROUNDP
 10
0.472047
 20
0.592913
 30
0.000000
 41
0.029843
 42
0.029843
 43
1.000000
 50
0.000000
  0
INSERT
  8
17
  2
ROUNDP
 10
0.472047
 20
0.592913
 30
0.000000
 41
0.029843
 42
0.029843
 43
1.000000
 50
0.000000
  0
INSERT
  8
17
  2
ROUNDP
 10
0.472047
 20
0.543307
 30
0.000000
 41
0.033780
 42
0.033780
 43
1.000000
 50
0.000000
  0
INSERT
  8
17
  2
ROUNDP
 10
0.472047
 20
0.543307
 30
0.000000
 41
0.033780
 42
0.033780
 43
1.000000
 50
0.000000
  0
POINT
  8
23
 10
0.196850
 20
0.393701
 30
0.000000
  0
LINE
  8
51
 10
0.084843
 20
0.337205
 30
0.000000
 11
0.084843
 21
0.450197
 31
0.000000
  0
LINE
  8
51
 10
0.084843
 20
0.450197
 30
0.000000
 11
0.252165
 21
0.450197
 31
0.000000
  0
LINE
  8
51
 10
0.252165
 20
0.450197
 30
0.000000
 11
0.252165
 21
0.337205
 31
0.000000
  0
LINE
  8
51
 10
0.252165
 20
0.337205
 30
0.000000
 11
0.084843
 21
0.337205
 31
0.000000
  0
ARC
  8
21
 10
0.197039
 20
0.394094
 30
0.000000
 40
0.046707
 50
113.855588
 51
246.144412
  0
LINE
  8
21
 10
0.114843
 20
0.450197
 30
0.000000
 11
0.172165
 21
0.450197
 31
0.000000
  0
LINE
  8
21
 10
0.172165
 20
0.337205
 30
0.000000
 11
0.114843
 21
0.337205
 31
0.000000
  0
LINE
  8
21
 10
0.084843
 20
0.392205
 30
0.000000
 11
0.084843
 21
0.394409
 31
0.000000
  0
CIRCLE
  8
51
 10
0.196850
 20
0.393701
 30
0.000000
 40
0.046260
  0
CIRCLE
  8
21
 10
0.108346
 20
0.393701
 30
0.000000
 40
0.001969
  0
CIRCLE
  8
51
 10
0.246063
 20
0.344488
 30
0.000000
 40
0.001969
  0
INSERT
  8
1
  2
RECT201600X116800R25
 10
0.098031
 20
0.359449
 30
0.000000
 41
1.000000
 42
1.000000
 43
1.000000
 50
90.000000
  0
INSERT
  8
1
  2
RECT176000X91200R50
 10
0.087402
 20
0.338976
 30
0.000000
 41
1.000000
 42
1.000000
 43
1.000000
 50
225.000000
  0
INSERT
  8
1
  2
RECT201600X116800R25
 10
0.098031
 20
0.427953
 30
0.000000
 41
1.000000
 42
1.000000
 43
1.000000
 50
90.000000
  0
INSERT
  8
1
  2
RECT176000X91200R50
 10
0.087008
 20
0.448425
 30
0.000000
 41
1.000000
 42
1.000000
 43
1.000000
 50
135.000000
  0
INSERT
  8
1
  2
RECT
 10
0.216142
 20
0.393307
 30
0.000000
 41
0.112598
 42
0.072047
 43
1.000000
 50
90.000000
  0
INSERT
  8
1
  2
RECT176000X91200R50
 10
0.250787
 20
0.448425
 30
0.000000
 41
1.000000
 42
1.000000
 43
1.000000
 50
45.000000
  0
INSERT
  8
1
  2
RECT176000X91200R50
 10
0.251181
 20
0.338976
 30
0.000000
 41
1.000000
 42
1.000000
 43
1.000000
 50
315.000000
  0
INSERT
  8
17
  2
ROUNDP
 10
0.194488
 20
0.393307
 30
0.000000
 41
0.029843
 42
0.029843
 43
1.000000
 50
90.000000
  0
INSERT
  8
17
  2
ROUNDP
 10
0.194488
 20
0.393307
 30
0.000000
 41
0.029843
 42
0.029843
 43
1.000000
 50
90.000000
  0
INSERT
  8
17
  2
ROUNDP
 10
0.244094
 20
0.393307
 30
0.000000
 41
0.033780
 42
0.033780
 43
1.000000
 50
90.000000
  0
INSERT
  8
17
  2
ROUNDP
 10
0.244094
 20
0.393307
 30
0.000000
 41
0.033780
 42
0.033780
 43
1.000000
 50
90.000000
  0
POINT
  8
23
 10
0.472441
 20
0.196850
 30
0.000000
  0
LINE
  8
51
 10
0.528937
 20
0.084843
 30
0.000000
 11
0.415945
 21
0.084843
 31
0.000000
  0
LINE
  8
51
 10
0.415945
 20
0.084843
 30
0.000000
 11
0.415945
 21
0.252165
 31
0.000000
  0
LINE
  8
51
 10
0.415945
 20
0.252165
 30
0.000000
 11
0.528937
 21
0.252165
 31
0.000000
  0
LINE
  8
51
 10
0.528937
 20
0.252165
 30
0.000000
 11
0.528937
 21
0.084843
 31
0.000000
  0
ARC
  8
21
 10
0.472047
 20
0.197039
 30
0.000000
 40
0.046707
 50
203.855588
 51
336.144411
  0
LINE
  8
21
 10
0.415945
 20
0.114843
 30
0.000000
 11
0.415945
 21
0.172165
 31
0.000000
  0
LINE
  8
21
 10
0.528937
 20
0.172165
 30
0.000000
 11
0.528937
 21
0.114843
 31
0.000000
  0
LINE
  8
21
 10
0.473937
 20
0.084843
 30
0.000000
 11
0.471732
 21
0.084843
 31
0.000000
  0
CIRCLE
  8
51
 10
0.472441
 20
0.196850
 30
0.000000
 40
0.046260
  0
CIRCLE
  8
21
 10
0.472441
 20
0.108346
 30
0.000000
 40
0.001969
  0
CIRCLE
  8
51
 10
0.521654
 20
0.246063
 30
0.000000
 40
0.001969
  0
INSERT
  8
1
  2
RECT201600X116800R25
 10
0.506693
 20
0.098031
 30
0.000000
 41
1.000000
 42
1.000000
 43
1.000000
 50
180.000000
  0
INSERT
  8
1
  2
RECT176000X91200R50
 10
0.527165
 20
0.087402
 30
0.000000
 41
1.000000
 42
1.000000
 43
1.000000
 50
315.000000
  0
INSERT
  8
1
  2
RECT201600X116800R25
 10
0.438189
 20
0.098031
 30
0.000000
 41
1.000000
 42
1.000000
 43
1.000000
 50
180.000000
  0
INSERT
  8
1
  2
RECT176000X91200R50
 10
0.417717
 20
0.087008
 30
0.000000
 41
1.000000
 42
1.000000
 43
1.000000
 50
225.000000
  0
INSERT
  8
1
  2
RECT
 10
0.472835
 20
0.216142
 30
0.000000
 41
0.112598
 42
0.072047
 43
1.000000
 50
180.000000
  0
INSERT
  8
1
  2
RECT176000X91200R50
 10
0.417717
 20
0.250787
 30
0.000000
 41
1.000000
 42
1.000000
 43
1.000000
 50
135.000000
  0
INSERT
  8
1
  2
RECT176000X91200R50
 10
0.527165
 20
0.251181
 30
0.000000
 41
1.000000
 42
1.000000
 43
1.000000
 50
45.000000
  0
INSERT
  8
17
  2
ROUNDP
 10
0.472835
 20
0.194488
 30
0.000000
 41
0.029843
 42
0.029843
 43
1.000000
 50
180.000000
  0
INSERT
  8
17
  2
ROUNDP
 10
0.472835
 20
0.194488
 30
0.000000
 41
0.029843
 42
0.029843
 43
1.000000
 50
180.000000
  0
INSERT
  8
17
  2
ROUNDP
 10
0.472835
 20
0.244094
 30
0.000000
 41
0.033780
 42
0.033780
 43
1.000000
 50
180.000000
  0
INSERT
  8
17
  2
ROUNDP
 10
0.472835
 20
0.244094
 30
0.000000
 41
0.033780
 42
0.033780
 43
1.000000
 50
180.000000
  0
POINT
  8
23
 10
0.859921
 20
0.163701
 30
0.000000
  0
LINE
  8
21
 10
0.790467
 20
0.066311
 30
0.000000
 11
0.979426
 21
0.158472
 31
0.000000
  0
LINE
  8
21
 10
0.979426
 20
0.158472
 30
0.000000
 11
0.929376
 21
0.261091
 31
0.000000
  0
LINE
  8
21
 10
0.929376
 20
0.261091
 30
0.000000
 11
0.740417
 21
0.168929
 31
0.000000
  0
LINE
  8
21
 10
0.740417
 20
0.168929
 30
0.000000
 11
0.790467
 21
0.066311
 31
0.000000
  0
LINE
  8
21
 10
0.750350
 20
0.158443
 30
0.000000
 11
0.931524
 21
0.246807
 31
0.000000
  0
LINE
  8
51
 10
0.801279
 20
0.112847
 30
0.000000
 11
0.821998
 21
0.173019
 31
0.000000
  0
LINE
  8
51
 10
0.882281
 20
0.163480
 30
0.000000
 11
0.929633
 21
0.203264
 31
0.000000
  0
CIRCLE
  8
51
 10
0.814982
 20
0.141782
 30
0.000000
 40
0.035000
  0
CIRCLE
  8
51
 10
0.904861
 20
0.185619
 30
0.000000
 40
0.035000
  0
INSERT
  8
17
  2
LONGP100
 10
0.814982
 20
0.141782
 30
0.000000
 41
0.070866
 42
0.070866
 43
1.000000
 50
116.000000
  0
INSERT
  8
17
  2
LONGP100
 10
0.814982
 20
0.141782
 30
0.000000
 41
0.070866
 42
0.070866
 43
1.000000
 50
116.000000
  0
INSERT
  8
17
  2
LONGP100
 10
0.904861
 20
0.185619
 30
0.000000
 41
0.070866
 42
0.070866
 43
1.000000
 50
116.000000
  0
INSERT
  8
17
  2
LONGP100
 10
0.904861
 20
0.185619
 30
0.000000
 41
0.070866
 42
0.070866
 43
1.000000
 50
116.000000
  0
LINE
  8
1
 10
0.506693
 20
0.689370
 30
0.000000
 11
0.516142
 21
0.689370
 31
0.000000
  0
LINE
  8
1
 10
0.516142
 20
0.689370
 30
0.000000
 11
0.527165
 21
0.700394
 31
0.000000
  0
LINE
  8
1
 10
0.527165
 20
0.700394
 30
0.000000
 11
0.769606
 21
0.700394
 31
0.000000
  0
LINE
  8
1
 10
0.769606
 20
0.700394
 30
0.000000
 11
0.770000
 21
0.700000
 31
0.000000
  0
LINE
  8
1
 10
0.770000
 20
0.700000
 30
0.000000
 11
1.100000
 21
0.520000
 31
0.000000
  0
LINE
  8
1
 10
1.100000
 20
0.520000
 30
0.000000
 11
1.100000
 21
0.454724
 31
0.000000
  0
LINE
  8
1
 10
1.100000
 20
0.454724
 30
0.000000
 11
1.093701
 21
0.448425
 31
0.000000
  0
LINE
  8
1
 10
1.093701
 20
0.448425
 30
0.000000
 11
1.093701
 21
0.438583
 31
0.000000
  0
LINE
  8
1
 10
1.093701
 20
0.438583
 30
0.000000
 11
1.083071
 21
0.427953
 31
0.000000
  0
LINE
  8
1
 10
0.098031
 20
0.427953
 30
0.000000
 11
0.098031
 21
0.437402
 31
0.000000
  0
LINE
  8
1
 10
0.098031
 20
0.437402
 30
0.000000
 11
0.087008
 21
0.448425
 31
0.000000
  0
LINE
  8
1
 10
0.087008
 20
0.448425
 30
0.000000
 11
0.087008
 21
0.527008
 31
0.000000
  0
LINE
  8
1
 10
0.087008
 20
0.527008
 30
0.000000
 11
0.290000
 21
0.700000
 31
0.000000
  0
LINE
  8
1
 10
0.290000
 20
0.700000
 30
0.000000
 11
0.417717
 21
0.700000
 31
0.000000
  0
LINE
  8
1
 10
0.417717
 20
0.700000
 30
0.000000
 11
0.427559
 21
0.700000
 31
0.000000
  0
LINE
  8
1
 10
0.427559
 20
0.700000
 30
0.000000
 11
0.438189
 21
0.689370
 31
0.000000
  0
LINE
  8
1
 10
0.087402
 20
0.338976
 30
0.000000
 11
0.087402
 21
0.252598
 31
0.000000
  0
LINE
  8
1
 10
0.087402
 20
0.252598
 30
0.000000
 11
0.290000
 21
0.080000
 31
0.000000
  0
LINE
  8
1
 10
0.290000
 20
0.080000
 30
0.000000
 11
0.410709
 21
0.080000
 31
0.000000
  0
LINE
  8
1
 10
0.410709
 20
0.080000
 30
0.000000
 11
0.417717
 21
0.087008
 31
0.000000
  0
LINE
  8
1
 10
0.438189
 20
0.098031
 30
0.000000
 11
0.428740
 21
0.098031
 31
0.000000
  0
LINE
  8
1
 10
0.428740
 20
0.098031
 30
0.000000
 11
0.417717
 21
0.087008
 31
0.000000
  0
LINE
  8
1
 10
0.098031
 20
0.359449
 30
0.000000
 11
0.098031
 21
0.349606
 31
0.000000
  0
LINE
  8
1
 10
0.098031
 20
0.349606
 30
0.000000
 11
0.087402
 21
0.338976
 31
0.000000
  0
LINE
  8
1
 10
0.693589
 20
0.125401
 30
0.000000
 11
0.542905
 21
0.125401
 31
0.000000
  0
LINE
  8
1
 10
0.542905
 20
0.125401
 30
0.000000
 11
0.538061
 21
0.130246
 31
0.000000
  0
LINE
  8
1
 10
0.538061
 20
0.130246
 30
0.000000
 11
0.524094
 21
0.136031
 31
0.000000
  0
LINE
  8
1
 10
0.524094
 20
0.136031
 30
0.000000
 11
0.499134
 21
0.136031
 31
0.000000
  0
LINE
  8
1
 10
0.499134
 20
0.136031
 30
0.000000
 11
0.485168
 21
0.130246
 31
0.000000
  0
LINE
  8
1
 10
0.485168
 20
0.130246
 30
0.000000
 11
0.480323
 21
0.125401
 31
0.000000
  0
LINE
  8
1
 10
0.480323
 20
0.125401
 30
0.000000
 11
0.478609
 21
0.125401
 31
0.000000
  0
LINE
  8
1
 10
0.478609
 20
0.125401
 30
0.000000
 11
0.472441
 21
0.119233
 31
0.000000
  0
LINE
  8
1
 10
0.472441
 20
0.119233
 30
0.000000
 11
0.466272
 21
0.125401
 31
0.000000
  0
LINE
  8
1
 10
0.466272
 20
0.125401
 30
0.000000
 11
0.464559
 21
0.125401
 31
0.000000
  0
LINE
  8
1
 10
0.464559
 20
0.125401
 30
0.000000
 11
0.459714
 21
0.130246
 31
0.000000
  0
LINE
  8
1
 10
0.459714
 20
0.130246
 30
0.000000
 11
0.445748
 21
0.136031
 31
0.000000
  0
LINE
  8
1
 10
0.445748
 20
0.136031
 30
0.000000
 11
0.421181
 21
0.136031
 31
0.000000
  0
LINE
  8
1
 10
0.421181
 20
0.136031
 30
0.000000
 11
0.407215
 21
0.130246
 31
0.000000
  0
LINE
  8
1
 10
0.407215
 20
0.130246
 30
0.000000
 11
0.394969
 21
0.118000
 31
0.000000
  0
LINE
  8
1
 10
0.394969
 20
0.118000
 30
0.000000
 11
0.303992
 21
0.118000
 31
0.000000
  0
LINE
  8
1
 10
0.303992
 20
0.118000
 30
0.000000
 11
0.125401
 21
0.270145
 31
0.000000
  0
LINE
  8
1
 10
0.125401
 20
0.270145
 30
0.000000
 11
0.125401
 21
0.323236
 31
0.000000
  0
LINE
  8
1
 10
0.125401
 20
0.323236
 30
0.000000
 11
0.130246
 21
0.328081
 31
0.000000
  0
LINE
  8
1
 10
0.130246
 20
0.328081
 30
0.000000
 11
0.136031
 21
0.342047
 31
0.000000
  0
LINE
  8
1
 10
0.136031
 20
0.342047
 30
0.000000
 11
0.136031
 21
0.367008
 31
0.000000
  0
LINE
  8
1
 10
0.136031
 20
0.367008
 30
0.000000
 11
0.130246
 21
0.380974
 31
0.000000
  0
LINE
  8
1
 10
0.130246
 20
0.380974
 30
0.000000
 11
0.125401
 21
0.385819
 31
0.000000
  0
LINE
  8
1
 10
0.125401
 20
0.385819
 30
0.000000
 11
0.125401
 21
0.387532
 31
0.000000
  0
LINE
  8
1
 10
0.125401
 20
0.387532
 30
0.000000
 11
0.119233
 21
0.393701
 31
0.000000
  0
LINE
  8
1
 10
0.119233
 20
0.393701
 30
0.000000
 11
0.125401
 21
0.399869
 31
0.000000
  0
LINE
  8
1
 10
0.125401
 20
0.399869
 30
0.000000
 11
0.125401
 21
0.401583
 31
0.000000
  0
LINE
  8
1
 10
0.125401
 20
0.401583
 30
0.000000
 11
0.130246
 21
0.406427
 31
0.000000
  0
LINE
  8
1
 10
0.130246
 20
0.406427
 30
0.000000
 11
0.136031
 21
0.420394
 31
0.000000
  0
LINE
  8
1
 10
0.136031
 20
0.420394
 30
0.000000
 11
0.136031
 21
0.444960
 31
0.000000
  0
LINE
  8
1
 10
0.136031
 20
0.444960
 30
0.000000
 11
0.130246
 21
0.458927
 31
0.000000
  0
LINE
  8
1
 10
0.130246
 20
0.458927
 30
0.000000
 11
0.125008
 21
0.464165
 31
0.000000
  0
LINE
  8
1
 10
0.125008
 20
0.464165
 30
0.000000
 11
0.125008
 21
0.509465
 31
0.000000
  0
LINE
  8
1
 10
0.125008
 20
0.509465
 30
0.000000
 11
0.303995
 21
0.662000
 31
0.000000
  0
LINE
  8
1
 10
0.303995
 20
0.662000
 30
0.000000
 11
0.411819
 21
0.662000
 31
0.000000
  0
LINE
  8
1
 10
0.411819
 20
0.662000
 30
0.000000
 11
0.416664
 21
0.657155
 31
0.000000
  0
LINE
  8
1
 10
0.416664
 20
0.657155
 30
0.000000
 11
0.430630
 21
0.651370
 31
0.000000
  0
LINE
  8
1
 10
0.430630
 20
0.651370
 30
0.000000
 11
0.445748
 21
0.651370
 31
0.000000
  0
LINE
  8
1
 10
0.445748
 20
0.651370
 30
0.000000
 11
0.459714
 21
0.657155
 31
0.000000
  0
LINE
  8
1
 10
0.459714
 20
0.657155
 30
0.000000
 11
0.464559
 21
0.662000
 31
0.000000
  0
LINE
  8
1
 10
0.464559
 20
0.662000
 30
0.000000
 11
0.466272
 21
0.662000
 31
0.000000
  0
LINE
  8
1
 10
0.466272
 20
0.662000
 30
0.000000
 11
0.472441
 21
0.668169
 31
0.000000
  0
LINE
  8
1
 10
0.472441
 20
0.668169
 30
0.000000
 11
0.478609
 21
0.662000
 31
0.000000
  0
LINE
  8
1
 10
0.478609
 20
0.662000
 30
0.000000
 11
0.480323
 21
0.662000
 31
0.000000
  0
LINE
  8
1
 10
0.480323
 20
0.662000
 30
0.000000
 11
0.485168
 21
0.657155
 31
0.000000
  0
LINE
  8
1
 10
0.485168
 20
0.657155
 30
0.000000
 11
0.499134
 21
0.651370
 31
0.000000
  0
LINE
  8
1
 10
0.499134
 20
0.651370
 30
0.000000
 11
0.523700
 21
0.651370
 31
0.000000
  0
LINE
  8
1
 10
0.523700
 20
0.651370
 30
0.000000
 11
0.537667
 21
0.657155
 31
0.000000
  0
LINE
  8
1
 10
0.537667
 20
0.657155
 30
0.000000
 11
0.542905
 21
0.662394
 31
0.000000
  0
LINE
  8
1
 10
0.542905
 20
0.662394
 30
0.000000
 11
0.759589
 21
0.662394
 31
0.000000
  0
LINE
  8
1
 10
0.759589
 20
0.662394
 30
0.000000
 11
1.062000
 21
0.497442
 31
0.000000
  0
LINE
  8
1
 10
1.062000
 20
0.497442
 30
0.000000
 11
1.062000
 21
0.470464
 31
0.000000
  0
LINE
  8
1
 10
1.062000
 20
0.470464
 30
0.000000
 11
1.061486
 21
0.469950
 31
0.000000
  0
LINE
  8
1
 10
1.061486
 20
0.469950
 30
0.000000
 11
1.055738
 21
0.456073
 31
0.000000
  0
LINE
  8
1
 10
1.055738
 20
0.456073
 30
0.000000
 11
1.055701
 21
0.456036
 31
0.000000
  0
LINE
  8
1
 10
1.055701
 20
0.456036
 30
0.000000
 11
1.055701
 21
0.454323
 31
0.000000
  0
LINE
  8
1
 10
1.055701
 20
0.454323
 30
0.000000
 11
1.050856
 21
0.449478
 31
0.000000
  0
LINE
  8
1
 10
1.050856
 20
0.449478
 30
0.000000
 11
1.045071
 21
0.435511
 31
0.000000
  0
LINE
  8
1
 10
1.045071
 20
0.435511
 30
0.000000
 11
1.045071
 21
0.420394
 31
0.000000
  0
LINE
  8
1
 10
1.045071
 20
0.420394
 30
0.000000
 11
1.050856
 21
0.406427
 31
0.000000
  0
LINE
  8
1
 10
1.050856
 20
0.406427
 30
0.000000
 11
1.055701
 21
0.401583
 31
0.000000
  0
LINE
  8
1
 10
1.055701
 20
0.401583
 30
0.000000
 11
1.055701
 21
0.399869
 31
0.000000
  0
LINE
  8
1
 10
1.055701
 20
0.399869
 30
0.000000
 11
1.061869
 21
0.393701
 31
0.000000
  0
LINE
  8
1
 10
1.061869
 20
0.393701
 30
0.000000
 11
1.055701
 21
0.387532
 31
0.000000
  0
LINE
  8
1
 10
1.055701
 20
0.387532
 30
0.000000
 11
1.055701
 21
0.385819
 31
0.000000
  0
LINE
  8
1
 10
1.055701
 20
0.385819
 30
0.000000
 11
1.050856
 21
0.380974
 31
0.000000
  0
LINE
  8
1
 10
1.050856
 20
0.380974
 30
0.000000
 11
1.045071
 21
0.367008
 31
0.000000
  0
LINE
  8
1
 10
1.045071
 20
0.367008
 30
0.000000
 11
1.045071
 21
0.342441
 31
0.000000
  0
LINE
  8
1
 10
1.045071
 20
0.342441
 30
0.000000
 11
1.050856
 21
0.328475
 31
0.000000
  0
LINE
  8
1
 10
1.050856
 20
0.328475
 30
0.000000
 11
1.056094
 21
0.323236
 31
0.000000
  0
LINE
  8
1
 10
1.056094
 20
0.323236
 30
0.000000
 11
1.056094
 21
0.306807
 31
0.000000
  0
LINE
  8
1
 10
1.056094
 20
0.306807
 30
0.000000
 11
1.032130
 21
0.293541
 31
0.000000
  0
LINE
  8
1
 10
1.032130
 20
0.293541
 30
0.000000
 11
0.931311
 21
0.241874
 31
0.000000
  0
LINE
  8
1
 10
0.931311
 20
0.241874
 30
0.000000
 11
0.928636
 21
0.247357
 31
0.000000
  0
LINE
  8
1
 10
0.928636
 20
0.247357
 30
0.000000
 11
0.914205
 21
0.260124
 31
0.000000
  0
LINE
  8
1
 10
0.914205
 20
0.260124
 30
0.000000
 11
0.895987
 21
0.266397
 31
0.000000
  0
LINE
  8
1
 10
0.895987
 20
0.266397
 30
0.000000
 11
0.876755
 21
0.265221
 31
0.000000
  0
LINE
  8
1
 10
0.876755
 20
0.265221
 30
0.000000
 11
0.859437
 21
0.256774
 31
0.000000
  0
LINE
  8
1
 10
0.859437
 20
0.256774
 30
0.000000
 11
0.846670
 21
0.242344
 31
0.000000
  0
LINE
  8
1
 10
0.846670
 20
0.242344
 30
0.000000
 11
0.840397
 21
0.224126
 31
0.000000
  0
LINE
  8
1
 10
0.840397
 20
0.224126
 30
0.000000
 11
0.841573
 21
0.204894
 31
0.000000
  0
LINE
  8
1
 10
0.841573
 20
0.204894
 30
0.000000
 11
0.881085
 21
0.123882
 31
0.000000
  0
LINE
  8
1
 10
0.881085
 20
0.123882
 30
0.000000
 11
0.895516
 21
0.111115
 31
0.000000
  0
LINE
  8
1
 10
0.895516
 20
0.111115
 30
0.000000
 11
0.901334
 21
0.109111
 31
0.000000
  0
LINE
  8
1
 10
0.901334
 20
0.109111
 30
0.000000
 11
0.877447
 21
0.097474
 31
0.000000
  0
LINE
  8
1
 10
0.877447
 20
0.097474
 30
0.000000
 11
0.879445
 21
0.103276
 31
0.000000
  0
LINE
  8
1
 10
0.879445
 20
0.103276
 30
0.000000
 11
0.878269
 21
0.122508
 31
0.000000
  0
LINE
  8
1
 10
0.878269
 20
0.122508
 30
0.000000
 11
0.838757
 21
0.203520
 31
0.000000
  0
LINE
  8
1
 10
0.838757
 20
0.203520
 30
0.000000
 11
0.824326
 21
0.216287
 31
0.000000
  0
LINE
  8
1
 10
0.824326
 20
0.216287
 30
0.000000
 11
0.806108
 21
0.222560
 31
0.000000
  0
LINE
  8
1
 10
0.806108
 20
0.222560
 30
0.000000
 11
0.786876
 21
0.221384
 31
0.000000
  0
LINE
  8
1
 10
0.786876
 20
0.221384
 30
0.000000
 11
0.769558
 21
0.212937
 31
0.000000
  0
LINE
  8
1
 10
0.769558
 20
0.212937
 30
0.000000
 11
0.756791
 21
0.198506
 31
0.000000
  0
LINE
  8
1
 10
0.756791
 20
0.198506
 30
0.000000
 11
0.750518
 21
0.180288
 31
0.000000
  0
LINE
  8
1
 10
0.750518
 20
0.180288
 30
0.000000
 11
0.751694
 21
0.161056
 31
0.000000
  0
LINE
  8
1
 10
0.751694
 20
0.161056
 30
0.000000
 11
0.754859
 21
0.154567
 31
0.000000
  0
LINE
  8
1
 10
0.754859
 20
0.154567
 30
0.000000
 11
0.713894
 21
0.134425
 31
0.000000
  0
LINE
  8
1
 10
0.713894
 20
0.134425
 30
0.000000
 11
0.693589
 21
0.125401
 31
0.000000
  0
LINE
  8
1
 10
0.723661
 20
0.375055
 30
0.000000
 11
0.723661
 21
0.412347
 31
0.000000
  0
LINE
  8
1
 10
0.723661
 20
0.412347
 30
0.000000
 11
0.709390
 21
0.446800
 31
0.000000
  0
LINE
  8
1
 10
0.709390
 20
0.446800
 30
0.000000
 11
0.683021
 21
0.473170
 31
0.000000
  0
LINE
  8
1
 10
0.683021
 20
0.473170
 30
0.000000
 11
0.648567
 21
0.487441
 31
0.000000
  0
LINE
  8
1
 10
0.648567
 20
0.487441
 30
0.000000
 11
0.611275
 21
0.487441
 31
0.000000
  0
LINE
  8
1
 10
0.611275
 20
0.487441
 30
0.000000
 11
0.576822
 21
0.473170
 31
0.000000
  0
LINE
  8
1
 10
0.576822
 20
0.473170
 30
0.000000
 11
0.550452
 21
0.446800
 31
0.000000
  0
LINE
  8
1
 10
0.550452
 20
0.446800
 30
0.000000
 11
0.536181
 21
0.412347
 31
0.000000
  0
LINE
  8
1
 10
0.536181
 20
0.412347
 30
0.000000
 11
0.536181
 21
0.375055
 31
0.000000
  0
LINE
  8
1
 10
0.536181
 20
0.375055
 30
0.000000
 11
0.550452
 21
0.340601
 31
0.000000
  0
LINE
  8
1
 10
0.550452
 20
0.340601
 30
0.000000
 11
0.576822
 21
0.314232
 31
0.000000
  0
LINE
  8
1
 10
0.576822
 20
0.314232
 30
0.000000
 11
0.611275
 21
0.299961
 31
0.000000
  0
LINE
  8
1
 10
0.611275
 20
0.299961
 30
0.000000
 11
0.648567
 21
0.299961
 31
0.000000
  0
LINE
  8
1
 10
0.648567
 20
0.299961
 30
0.000000
 11
0.683021
 21
0.314232
 31
0.000000
  0
LINE
  8
1
 10
0.683021
 20
0.314232
 30
0.000000
 11
0.709390
 21
0.340601
 31
0.000000
  0
LINE
  8
1
 10
0.709390
 20
0.340601
 30
0.000000
 11
0.723661
 21
0.375055
 31
0.000000
  0
LINE
  8
1
 10
0.878317
 20
0.100000
 30
0.000000
 11
0.882632
 21
0.100000
 31
0.000000
  0
LINE
  8
1
 10
0.879034
 20
0.110000
 30
0.000000
 11
0.898753
 21
0.110000
 31
0.000000
  0
LINE
  8
1
 10
0.301644
 20
0.120000
 30
0.000000
 11
0.396969
 21
0.120000
 31
0.000000
  0
LINE
  8
1
 10
0.471674
 20
0.120000
 30
0.000000
 11
0.473208
 21
0.120000
 31
0.000000
  0
LINE
  8
1
 10
0.878422
 20
0.120000
 30
0.000000
 11
0.885473
 21
0.120000
 31
0.000000
  0
LINE
  8
1
 10
0.289906
 20
0.130000
 30
0.000000
 11
0.406969
 21
0.130000
 31
0.000000
  0
LINE
  8
1
 10
0.459960
 20
0.130000
 30
0.000000
 11
0.484921
 21
0.130000
 31
0.000000
  0
LINE
  8
1
 10
0.538307
 20
0.130000
 30
0.000000
 11
0.703936
 21
0.130000
 31
0.000000
  0
LINE
  8
1
 10
0.874615
 20
0.130000
 30
0.000000
 11
0.878101
 21
0.130000
 31
0.000000
  0
LINE
  8
1
 10
0.278168
 20
0.140000
 30
0.000000
 11
0.725232
 21
0.140000
 31
0.000000
  0
LINE
  8
1
 10
0.869737
 20
0.140000
 30
0.000000
 11
0.873224
 21
0.140000
 31
0.000000
  0
LINE
  8
1
 10
0.266430
 20
0.150000
 30
0.000000
 11
0.745571
 21
0.150000
 31
0.000000
  0
LINE
  8
1
 10
0.864860
 20
0.150000
 30
0.000000
 11
0.868347
 21
0.150000
 31
0.000000
  0
LINE
  8
1
 10
0.254692
 20
0.160000
 30
0.000000
 11
0.752209
 21
0.160000
 31
0.000000
  0
LINE
  8
1
 10
0.859983
 20
0.160000
 30
0.000000
 11
0.863469
 21
0.160000
 31
0.000000
  0
LINE
  8
1
 10
0.242954
 20
0.170000
 30
0.000000
 11
0.751147
 21
0.170000
 31
0.000000
  0
LINE
  8
1
 10
0.855105
 20
0.170000
 30
0.000000
 11
0.858592
 21
0.170000
 31
0.000000
  0
LINE
  8
1
 10
0.231215
 20
0.180000
 30
0.000000
 11
0.750536
 21
0.180000
 31
0.000000
  0
LINE
  8
1
 10
0.850228
 20
0.180000
 30
0.000000
 11
0.853715
 21
0.180000
 31
0.000000
  0
LINE
  8
1
 10
0.219477
 20
0.190000
 30
0.000000
 11
0.753862
 21
0.190000
 31
0.000000
  0
LINE
  8
1
 10
0.845351
 20
0.190000
 30
0.000000
 11
0.848837
 21
0.190000
 31
0.000000
  0
LINE
  8
1
 10
0.207739
 20
0.200000
 30
0.000000
 11
0.758112
 21
0.200000
 31
0.000000
  0
LINE
  8
1
 10
0.840474
 20
0.200000
 30
0.000000
 11
0.843960
 21
0.200000
 31
0.000000
  0
LINE
  8
1
 10
0.196001
 20
0.210000
 30
0.000000
 11
0.766960
 21
0.210000
 31
0.000000
  0
LINE
  8
1
 10
0.831432
 20
0.210000
 30
0.000000
 11
0.841261
 21
0.210000
 31
0.000000
  0
LINE
  8
1
 10
0.184263
 20
0.220000
 30
0.000000
 11
0.784039
 21
0.220000
 31
0.000000
  0
LINE
  8
1
 10
0.813542
 20
0.220000
 30
0.000000
 11
0.840649
 21
0.220000
 31
0.000000
  0
LINE
  8
1
 10
0.172525
 20
0.230000
 30
0.000000
 11
0.842420
 21
0.230000
 31
0.000000
  0
LINE
  8
1
 10
0.160787
 20
0.240000
 30
0.000000
 11
0.845863
 21
0.240000
 31
0.000000
  0
LINE
  8
1
 10
0.149048
 20
0.250000
 30
0.000000
 11
0.853444
 21
0.250000
 31
0.000000
  0
LINE
  8
1
 10
0.925649
 20
0.250000
 30
0.000000
 11
0.947168
 21
0.250000
 31
0.000000
  0
LINE
  8
1
 10
0.137310
 20
0.260000
 30
0.000000
 11
0.866051
 21
0.260000
 31
0.000000
  0
LINE
  8
1
 10
0.914346
 20
0.260000
 30
0.000000
 11
0.966681
 21
0.260000
 31
0.000000
  0
LINE
  8
1
 10
0.125572
 20
0.270000
 30
0.000000
 11
0.986194
 21
0.270000
 31
0.000000
  0
LINE
  8
1
 10
0.125401
 20
0.280000
 30
0.000000
 11
1.005707
 21
0.280000
 31
0.000000
  0
LINE
  8
1
 10
0.125401
 20
0.290000
 30
0.000000
 11
1.025220
 21
0.290000
 31
0.000000
  0
LINE
  8
1
 10
0.125401
 20
0.300000
 30
0.000000
 11
0.611180
 21
0.300000
 31
0.000000
  0
LINE
  8
1
 10
0.648662
 20
0.300000
 30
0.000000
 11
1.043797
 21
0.300000
 31
0.000000
  0
LINE
  8
1
 10
0.125401
 20
0.310000
 30
0.000000
 11
0.587038
 21
0.310000
 31
0.000000
  0
LINE
  8
1
 10
0.672805
 20
0.310000
 30
0.000000
 11
1.056094
 21
0.310000
 31
0.000000
  0
LINE
  8
1
 10
0.125401
 20
0.320000
 30
0.000000
 11
0.571053
 21
0.320000
 31
0.000000
  0
LINE
  8
1
 10
0.688789
 20
0.320000
 30
0.000000
 11
1.056094
 21
0.320000
 31
0.000000
  0
LINE
  8
1
 10
0.131041
 20
0.330000
 30
0.000000
 11
0.561053
 21
0.330000
 31
0.000000
  0
LINE
  8
1
 10
0.698789
 20
0.330000
 30
0.000000
 11
1.050224
 21
0.330000
 31
0.000000
  0
LINE
  8
1
 10
0.135183
 20
0.340000
 30
0.000000
 11
0.551053
 21
0.340000
 31
0.000000
  0
LINE
  8
1
 10
0.708789
 20
0.340000
 30
0.000000
 11
1.046082
 21
0.340000
 31
0.000000
  0
LINE
  8
1
 10
0.136031
 20
0.350000
 30
0.000000
 11
0.546559
 21
0.350000
 31
0.000000
  0
LINE
  8
1
 10
0.713283
 20
0.350000
 30
0.000000
 11
1.045071
 21
0.350000
 31
0.000000
  0
LINE
  8
1
 10
0.136031
 20
0.360000
 30
0.000000
 11
0.542417
 21
0.360000
 31
0.000000
  0
LINE
  8
1
 10
0.717425
 20
0.360000
 30
0.000000
 11
1.045071
 21
0.360000
 31
0.000000
  0
LINE
  8
1
 10
0.134792
 20
0.370000
 30
0.000000
 11
0.538275
 21
0.370000
 31
0.000000
  0
LINE
  8
1
 10
0.721568
 20
0.370000
 30
0.000000
 11
1.046311
 21
0.370000
 31
0.000000
  0
LINE
  8
1
 10
0.130650
 20
0.380000
 30
0.000000
 11
0.536181
 21
0.380000
 31
0.000000
  0
LINE
  8
1
 10
0.723661
 20
0.380000
 30
0.000000
 11
1.050453
 21
0.380000
 31
0.000000
  0
LINE
  8
1
 10
0.122934
 20
0.390000
 30
0.000000
 11
0.536181
 21
0.390000
 31
0.000000
  0
LINE
  8
1
 10
0.723661
 20
0.390000
 30
0.000000
 11
1.058169
 21
0.390000
 31
0.000000
  0
LINE
  8
1
 10
0.125401
 20
0.400000
 30
0.000000
 11
0.536181
 21
0.400000
 31
0.000000
  0
LINE
  8
1
 10
0.723661
 20
0.400000
 30
0.000000
 11
1.055701
 21
0.400000
 31
0.000000
  0
LINE
  8
1
 10
0.131726
 20
0.410000
 30
0.000000
 11
0.536181
 21
0.410000
 31
0.000000
  0
LINE
  8
1
 10
0.723661
 20
0.410000
 30
0.000000
 11
1.049376
 21
0.410000
 31
0.000000
  0
LINE
  8
1
 10
0.135868
 20
0.420000
 30
0.000000
 11
0.539351
 21
0.420000
 31
0.000000
  0
LINE
  8
1
 10
0.720491
 20
0.420000
 30
0.000000
 11
1.045234
 21
0.420000
 31
0.000000
  0
LINE
  8
1
 10
0.136031
 20
0.430000
 30
0.000000
 11
0.543493
 21
0.430000
 31
0.000000
  0
LINE
  8
1
 10
0.716349
 20
0.430000
 30
0.000000
 11
1.045071
 21
0.430000
 31
0.000000
  0
LINE
  8
1
 10
0.136031
 20
0.440000
 30
0.000000
 11
0.547635
 21
0.440000
 31
0.000000
  0
LINE
  8
1
 10
0.712207
 20
0.440000
 30
0.000000
 11
1.046930
 21
0.440000
 31
0.000000
  0
LINE
  8
1
 10
0.133944
 20
0.450000
 30
0.000000
 11
0.553652
 21
0.450000
 31
0.000000
  0
LINE
  8
1
 10
0.706190
 20
0.450000
 30
0.000000
 11
1.051378
 21
0.450000
 31
0.000000
  0
LINE
  8
1
 10
0.129173
 20
0.460000
 30
0.000000
 11
0.563652
 21
0.460000
 31
0.000000
  0
LINE
  8
1
 10
0.696190
 20
0.460000
 30
0.000000
 11
1.057364
 21
0.460000
 31
0.000000
  0
LINE
  8
1
 10
0.125008
 20
0.470000
 30
0.000000
 11
0.573652
 21
0.470000
 31
0.000000
  0
LINE
  8
1
 10
0.686190
 20
0.470000
 30
0.000000
 11
1.061536
 21
0.470000
 31
0.000000
  0
LINE
  8
1
 10
0.125008
 20
0.480000
 30
0.000000
 11
0.593311
 21
0.480000
 31
0.000000
  0
LINE
  8
1
 10
0.666531
 20
0.480000
 30
0.000000
 11
1.062000
 21
0.480000
 31
0.000000
  0
LINE
  8
1
 10
0.125008
 20
0.490000
 30
0.000000
 11
1.062000
 21
0.490000
 31
0.000000
  0
LINE
  8
1
 10
0.125008
 20
0.500000
 30
0.000000
 11
1.057310
 21
0.500000
 31
0.000000
  0
LINE
  8
1
 10
0.125636
 20
0.510000
 30
0.000000
 11
1.038977
 21
0.510000
 31
0.000000
  0
LINE
  8
1
 10
0.137370
 20
0.520000
 30
0.000000
 11
1.020643
 21
0.520000
 31
0.000000
  0
LINE
  8
1
 10
0.149104
 20
0.530000
 30
0.000000
 11
1.002310
 21
0.530000
 31
0.000000
  0
LINE
  8
1
 10
0.160838
 20
0.540000
 30
0.000000
 11
0.983977
 21
0.540000
 31
0.000000
  0
LINE
  8
1
 10
0.172573
 20
0.550000
 30
0.000000
 11
0.965644
 21
0.550000
 31
0.000000
  0
LINE
  8
1
 10
0.184307
 20
0.560000
 30
0.000000
 11
0.947310
 21
0.560000
 31
0.000000
  0
LINE
  8
1
 10
0.196041
 20
0.570000
 30
0.000000
 11
0.928977
 21
0.570000
 31
0.000000
  0
LINE
  8
1
 10
0.207775
 20
0.580000
 30
0.000000
 11
0.910644
 21
0.580000
 31
0.000000
  0
LINE
  8
1
 10
0.219509
 20
0.590000
 30
0.000000
 11
0.892310
 21
0.590000
 31
0.000000
  0
LINE
  8
1
 10
0.231243
 20
0.600000
 30
0.000000
 11
0.873977
 21
0.600000
 31
0.000000
  0
LINE
  8
1
 10
0.242978
 20
0.610000
 30
0.000000
 11
0.855644
 21
0.610000
 31
0.000000
  0
LINE
  8
1
 10
0.254712
 20
0.620000
 30
0.000000
 11
0.837310
 21
0.620000
 31
0.000000
  0
LINE
  8
1
 10
0.266446
 20
0.630000
 30
0.000000
 11
0.818977
 21
0.630000
 31
0.000000
  0
LINE
  8
1
 10
0.278180
 20
0.640000
 30
0.000000
 11
0.800644
 21
0.640000
 31
0.000000
  0
LINE
  8
1
 10
0.289914
 20
0.650000
 30
0.000000
 11
0.782310
 21
0.650000
 31
0.000000
  0
LINE
  8
1
 10
0.301648
 20
0.660000
 30
0.000000
 11
0.413819
 21
0.660000
 31
0.000000
  0
LINE
  8
1
 10
0.462559
 20
0.660000
 30
0.000000
 11
0.482323
 21
0.660000
 31
0.000000
  0
LINE
  8
1
 10
0.540512
 20
0.660000
 30
0.000000
 11
0.763977
 21
0.660000
 31
0.000000
  0
LINE
  8
16
 10
0.017500
 20
0.244269
 30
0.000000
 11
0.017500
 21
0.543132
 31
0.000000
  0
LINE
  8
16
 10
0.017500
 20
0.543132
 30
0.000000
 11
0.282064
 21
0.769902
 31
0.000000
  0
LINE
  8
16
 10
0.282064
 20
0.769902
 30
0.000000
 11
0.783270
 21
0.769902
 31
0.000000
  0
LINE
  8
16
 10
0.783270
 20
0.769902
 30
0.000000
 11
0.845035
 21
0.739019
 31
0.000000
  0
LINE
  8
16
 10
0.845035
 20
0.739019
 30
0.000000
 11
0.816337
 21
0.680180
 31
0.000000
  0
LINE
  8
16
 10
0.816337
 20
0.680180
 30
0.000000
 11
0.815797
 21
0.678564
 31
0.000000
  0
LINE
  8
16
 10
0.815797
 20
0.678564
 30
0.000000
 11
0.815471
 21
0.676891
 31
0.000000
  0
LINE
  8
16
 10
0.815471
 20
0.676891
 30
0.000000
 11
0.815367
 21
0.675190
 31
0.000000
  0
LINE
  8
16
 10
0.815367
 20
0.675190
 30
0.000000
 11
0.815486
 21
0.673490
 31
0.000000
  0
LINE
  8
16
 10
0.815486
 20
0.673490
 30
0.000000
 11
0.815826
 21
0.671820
 31
0.000000
  0
LINE
  8
16
 10
0.815826
 20
0.671820
 30
0.000000
 11
0.816381
 21
0.670209
 31
0.000000
  0
LINE
  8
16
 10
0.816381
 20
0.670209
 30
0.000000
 11
0.817141
 21
0.668684
 31
0.000000
  0
LINE
  8
16
 10
0.817141
 20
0.668684
 30
0.000000
 11
0.818094
 21
0.667271
 31
0.000000
  0
LINE
  8
16
 10
0.818094
 20
0.667271
 30
0.000000
 11
0.819223
 21
0.665994
 31
0.000000
  0
LINE
  8
16
 10
0.819223
 20
0.665994
 30
0.000000
 11
0.820509
 21
0.664876
 31
0.000000
  0
LINE
  8
16
 10
0.820509
 20
0.664876
 30
0.000000
 11
0.821930
 21
0.663936
 31
0.000000
  0
LINE
  8
16
 10
0.821930
 20
0.663936
 30
0.000000
 11
1.154749
 21
0.501609
 31
0.000000
  0
LINE
  8
16
 10
1.154749
 20
0.501609
 30
0.000000
 11
1.156365
 21
0.501069
 31
0.000000
  0
LINE
  8
16
 10
1.156365
 20
0.501069
 30
0.000000
 11
1.158038
 21
0.500743
 31
0.000000
  0
LINE
  8
16
 10
1.158038
 20
0.500743
 30
0.000000
 11
1.159739
 21
0.500639
 31
0.000000
  0
LINE
  8
16
 10
1.159739
 20
0.500639
 30
0.000000
 11
1.161439
 21
0.500758
 31
0.000000
  0
LINE
  8
16
 10
1.161439
 20
0.500758
 30
0.000000
 11
1.163109
 21
0.501098
 31
0.000000
  0
LINE
  8
16
 10
1.163109
 20
0.501098
 30
0.000000
 11
1.164720
 21
0.501653
 31
0.000000
  0
LINE
  8
16
 10
1.164720
 20
0.501653
 30
0.000000
 11
1.166245
 21
0.502413
 31
0.000000
  0
LINE
  8
16
 10
1.166245
 20
0.502413
 30
0.000000
 11
1.167658
 21
0.503366
 31
0.000000
  0
LINE
  8
16
 10
1.167658
 20
0.503366
 30
0.000000
 11
1.168934
 21
0.504495
 31
0.000000
  0
LINE
  8
16
 10
1.168934
 20
0.504495
 30
0.000000
 11
1.170052
 21
0.505781
 31
0.000000
  0
LINE
  8
16
 10
1.170052
 20
0.505781
 30
0.000000
 11
1.170993
 21
0.507203
 31
0.000000
  0
LINE
  8
16
 10
1.170993
 20
0.507203
 30
0.000000
 11
1.197985
 21
0.562544
 31
0.000000
  0
LINE
  8
16
 10
1.197985
 20
0.562544
 30
0.000000
 11
1.242343
 21
0.540366
 31
0.000000
  0
LINE
  8
16
 10
1.242343
 20
0.540366
 30
0.000000
 11
1.242343
 21
0.247036
 31
0.000000
  0
LINE
  8
16
 10
1.242343
 20
0.247036
 30
0.000000
 11
0.783270
 21
0.017500
 31
0.000000
  0
LINE
  8
16
 10
0.783270
 20
0.017500
 30
0.000000
 11
0.282064
 21
0.017500
 31
0.000000
  0
LINE
  8
16
 10
0.282064
 20
0.017500
 30
0.000000
 11
0.017500
 21
0.244269
 31
0.000000
  0
LINE
  8
16
 10
0.751694
 20
0.161056
 30
0.000000
 11
0.791206
 21
0.080045
 31
0.000000
  0
LINE
  8
16
 10
0.791206
 20
0.080045
 30
0.000000
 11
0.805637
 21
0.067277
 31
0.000000
  0
LINE
  8
16
 10
0.805637
 20
0.067277
 30
0.000000
 11
0.823855
 21
0.061004
 31
0.000000
  0
LINE
  8
16
 10
0.823855
 20
0.061004
 30
0.000000
 11
0.843087
 21
0.062180
 31
0.000000
  0
LINE
  8
16
 10
0.843087
 20
0.062180
 30
0.000000
 11
0.860405
 21
0.070627
 31
0.000000
  0
LINE
  8
16
 10
0.860405
 20
0.070627
 30
0.000000
 11
0.873172
 21
0.085058
 31
0.000000
  0
LINE
  8
16
 10
0.873172
 20
0.085058
 30
0.000000
 11
0.879445
 21
0.103276
 31
0.000000
  0
LINE
  8
16
 10
0.879445
 20
0.103276
 30
0.000000
 11
0.878269
 21
0.122508
 31
0.000000
  0
LINE
  8
16
 10
0.878269
 20
0.122508
 30
0.000000
 11
0.838757
 21
0.203520
 31
0.000000
  0
LINE
  8
16
 10
0.838757
 20
0.203520
 30
0.000000
 11
0.824326
 21
0.216287
 31
0.000000
  0
LINE
  8
16
 10
0.824326
 20
0.216287
 30
0.000000
 11
0.806108
 21
0.222560
 31
0.000000
  0
LINE
  8
16
 10
0.806108
 20
0.222560
 30
0.000000
 11
0.786876
 21
0.221384
 31
0.000000
  0
LINE
  8
16
 10
0.786876
 20
0.221384
 30
0.000000
 11
0.769558
 21
0.212937
 31
0.000000
  0
LINE
  8
16
 10
0.769558
 20
0.212937
 30
0.000000
 11
0.756791
 21
0.198506
 31
0.000000
  0
LINE
  8
16
 10
0.756791
 20
0.198506
 30
0.000000
 11
0.750518
 21
0.180288
 31
0.000000
  0
LINE
  8
16
 10
0.750518
 20
0.180288
 30
0.000000
 11
0.751694
 21
0.161056
 31
0.000000
  0
LINE
  8
16
 10
0.723661
 20
0.375055
 30
0.000000
 11
0.723661
 21
0.412347
 31
0.000000
  0
LINE
  8
16
 10
0.723661
 20
0.412347
 30
0.000000
 11
0.709390
 21
0.446800
 31
0.000000
  0
LINE
  8
16
 10
0.709390
 20
0.446800
 30
0.000000
 11
0.683021
 21
0.473170
 31
0.000000
  0
LINE
  8
16
 10
0.683021
 20
0.473170
 30
0.000000
 11
0.648567
 21
0.487441
 31
0.000000
  0
LINE
  8
16
 10
0.648567
 20
0.487441
 30
0.000000
 11
0.611275
 21
0.487441
 31
0.000000
  0
LINE
  8
16
 10
0.611275
 20
0.487441
 30
0.000000
 11
0.576822
 21
0.473170
 31
0.000000
  0
LINE
  8
16
 10
0.576822
 20
0.473170
 30
0.000000
 11
0.550452
 21
0.446800
 31
0.000000
  0
LINE
  8
16
 10
0.550452
 20
0.446800
 30
0.000000
 11
0.536181
 21
0.412347
 31
0.000000
  0
LINE
  8
16
 10
0.536181
 20
0.412347
 30
0.000000
 11
0.536181
 21
0.375055
 31
0.000000
  0
LINE
  8
16
 10
0.536181
 20
0.375055
 30
0.000000
 11
0.550452
 21
0.340601
 31
0.000000
  0
LINE
  8
16
 10
0.550452
 20
0.340601
 30
0.000000
 11
0.576822
 21
0.314232
 31
0.000000
  0
LINE
  8
16
 10
0.576822
 20
0.314232
 30
0.000000
 11
0.611275
 21
0.299961
 31
0.000000
  0
LINE
  8
16
 10
0.611275
 20
0.299961
 30
0.000000
 11
0.648567
 21
0.299961
 31
0.000000
  0
LINE
  8
16
 10
0.648567
 20
0.299961
 30
0.000000
 11
0.683021
 21
0.314232
 31
0.000000
  0
LINE
  8
16
 10
0.683021
 20
0.314232
 30
0.000000
 11
0.709390
 21
0.340601
 31
0.000000
  0
LINE
  8
16
 10
0.709390
 20
0.340601
 30
0.000000
 11
0.723661
 21
0.375055
 31
0.000000
  0
LINE
  8
16
 10
1.226250
 20
0.380800
 30
0.000000
 11
1.226250
 21
0.399200
 31
0.000000
  0
LINE
  8
16
 10
1.226250
 20
0.399200
 30
0.000000
 11
1.219209
 21
0.416198
 31
0.000000
  0
LINE
  8
16
 10
1.219209
 20
0.416198
 30
0.000000
 11
1.206198
 21
0.429209
 31
0.000000
  0
LINE
  8
16
 10
1.206198
 20
0.429209
 30
0.000000
 11
1.189200
 21
0.436250
 31
0.000000
  0
LINE
  8
16
 10
1.189200
 20
0.436250
 30
0.000000
 11
1.170800
 21
0.436250
 31
0.000000
  0
LINE
  8
16
 10
1.170800
 20
0.436250
 30
0.000000
 11
1.153801
 21
0.429209
 31
0.000000
  0
LINE
  8
16
 10
1.153801
 20
0.429209
 30
0.000000
 11
1.140791
 21
0.416198
 31
0.000000
  0
LINE
  8
16
 10
1.140791
 20
0.416198
 30
0.000000
 11
1.133750
 21
0.399200
 31
0.000000
  0
LINE
  8
16
 10
1.133750
 20
0.399200
 30
0.000000
 11
1.133750
 21
0.380800
 31
0.000000
  0
LINE
  8
16
 10
1.133750
 20
0.380800
 30
0.000000
 11
1.140791
 21
0.363801
 31
0.000000
  0
LINE
  8
16
 10
1.140791
 20
0.363801
 30
0.000000
 11
1.153801
 21
0.350791
 31
0.000000
  0
LINE
  8
16
 10
1.153801
 20
0.350791
 30
0.000000
 11
1.170800
 21
0.343750
 31
0.000000
  0
LINE
  8
16
 10
1.170800
 20
0.343750
 30
0.000000
 11
1.189200
 21
0.343750
 31
0.000000
  0
LINE
  8
16
 10
1.189200
 20
0.343750
 30
0.000000
 11
1.206198
 21
0.350791
 31
0.000000
  0
LINE
  8
16
 10
1.206198
 20
0.350791
 30
0.000000
 11
1.219209
 21
0.363801
 31
0.000000
  0
LINE
  8
16
 10
1.219209
 20
0.363801
 30
0.000000
 11
1.226250
 21
0.380800
 31
0.000000
  0
LINE
  8
16
 10
0.841573
 20
0.204894
 30
0.000000
 11
0.881085
 21
0.123882
 31
0.000000
  0
LINE
  8
16
 10
0.881085
 20
0.123882
 30
0.000000
 11
0.895516
 21
0.111115
 31
0.000000
  0
LINE
  8
16
 10
0.895516
 20
0.111115
 30
0.000000
 11
0.913734
 21
0.104842
 31
0.000000
  0
LINE
  8
16
 10
0.913734
 20
0.104842
 30
0.000000
 11
0.932966
 21
0.106018
 31
0.000000
  0
LINE
  8
16
 10
0.932966
 20
0.106018
 30
0.000000
 11
0.950284
 21
0.114464
 31
0.000000
  0
LINE
  8
16
 10
0.950284
 20
0.114464
 30
0.000000
 11
0.963051
 21
0.128895
 31
0.000000
  0
LINE
  8
16
 10
0.963051
 20
0.128895
 30
0.000000
 11
0.969324
 21
0.147113
 31
0.000000
  0
LINE
  8
16
 10
0.969324
 20
0.147113
 30
0.000000
 11
0.968148
 21
0.166345
 31
0.000000
  0
LINE
  8
16
 10
0.968148
 20
0.166345
 30
0.000000
 11
0.928636
 21
0.247357
 31
0.000000
  0
LINE
  8
16
 10
0.928636
 20
0.247357
 30
0.000000
 11
0.914205
 21
0.260124
 31
0.000000
  0
LINE
  8
16
 10
0.914205
 20
0.260124
 30
0.000000
 11
0.895987
 21
0.266397
 31
0.000000
  0
LINE
  8
16
 10
0.895987
 20
0.266397
 30
0.000000
 11
0.876755
 21
0.265221
 31
0.000000
  0
LINE
  8
16
 10
0.876755
 20
0.265221
 30
0.000000
 11
0.859437
 21
0.256774
 31
0.000000
  0
LINE
  8
16
 10
0.859437
 20
0.256774
 30
0.000000
 11
0.846670
 21
0.242344
 31
0.000000
  0
LINE
  8
16
 10
0.846670
 20
0.242344
 30
0.000000
 11
0.840397
 21
0.224126
 31
0.000000
  0
LINE
  8
16
 10
0.840397
 20
0.224126
 30
0.000000
 11
0.841573
 21
0.204894
 31
0.000000
  0
LINE
  8
16
 10
0.279147
 20
0.020000
 30
0.000000
 11
0.788271
 21
0.020000
 31
0.000000
  0
LINE
  8
16
 10
0.267481
 20
0.030000
 30
0.000000
 11
0.808271
 21
0.030000
 31
0.000000
  0
LINE
  8
16
 10
0.255814
 20
0.040000
 30
0.000000
 11
0.828271
 21
0.040000
 31
0.000000
  0
LINE
  8
16
 10
0.244147
 20
0.050000
 30
0.000000
 11
0.848271
 21
0.050000
 31
0.000000
  0
LINE
  8
16
 10
0.232481
 20
0.060000
 30
0.000000
 11
0.868271
 21
0.060000
 31
0.000000
  0
LINE
  8
16
 10
0.220814
 20
0.070000
 30
0.000000
 11
0.802559
 21
0.070000
 31
0.000000
  0
LINE
  8
16
 10
0.859119
 20
0.070000
 30
0.000000
 11
0.888271
 21
0.070000
 31
0.000000
  0
LINE
  8
16
 10
0.209147
 20
0.080000
 30
0.000000
 11
0.791256
 21
0.080000
 31
0.000000
  0
LINE
  8
16
 10
0.868697
 20
0.080000
 30
0.000000
 11
0.908271
 21
0.080000
 31
0.000000
  0
LINE
  8
16
 10
0.197481
 20
0.090000
 30
0.000000
 11
0.786350
 21
0.090000
 31
0.000000
  0
LINE
  8
16
 10
0.874874
 20
0.090000
 30
0.000000
 11
0.928271
 21
0.090000
 31
0.000000
  0
LINE
  8
16
 10
0.185814
 20
0.100000
 30
0.000000
 11
0.781473
 21
0.100000
 31
0.000000
  0
LINE
  8
16
 10
0.878317
 20
0.100000
 30
0.000000
 11
0.948271
 21
0.100000
 31
0.000000
  0
LINE
  8
16
 10
0.174147
 20
0.110000
 30
0.000000
 11
0.776596
 21
0.110000
 31
0.000000
  0
LINE
  8
16
 10
0.879034
 20
0.110000
 30
0.000000
 11
0.898753
 21
0.110000
 31
0.000000
  0
LINE
  8
16
 10
0.941131
 20
0.110000
 30
0.000000
 11
0.968271
 21
0.110000
 31
0.000000
  0
LINE
  8
16
 10
0.162481
 20
0.120000
 30
0.000000
 11
0.771719
 21
0.120000
 31
0.000000
  0
LINE
  8
16
 10
0.878422
 20
0.120000
 30
0.000000
 11
0.885473
 21
0.120000
 31
0.000000
  0
LINE
  8
16
 10
0.955182
 20
0.120000
 30
0.000000
 11
0.988271
 21
0.120000
 31
0.000000
  0
LINE
  8
16
 10
0.150814
 20
0.130000
 30
0.000000
 11
0.766841
 21
0.130000
 31
0.000000
  0
LINE
  8
16
 10
0.874615
 20
0.130000
 30
0.000000
 11
0.878101
 21
0.130000
 31
0.000000
  0
LINE
  8
16
 10
0.963432
 20
0.130000
 30
0.000000
 11
1.008271
 21
0.130000
 31
0.000000
  0
LINE
  8
16
 10
0.139147
 20
0.140000
 30
0.000000
 11
0.761964
 21
0.140000
 31
0.000000
  0
LINE
  8
16
 10
0.869737
 20
0.140000
 30
0.000000
 11
0.873224
 21
0.140000
 31
0.000000
  0
LINE
  8
16
 10
0.966875
 20
0.140000
 30
0.000000
 11
1.028271
 21
0.140000
 31
0.000000
  0
LINE
  8
16
 10
0.127481
 20
0.150000
 30
0.000000
 11
0.757087
 21
0.150000
 31
0.000000
  0
LINE
  8
16
 10
0.864860
 20
0.150000
 30
0.000000
 11
0.868347
 21
0.150000
 31
0.000000
  0
LINE
  8
16
 10
0.969148
 20
0.150000
 30
0.000000
 11
1.048271
 21
0.150000
 31
0.000000
  0
LINE
  8
16
 10
0.115814
 20
0.160000
 30
0.000000
 11
0.752209
 21
0.160000
 31
0.000000
  0
LINE
  8
16
 10
0.859983
 20
0.160000
 30
0.000000
 11
0.863469
 21
0.160000
 31
0.000000
  0
LINE
  8
16
 10
0.968536
 20
0.160000
 30
0.000000
 11
1.068271
 21
0.160000
 31
0.000000
  0
LINE
  8
16
 10
0.104147
 20
0.170000
 30
0.000000
 11
0.751147
 21
0.170000
 31
0.000000
  0
LINE
  8
16
 10
0.855105
 20
0.170000
 30
0.000000
 11
0.858592
 21
0.170000
 31
0.000000
  0
LINE
  8
16
 10
0.966366
 20
0.170000
 30
0.000000
 11
1.088271
 21
0.170000
 31
0.000000
  0
LINE
  8
16
 10
0.092481
 20
0.180000
 30
0.000000
 11
0.750536
 21
0.180000
 31
0.000000
  0
LINE
  8
16
 10
0.850228
 20
0.180000
 30
0.000000
 11
0.853715
 21
0.180000
 31
0.000000
  0
LINE
  8
16
 10
0.961488
 20
0.180000
 30
0.000000
 11
1.108271
 21
0.180000
 31
0.000000
  0
LINE
  8
16
 10
0.080814
 20
0.190000
 30
0.000000
 11
0.753862
 21
0.190000
 31
0.000000
  0
LINE
  8
16
 10
0.845351
 20
0.190000
 30
0.000000
 11
0.848837
 21
0.190000
 31
0.000000
  0
LINE
  8
16
 10
0.956611
 20
0.190000
 30
0.000000
 11
1.128271
 21
0.190000
 31
0.000000
  0
LINE
  8
16
 10
0.069147
 20
0.200000
 30
0.000000
 11
0.758112
 21
0.200000
 31
0.000000
  0
LINE
  8
16
 10
0.840474
 20
0.200000
 30
0.000000
 11
0.843960
 21
0.200000
 31
0.000000
  0
LINE
  8
16
 10
0.951734
 20
0.200000
 30
0.000000
 11
1.148271
 21
0.200000
 31
0.000000
  0
LINE
  8
16
 10
0.057481
 20
0.210000
 30
0.000000
 11
0.766960
 21
0.210000
 31
0.000000
  0
LINE
  8
16
 10
0.831432
 20
0.210000
 30
0.000000
 11
0.841261
 21
0.210000
 31
0.000000
  0
LINE
  8
16
 10
0.946856
 20
0.210000
 30
0.000000
 11
1.168271
 21
0.210000
 31
0.000000
  0
LINE
  8
16
 10
0.045814
 20
0.220000
 30
0.000000
 11
0.784039
 21
0.220000
 31
0.000000
  0
LINE
  8
16
 10
0.813542
 20
0.220000
 30
0.000000
 11
0.840649
 21
0.220000
 31
0.000000
  0
LINE
  8
16
 10
0.941979
 20
0.220000
 30
0.000000
 11
1.188271
 21
0.220000
 31
0.000000
  0
LINE
  8
16
 10
0.034148
 20
0.230000
 30
0.000000
 11
0.842420
 21
0.230000
 31
0.000000
  0
LINE
  8
16
 10
0.937102
 20
0.230000
 30
0.000000
 11
1.208271
 21
0.230000
 31
0.000000
  0
LINE
  8
16
 10
0.022481
 20
0.240000
 30
0.000000
 11
0.845863
 21
0.240000
 31
0.000000
  0
LINE
  8
16
 10
0.932224
 20
0.240000
 30
0.000000
 11
1.228271
 21
0.240000
 31
0.000000
  0
LINE
  8
16
 10
0.017500
 20
0.250000
 30
0.000000
 11
0.853444
 21
0.250000
 31
0.000000
  0
LINE
  8
16
 10
0.925649
 20
0.250000
 30
0.000000
 11
1.242343
 21
0.250000
 31
0.000000
  0
LINE
  8
16
 10
0.017500
 20
0.260000
 30
0.000000
 11
0.866051
 21
0.260000
 31
0.000000
  0
LINE
  8
16
 10
0.914346
 20
0.260000
 30
0.000000
 11
1.242343
 21
0.260000
 31
0.000000
  0
LINE
  8
16
 10
0.017500
 20
0.270000
 30
0.000000
 11
1.242343
 21
0.270000
 31
0.000000
  0
LINE
  8
16
 10
0.017500
 20
0.280000
 30
0.000000
 11
1.242343
 21
0.280000
 31
0.000000
  0
LINE
  8
16
 10
0.017500
 20
0.290000
 30
0.000000
 11
1.242343
 21
0.290000
 31
0.000000
  0
LINE
  8
16
 10
0.017500
 20
0.300000
 30
0.000000
 11
0.611180
 21
0.300000
 31
0.000000
  0
LINE
  8
16
 10
0.648662
 20
0.300000
 30
0.000000
 11
1.242343
 21
0.300000
 31
0.000000
  0
LINE
  8
16
 10
0.017500
 20
0.310000
 30
0.000000
 11
0.587038
 21
0.310000
 31
0.000000
  0
LINE
  8
16
 10
0.672805
 20
0.310000
 30
0.000000
 11
1.242343
 21
0.310000
 31
0.000000
  0
LINE
  8
16
 10
0.017500
 20
0.320000
 30
0.000000
 11
0.571053
 21
0.320000
 31
0.000000
  0
LINE
  8
16
 10
0.688789
 20
0.320000
 30
0.000000
 11
1.242343
 21
0.320000
 31
0.000000
  0
LINE
  8
16
 10
0.017500
 20
0.330000
 30
0.000000
 11
0.561053
 21
0.330000
 31
0.000000
  0
LINE
  8
16
 10
0.698789
 20
0.330000
 30
0.000000
 11
1.242343
 21
0.330000
 31
0.000000
  0
LINE
  8
16
 10
0.017500
 20
0.340000
 30
0.000000
 11
0.551053
 21
0.340000
 31
0.000000
  0
LINE
  8
16
 10
0.708789
 20
0.340000
 30
0.000000
 11
1.242343
 21
0.340000
 31
0.000000
  0
LINE
  8
16
 10
0.017500
 20
0.350000
 30
0.000000
 11
0.546559
 21
0.350000
 31
0.000000
  0
LINE
  8
16
 10
0.713283
 20
0.350000
 30
0.000000
 11
1.155711
 21
0.350000
 31
0.000000
  0
LINE
  8
16
 10
1.204289
 20
0.350000
 30
0.000000
 11
1.242343
 21
0.350000
 31
0.000000
  0
LINE
  8
16
 10
0.017500
 20
0.360000
 30
0.000000
 11
0.542417
 21
0.360000
 31
0.000000
  0
LINE
  8
16
 10
0.717425
 20
0.360000
 30
0.000000
 11
1.144593
 21
0.360000
 31
0.000000
  0
LINE
  8
16
 10
1.215407
 20
0.360000
 30
0.000000
 11
1.242343
 21
0.360000
 31
0.000000
  0
LINE
  8
16
 10
0.017500
 20
0.370000
 30
0.000000
 11
0.538275
 21
0.370000
 31
0.000000
  0
LINE
  8
16
 10
0.721568
 20
0.370000
 30
0.000000
 11
1.138224
 21
0.370000
 31
0.000000
  0
LINE
  8
16
 10
1.221776
 20
0.370000
 30
0.000000
 11
1.242343
 21
0.370000
 31
0.000000
  0
LINE
  8
16
 10
0.017500
 20
0.380000
 30
0.000000
 11
0.536181
 21
0.380000
 31
0.000000
  0
LINE
  8
16
 10
0.723661
 20
0.380000
 30
0.000000
 11
1.134081
 21
0.380000
 31
0.000000
  0
LINE
  8
16
 10
1.225918
 20
0.380000
 30
0.000000
 11
1.242343
 21
0.380000
 31
0.000000
  0
LINE
  8
16
 10
0.017500
 20
0.390000
 30
0.000000
 11
0.536181
 21
0.390000
 31
0.000000
  0
LINE
  8
16
 10
0.723661
 20
0.390000
 30
0.000000
 11
1.133750
 21
0.390000
 31
0.000000
  0
LINE
  8
16
 10
1.226250
 20
0.390000
 30
0.000000
 11
1.242343
 21
0.390000
 31
0.000000
  0
LINE
  8
16
 10
0.017500
 20
0.400000
 30
0.000000
 11
0.536181
 21
0.400000
 31
0.000000
  0
LINE
  8
16
 10
0.723661
 20
0.400000
 30
0.000000
 11
1.134082
 21
0.400000
 31
0.000000
  0
LINE
  8
16
 10
1.225918
 20
0.400000
 30
0.000000
 11
1.242343
 21
0.400000
 31
0.000000
  0
LINE
  8
16
 10
0.017500
 20
0.410000
 30
0.000000
 11
0.536181
 21
0.410000
 31
0.000000
  0
LINE
  8
16
 10
0.723661
 20
0.410000
 30
0.000000
 11
1.138224
 21
0.410000
 31
0.000000
  0
LINE
  8
16
 10
1.221776
 20
0.410000
 30
0.000000
 11
1.242343
 21
0.410000
 31
0.000000
  0
LINE
  8
16
 10
0.017500
 20
0.420000
 30
0.000000
 11
0.539351
 21
0.420000
 31
0.000000
  0
LINE
  8
16
 10
0.720491
 20
0.420000
 30
0.000000
 11
1.144593
 21
0.420000
 31
0.000000
  0
LINE
  8
16
 10
1.215407
 20
0.420000
 30
0.000000
 11
1.242343
 21
0.420000
 31
0.000000
  0
LINE
  8
16
 10
0.017500
 20
0.430000
 30
0.000000
 11
0.543493
 21
0.430000
 31
0.000000
  0
LINE
  8
16
 10
0.716349
 20
0.430000
 30
0.000000
 11
1.155712
 21
0.430000
 31
0.000000
  0
LINE
  8
16
 10
1.204288
 20
0.430000
 30
0.000000
 11
1.242343
 21
0.430000
 31
0.000000
  0
LINE
  8
16
 10
0.017500
 20
0.440000
 30
0.000000
 11
0.547635
 21
0.440000
 31
0.000000
  0
LINE
  8
16
 10
0.712207
 20
0.440000
 30
0.000000
 11
1.242343
 21
0.440000
 31
0.000000
  0
LINE
  8
16
 10
0.017500
 20
0.450000
 30
0.000000
 11
0.553652
 21
0.450000
 31
0.000000
  0
LINE
  8
16
 10
0.706190
 20
0.450000
 30
0.000000
 11
1.242343
 21
0.450000
 31
0.000000
  0
LINE
  8
16
 10
0.017500
 20
0.460000
 30
0.000000
 11
0.563652
 21
0.460000
 31
0.000000
  0
LINE
  8
16
 10
0.696190
 20
0.460000
 30
0.000000
 11
1.242343
 21
0.460000
 31
0.000000
  0
LINE
  8
16
 10
0.017500
 20
0.470000
 30
0.000000
 11
0.573652
 21
0.470000
 31
0.000000
  0
LINE
  8
16
 10
0.686190
 20
0.470000
 30
0.000000
 11
1.242343
 21
0.470000
 31
0.000000
  0
LINE
  8
16
 10
0.017500
 20
0.480000
 30
0.000000
 11
0.593311
 21
0.480000
 31
0.000000
  0
LINE
  8
16
 10
0.666531
 20
0.480000
 30
0.000000
 11
1.242343
 21
0.480000
 31
0.000000
  0
LINE
  8
16
 10
0.017500
 20
0.490000
 30
0.000000
 11
1.242343
 21
0.490000
 31
0.000000
  0
LINE
  8
16
 10
0.017500
 20
0.500000
 30
0.000000
 11
1.242343
 21
0.500000
 31
0.000000
  0
LINE
  8
16
 10
0.017500
 20
0.510000
 30
0.000000
 11
1.137546
 21
0.510000
 31
0.000000
  0
LINE
  8
16
 10
1.172357
 20
0.510000
 30
0.000000
 11
1.242343
 21
0.510000
 31
0.000000
  0
LINE
  8
16
 10
0.017500
 20
0.520000
 30
0.000000
 11
1.117043
 21
0.520000
 31
0.000000
  0
LINE
  8
16
 10
1.177235
 20
0.520000
 30
0.000000
 11
1.242343
 21
0.520000
 31
0.000000
  0
LINE
  8
16
 10
0.017500
 20
0.530000
 30
0.000000
 11
1.096540
 21
0.530000
 31
0.000000
  0
LINE
  8
16
 10
1.182112
 20
0.530000
 30
0.000000
 11
1.242343
 21
0.530000
 31
0.000000
  0
LINE
  8
16
 10
0.017500
 20
0.540000
 30
0.000000
 11
1.076037
 21
0.540000
 31
0.000000
  0
LINE
  8
16
 10
1.186989
 20
0.540000
 30
0.000000
 11
1.242343
 21
0.540000
 31
0.000000
  0
LINE
  8
16
 10
0.025512
 20
0.550000
 30
0.000000
 11
1.055534
 21
0.550000
 31
0.000000
  0
LINE
  8
16
 10
1.191867
 20
0.550000
 30
0.000000
 11
1.223074
 21
0.550000
 31
0.000000
  0
LINE
  8
16
 10
0.037179
 20
0.560000
 30
0.000000
 11
1.035031
 21
0.560000
 31
0.000000
  0
LINE
  8
16
 10
1.196744
 20
0.560000
 30
0.000000
 11
1.203074
 21
0.560000
 31
0.000000
  0
LINE
  8
16
 10
0.048846
 20
0.570000
 30
0.000000
 11
1.014528
 21
0.570000
 31
0.000000
  0
LINE
  8
16
 10
0.060512
 20
0.580000
 30
0.000000
 11
0.994025
 21
0.580000
 31
0.000000
  0
LINE
  8
16
 10
0.072179
 20
0.590000
 30
0.000000
 11
0.973522
 21
0.590000
 31
0.000000
  0
LINE
  8
16
 10
0.083846
 20
0.600000
 30
0.000000
 11
0.953018
 21
0.600000
 31
0.000000
  0
LINE
  8
16
 10
0.095512
 20
0.610000
 30
0.000000
 11
0.932515
 21
0.610000
 31
0.000000
  0
LINE
  8
16
 10
0.107179
 20
0.620000
 30
0.000000
 11
0.912012
 21
0.620000
 31
0.000000
  0
LINE
  8
16
 10
0.118846
 20
0.630000
 30
0.000000
 11
0.891509
 21
0.630000
 31
0.000000
  0
LINE
  8
16
 10
0.130512
 20
0.640000
 30
0.000000
 11
0.871006
 21
0.640000
 31
0.000000
  0
LINE
  8
16
 10
0.142179
 20
0.650000
 30
0.000000
 11
0.850503
 21
0.650000
 31
0.000000
  0
LINE
  8
16
 10
0.153846
 20
0.660000
 30
0.000000
 11
0.830000
 21
0.660000
 31
0.000000
  0
LINE
  8
16
 10
0.165512
 20
0.670000
 30
0.000000
 11
0.816485
 21
0.670000
 31
0.000000
  0
LINE
  8
16
 10
0.177179
 20
0.680000
 30
0.000000
 11
0.816277
 21
0.680000
 31
0.000000
  0
LINE
  8
16
 10
0.188846
 20
0.690000
 30
0.000000
 11
0.821127
 21
0.690000
 31
0.000000
  0
LINE
  8
16
 10
0.200512
 20
0.700000
 30
0.000000
 11
0.826004
 21
0.700000
 31
0.000000
  0
LINE
  8
16
 10
0.212179
 20
0.710000
 30
0.000000
 11
0.830882
 21
0.710000
 31
0.000000
  0
LINE
  8
16
 10
0.223846
 20
0.720000
 30
0.000000
 11
0.835759
 21
0.720000
 31
0.000000
  0
LINE
  8
16
 10
0.235512
 20
0.730000
 30
0.000000
 11
0.840636
 21
0.730000
 31
0.000000
  0
LINE
  8
16
 10
0.247179
 20
0.740000
 30
0.000000
 11
0.843074
 21
0.740000
 31
0.000000
  0
LINE
  8
16
 10
0.258846
 20
0.750000
 30
0.000000
 11
0.823074
 21
0.750000
 31
0.000000
  0
LINE
  8
16
 10
0.270512
 20
0.760000
 30
0.000000
 11
0.803073
 21
0.760000
 31
0.000000
  0
INSERT
  8
18
  2
ROUNDV
 10
0.290000
 20
0.540000
 30
0.000000
 41
0.039622
 42
0.039622
 43
1.000000
 50
0.000000
  0
INSERT
  8
18
  2
ROUNDV
 10
0.290000
 20
0.540000
 30
0.000000
 41
0.039622
 42
0.039622
 43
1.000000
 50
0.000000
  0
INSERT
  8
18
  2
ROUNDV
 10
0.740000
 20
0.550000
 30
0.000000
 41
0.039622
 42
0.039622
 43
1.000000
 50
0.000000
  0
INSERT
  8
18
  2
ROUNDV
 10
0.740000
 20
0.550000
 30
0.000000
 41
0.039622
 42
0.039622
 43
1.000000
 50
0.000000
  0
INSERT
  8
18
  2
ROUNDV
 10
0.440000
 20
0.390000
 30
0.000000
 41
0.039622
 42
0.039622
 43
1.000000
 50
0.000000
  0
INSERT
  8
18
  2
ROUNDV
 10
0.440000
 20
0.390000
 30
0.000000
 41
0.039622
 42
0.039622
 43
1.000000
 50
0.000000
  0
INSERT
  8
18
  2
ROUNDV
 10
0.300000
 20
0.240000
 30
0.000000
 41
0.039622
 42
0.039622
 43
1.000000
 50
0.000000
  0
INSERT
  8
18
  2
ROUNDV
 10
0.300000
 20
0.240000
 30
0.000000
 41
0.039622
 42
0.039622
 43
1.000000
 50
0.000000
  0
INSERT
  8
18
  2
ROUNDV
 10
0.806850
 20
0.390000
 30
0.000000
 41
0.039622
 42
0.039622
 43
1.000000
 50
0.000000
  0
INSERT
  8
18
  2
ROUNDV
 10
0.806850
 20
0.390000
 30
0.000000
 41
0.039622
 42
0.039622
 43
1.000000
 50
0.000000
  0
INSERT
  8
18
  2
ROUNDV
 10
0.730000
 20
0.240000
 30
0.000000
 41
0.039622
 42
0.039622
 43
1.000000
 50
0.000000
  0
INSERT
  8
18
  2
ROUNDV
 10
0.730000
 20
0.240000
 30
0.000000
 41
0.039622
 42
0.039622
 43
1.000000
 50
0.000000
  0
LINE
  8
1
 10
0.506693
 20
0.098031
 30
0.000000
 11
0.516535
 21
0.098031
 31
0.000000
  0
LINE
  8
1
 10
0.516535
 20
0.098031
 30
0.000000
 11
0.527165
 21
0.087402
 31
0.000000
  0
LINE
  8
1
 10
0.527165
 20
0.087402
 30
0.000000
 11
0.701654
 21
0.087402
 31
0.000000
  0
LINE
  8
1
 10
0.701654
 20
0.087402
 30
0.000000
 11
0.730000
 21
0.100000
 31
0.000000
  0
LINE
  8
1
 10
0.730000
 20
0.100000
 30
0.000000
 11
0.814982
 21
0.141782
 31
0.000000
  0
LINE
  8
1
 10
1.083071
 20
0.359449
 30
0.000000
 11
1.083071
 21
0.350000
 31
0.000000
  0
LINE
  8
1
 10
1.083071
 20
0.350000
 30
0.000000
 11
1.094094
 21
0.338976
 31
0.000000
  0
LINE
  8
1
 10
1.094094
 20
0.338976
 30
0.000000
 11
1.094094
 21
0.284409
 31
0.000000
  0
LINE
  8
1
 10
1.094094
 20
0.284409
 30
0.000000
 11
1.050000
 21
0.260000
 31
0.000000
  0
LINE
  8
1
 10
1.050000
 20
0.260000
 30
0.000000
 11
0.904861
 21
0.185619
 31
0.000000
  0
ENDSEC
  0
EOF
