G75*
G70*
%OFA0B0*%
%FSLAX24Y24*%
%IPPOS*%
%LPD*%
%AMOC8*
5,1,8,0,0,1.08239X$1,22.5*
%
%ADD10C,0.1655*%
%ADD11C,0.0705*%
%ADD12C,0.0173*%
%ADD13C,0.0040*%
%ADD14C,0.0789*%
%ADD15C,0.0476*%
D10*
X006849Y004487D03*
D11*
X012350Y004450D03*
D12*
X010416Y004491D03*
X009920Y004491D03*
X005278Y002991D03*
X005278Y002495D03*
X002991Y004483D03*
X002495Y004483D03*
X005270Y005983D03*
X005270Y006479D03*
D13*
X005463Y006402D02*
X005814Y006402D01*
X005814Y006364D02*
X005443Y006364D01*
X005434Y006349D02*
X005458Y006389D01*
X005474Y006433D01*
X005479Y006479D01*
X005814Y006479D01*
X005814Y006441D02*
X005475Y006441D01*
X005479Y006479D02*
X005479Y006546D01*
X005814Y006546D01*
X005814Y006054D01*
X006003Y005865D01*
X005995Y005833D01*
X005980Y005804D01*
X005959Y005778D01*
X005934Y005758D01*
X005905Y005743D01*
X005873Y005735D01*
X005676Y005932D01*
X005479Y005932D01*
X005479Y005983D01*
X005474Y006030D01*
X005458Y006074D01*
X005434Y006113D01*
X005401Y006146D01*
X005361Y006171D01*
X005317Y006187D01*
X005270Y006192D01*
X005224Y006187D01*
X005180Y006171D01*
X005140Y006146D01*
X005107Y006113D01*
X005082Y006074D01*
X005067Y006030D01*
X005062Y005983D01*
X005062Y005932D01*
X004877Y005932D01*
X004680Y005735D01*
X004647Y005742D01*
X004617Y005756D01*
X004591Y005776D01*
X004571Y005802D01*
X004557Y005832D01*
X004550Y005865D01*
X004735Y006050D01*
X004735Y006546D01*
X005062Y006546D01*
X005062Y006479D01*
X004735Y006479D01*
X004735Y006441D02*
X005066Y006441D01*
X005067Y006433D02*
X005082Y006389D01*
X005107Y006349D01*
X005140Y006316D01*
X005180Y006291D01*
X005224Y006276D01*
X005270Y006270D01*
X005270Y006192D01*
X005270Y006270D01*
X005317Y006276D01*
X005361Y006291D01*
X005401Y006316D01*
X005434Y006349D01*
X005410Y006325D02*
X005814Y006325D01*
X005814Y006287D02*
X005348Y006287D01*
X005270Y006248D02*
X004735Y006248D01*
X004735Y006210D02*
X005270Y006210D01*
X005814Y006210D01*
X005814Y006248D02*
X005270Y006248D01*
X005193Y006287D02*
X004735Y006287D01*
X004735Y006325D02*
X005131Y006325D01*
X005098Y006364D02*
X004735Y006364D01*
X004735Y006402D02*
X005078Y006402D01*
X005067Y006433D02*
X005062Y006479D01*
X005062Y006518D02*
X004735Y006518D01*
X004735Y006171D02*
X005180Y006171D01*
X005127Y006133D02*
X004735Y006133D01*
X004735Y006094D02*
X005095Y006094D01*
X005076Y006056D02*
X004735Y006056D01*
X004702Y006017D02*
X005066Y006017D01*
X005062Y005979D02*
X004664Y005979D01*
X004625Y005940D02*
X005062Y005940D01*
X004846Y005902D02*
X004587Y005902D01*
X004550Y005863D02*
X004808Y005863D01*
X004769Y005825D02*
X004560Y005825D01*
X004584Y005786D02*
X004731Y005786D01*
X004692Y005748D02*
X004635Y005748D01*
X005361Y006171D02*
X005814Y006171D01*
X005814Y006133D02*
X005414Y006133D01*
X005446Y006094D02*
X005814Y006094D01*
X005814Y006056D02*
X005465Y006056D01*
X005475Y006017D02*
X005851Y006017D01*
X005889Y005979D02*
X005479Y005979D01*
X005479Y005940D02*
X005928Y005940D01*
X005966Y005902D02*
X005706Y005902D01*
X005745Y005863D02*
X006002Y005863D01*
X005990Y005825D02*
X005783Y005825D01*
X005822Y005786D02*
X005966Y005786D01*
X005913Y005748D02*
X005860Y005748D01*
X005814Y006518D02*
X005479Y006518D01*
X005420Y007353D02*
X005814Y007353D01*
X005814Y007416D01*
X005999Y007601D01*
X005992Y007634D01*
X005772Y007634D01*
X005810Y007673D02*
X005971Y007673D01*
X005978Y007664D02*
X005992Y007634D01*
X005978Y007664D02*
X005957Y007690D01*
X005931Y007710D01*
X005901Y007724D01*
X005869Y007731D01*
X005672Y007534D01*
X005420Y007534D01*
X005420Y007353D01*
X005420Y007365D02*
X005814Y007365D01*
X005814Y007403D02*
X005420Y007403D01*
X005420Y007442D02*
X005839Y007442D01*
X005878Y007480D02*
X005420Y007480D01*
X005420Y007519D02*
X005916Y007519D01*
X005955Y007557D02*
X005695Y007557D01*
X005733Y007596D02*
X005993Y007596D01*
X005930Y007711D02*
X005849Y007711D01*
X005129Y007534D02*
X005129Y007353D01*
X004735Y007353D01*
X004735Y007412D01*
X004546Y007601D01*
X004554Y007633D01*
X004569Y007662D01*
X004589Y007688D01*
X004615Y007708D01*
X004644Y007723D01*
X004676Y007731D01*
X004873Y007534D01*
X005129Y007534D01*
X005129Y007519D02*
X004629Y007519D01*
X004590Y007557D02*
X004850Y007557D01*
X004812Y007596D02*
X004552Y007596D01*
X004555Y007634D02*
X004773Y007634D01*
X004735Y007673D02*
X004577Y007673D01*
X004620Y007711D02*
X004696Y007711D01*
X004667Y007480D02*
X005129Y007480D01*
X005129Y007442D02*
X004706Y007442D01*
X004735Y007403D02*
X005129Y007403D01*
X005129Y007365D02*
X004735Y007365D01*
X003170Y005193D02*
X003196Y005172D01*
X003216Y005147D01*
X003231Y005117D01*
X003239Y005085D01*
X003042Y004889D01*
X003042Y004692D01*
X002991Y004692D01*
X002945Y004687D01*
X002900Y004671D01*
X002861Y004646D01*
X002828Y004613D01*
X002803Y004574D01*
X002788Y004530D01*
X002782Y004483D01*
X002788Y004437D01*
X002803Y004393D01*
X002828Y004353D01*
X002861Y004320D01*
X002900Y004295D01*
X002945Y004280D01*
X002991Y004274D01*
X003042Y004274D01*
X003042Y004089D01*
X003239Y003893D01*
X003232Y003860D01*
X003218Y003830D01*
X003198Y003804D01*
X003172Y003783D01*
X003142Y003769D01*
X003109Y003763D01*
X002924Y003948D01*
X002428Y003948D01*
X002428Y004274D01*
X002495Y004274D01*
X002541Y004280D01*
X002585Y004295D01*
X002625Y004320D01*
X002658Y004353D01*
X002683Y004393D01*
X002698Y004437D01*
X002704Y004483D01*
X002782Y004483D01*
X002704Y004483D01*
X002698Y004530D01*
X002683Y004574D01*
X002658Y004613D01*
X002625Y004646D01*
X002585Y004671D01*
X002541Y004687D01*
X002495Y004692D01*
X002428Y004692D01*
X002428Y005026D01*
X002920Y005026D01*
X003109Y005215D01*
X003141Y005207D01*
X003170Y005193D01*
X003197Y005170D02*
X003064Y005170D01*
X003102Y005209D02*
X003136Y005209D01*
X003224Y005132D02*
X003025Y005132D01*
X002987Y005093D02*
X003237Y005093D01*
X003208Y005055D02*
X002948Y005055D01*
X003093Y004939D02*
X002428Y004939D01*
X002428Y004901D02*
X003054Y004901D01*
X003042Y004862D02*
X002428Y004862D01*
X002428Y004824D02*
X003042Y004824D01*
X003042Y004785D02*
X002428Y004785D01*
X002428Y004747D02*
X003042Y004747D01*
X003042Y004708D02*
X002428Y004708D01*
X002588Y004670D02*
X002898Y004670D01*
X002846Y004631D02*
X002640Y004631D01*
X002671Y004593D02*
X002815Y004593D01*
X002796Y004554D02*
X002690Y004554D01*
X002700Y004516D02*
X002786Y004516D01*
X002783Y004477D02*
X002703Y004477D01*
X002699Y004439D02*
X002787Y004439D01*
X002800Y004400D02*
X002685Y004400D01*
X002663Y004362D02*
X002822Y004362D01*
X002858Y004323D02*
X002628Y004323D01*
X002555Y004285D02*
X002931Y004285D01*
X003042Y004246D02*
X002428Y004246D01*
X002428Y004208D02*
X003042Y004208D01*
X003042Y004169D02*
X002428Y004169D01*
X002428Y004131D02*
X003042Y004131D01*
X003042Y004092D02*
X002428Y004092D01*
X002428Y004054D02*
X003078Y004054D01*
X003116Y004015D02*
X002428Y004015D01*
X002428Y003977D02*
X003155Y003977D01*
X003193Y003938D02*
X002934Y003938D01*
X002972Y003900D02*
X003232Y003900D01*
X003232Y003861D02*
X003011Y003861D01*
X003049Y003823D02*
X003212Y003823D01*
X003172Y003784D02*
X003088Y003784D01*
X004554Y003141D02*
X004546Y003109D01*
X004735Y002920D01*
X004735Y002428D01*
X005070Y002428D01*
X005070Y002495D01*
X005075Y002541D01*
X005090Y002585D01*
X005115Y002625D01*
X005148Y002658D01*
X005188Y002683D01*
X005232Y002698D01*
X005278Y002704D01*
X005278Y002782D01*
X005325Y002788D01*
X005369Y002803D01*
X005408Y002828D01*
X005441Y002861D01*
X005466Y002900D01*
X005482Y002945D01*
X005487Y002991D01*
X005487Y003042D01*
X005672Y003042D01*
X005869Y003239D01*
X005901Y003232D01*
X005931Y003218D01*
X005957Y003198D01*
X005978Y003172D01*
X005992Y003142D01*
X005999Y003109D01*
X005814Y002924D01*
X005814Y002428D01*
X005487Y002428D01*
X005487Y002495D01*
X005482Y002541D01*
X005466Y002585D01*
X005441Y002625D01*
X005408Y002658D01*
X005369Y002683D01*
X005325Y002698D01*
X005278Y002704D01*
X005278Y002782D01*
X005232Y002788D01*
X005188Y002803D01*
X005148Y002828D01*
X005115Y002861D01*
X005090Y002900D01*
X005075Y002945D01*
X005070Y002991D01*
X005070Y003042D01*
X004873Y003042D01*
X004676Y003239D01*
X004644Y003231D01*
X004615Y003216D01*
X004589Y003196D01*
X004569Y003170D01*
X004554Y003141D01*
X004551Y003130D02*
X004785Y003130D01*
X004747Y003168D02*
X004568Y003168D01*
X004603Y003207D02*
X004708Y003207D01*
X004824Y003091D02*
X004564Y003091D01*
X004603Y003053D02*
X004862Y003053D01*
X004718Y002937D02*
X005078Y002937D01*
X005071Y002976D02*
X004680Y002976D01*
X004641Y003014D02*
X005070Y003014D01*
X005092Y002899D02*
X004735Y002899D01*
X004735Y002860D02*
X005116Y002860D01*
X005158Y002822D02*
X004735Y002822D01*
X004735Y002783D02*
X005272Y002783D01*
X005285Y002783D02*
X005814Y002783D01*
X005814Y002745D02*
X005278Y002745D01*
X004735Y002745D01*
X004735Y002706D02*
X005278Y002706D01*
X005814Y002706D01*
X005814Y002668D02*
X005393Y002668D01*
X005437Y002629D02*
X005814Y002629D01*
X005814Y002591D02*
X005463Y002591D01*
X005478Y002552D02*
X005814Y002552D01*
X005814Y002514D02*
X005485Y002514D01*
X005487Y002475D02*
X005814Y002475D01*
X005814Y002437D02*
X005487Y002437D01*
X005119Y002629D02*
X004735Y002629D01*
X004735Y002591D02*
X005094Y002591D01*
X005079Y002552D02*
X004735Y002552D01*
X004735Y002514D02*
X005072Y002514D01*
X005070Y002475D02*
X004735Y002475D01*
X004735Y002437D02*
X005070Y002437D01*
X005163Y002668D02*
X004735Y002668D01*
X005398Y002822D02*
X005814Y002822D01*
X005814Y002860D02*
X005441Y002860D01*
X005465Y002899D02*
X005814Y002899D01*
X005827Y002937D02*
X005479Y002937D01*
X005485Y002976D02*
X005865Y002976D01*
X005904Y003014D02*
X005487Y003014D01*
X005682Y003053D02*
X005942Y003053D01*
X005981Y003091D02*
X005721Y003091D01*
X005759Y003130D02*
X005995Y003130D01*
X005980Y003168D02*
X005798Y003168D01*
X005836Y003207D02*
X005946Y003207D01*
X005814Y001621D02*
X005420Y001621D01*
X005420Y001440D01*
X005676Y001440D01*
X005873Y001243D01*
X005905Y001251D01*
X005934Y001266D01*
X005959Y001286D01*
X005980Y001312D01*
X005995Y001341D01*
X006003Y001373D01*
X005814Y001562D01*
X005814Y001621D01*
X005814Y001590D02*
X005420Y001590D01*
X005420Y001551D02*
X005825Y001551D01*
X005863Y001513D02*
X005420Y001513D01*
X005420Y001474D02*
X005902Y001474D01*
X005940Y001436D02*
X005680Y001436D01*
X005719Y001397D02*
X005979Y001397D01*
X005999Y001359D02*
X005757Y001359D01*
X005796Y001320D02*
X005984Y001320D01*
X005954Y001282D02*
X005834Y001282D01*
X005873Y001243D02*
X005873Y001243D01*
X005129Y001440D02*
X004877Y001440D01*
X004680Y001243D01*
X004679Y001243D01*
X004680Y001243D02*
X004647Y001250D01*
X004617Y001264D01*
X004591Y001284D01*
X004571Y001310D01*
X004557Y001340D01*
X004550Y001373D01*
X004735Y001558D01*
X004735Y001621D01*
X005129Y001621D01*
X005129Y001440D01*
X005129Y001474D02*
X004651Y001474D01*
X004613Y001436D02*
X004873Y001436D01*
X004834Y001397D02*
X004574Y001397D01*
X004553Y001359D02*
X004796Y001359D01*
X004757Y001320D02*
X004566Y001320D01*
X004595Y001282D02*
X004719Y001282D01*
X004690Y001513D02*
X005129Y001513D01*
X005129Y001551D02*
X004728Y001551D01*
X004735Y001590D02*
X005129Y001590D01*
X001621Y003948D02*
X001562Y003948D01*
X001373Y003759D01*
X001341Y003767D01*
X001312Y003781D01*
X001286Y003802D01*
X001266Y003827D01*
X001251Y003857D01*
X001243Y003889D01*
X001440Y004085D01*
X001440Y004341D01*
X001621Y004341D01*
X001621Y003948D01*
X001621Y003977D02*
X001331Y003977D01*
X001369Y004015D02*
X001621Y004015D01*
X001621Y004054D02*
X001408Y004054D01*
X001440Y004092D02*
X001621Y004092D01*
X001621Y004131D02*
X001440Y004131D01*
X001440Y004169D02*
X001621Y004169D01*
X001621Y004208D02*
X001440Y004208D01*
X001440Y004246D02*
X001621Y004246D01*
X001621Y004285D02*
X001440Y004285D01*
X001440Y004323D02*
X001621Y004323D01*
X001621Y004633D02*
X001440Y004633D01*
X001440Y004885D01*
X001243Y005081D01*
X001250Y005114D01*
X001264Y005144D01*
X001284Y005170D01*
X001414Y005170D01*
X001376Y005209D02*
X001359Y005209D01*
X001373Y005211D02*
X001558Y005026D01*
X001621Y005026D01*
X001621Y004633D01*
X001621Y004670D02*
X001440Y004670D01*
X001440Y004708D02*
X001621Y004708D01*
X001621Y004747D02*
X001440Y004747D01*
X001440Y004785D02*
X001621Y004785D01*
X001621Y004824D02*
X001440Y004824D01*
X001440Y004862D02*
X001621Y004862D01*
X001621Y004901D02*
X001424Y004901D01*
X001385Y004939D02*
X001621Y004939D01*
X001621Y004978D02*
X001347Y004978D01*
X001308Y005016D02*
X001621Y005016D01*
X001530Y005055D02*
X001270Y005055D01*
X001245Y005093D02*
X001491Y005093D01*
X001453Y005132D02*
X001258Y005132D01*
X001284Y005170D02*
X001310Y005191D01*
X001340Y005205D01*
X001373Y005211D01*
X002428Y005016D02*
X003170Y005016D01*
X003131Y004978D02*
X002428Y004978D01*
X001552Y003938D02*
X001292Y003938D01*
X001254Y003900D02*
X001514Y003900D01*
X001475Y003861D02*
X001250Y003861D01*
X001270Y003823D02*
X001437Y003823D01*
X001398Y003784D02*
X001308Y003784D01*
X009672Y003889D02*
X009869Y004085D01*
X009869Y004282D01*
X009920Y004282D01*
X009967Y004288D01*
X010011Y004303D01*
X010050Y004328D01*
X010083Y004361D01*
X010108Y004400D01*
X010228Y004400D01*
X010253Y004361D01*
X010286Y004328D01*
X010326Y004303D01*
X010370Y004288D01*
X010416Y004282D01*
X010483Y004282D01*
X010483Y003948D01*
X009991Y003948D01*
X009802Y003759D01*
X009770Y003767D01*
X009741Y003781D01*
X009715Y003802D01*
X009695Y003827D01*
X009680Y003857D01*
X009672Y003889D01*
X009683Y003900D02*
X009943Y003900D01*
X009981Y003938D02*
X009721Y003938D01*
X009760Y003977D02*
X010483Y003977D01*
X010483Y004015D02*
X009798Y004015D01*
X009837Y004054D02*
X010483Y004054D01*
X010483Y004092D02*
X009869Y004092D01*
X009869Y004131D02*
X010483Y004131D01*
X010483Y004169D02*
X009869Y004169D01*
X009869Y004208D02*
X010483Y004208D01*
X010483Y004246D02*
X009869Y004246D01*
X009940Y004285D02*
X010396Y004285D01*
X010294Y004323D02*
X010043Y004323D01*
X010084Y004362D02*
X010253Y004362D01*
X010228Y004400D02*
X010213Y004445D01*
X010207Y004491D01*
X010129Y004491D01*
X010124Y004537D01*
X010108Y004581D01*
X010083Y004621D01*
X010050Y004654D01*
X010011Y004679D01*
X009967Y004694D01*
X009920Y004700D01*
X009869Y004700D01*
X009869Y004885D01*
X009672Y005081D01*
X009679Y005114D01*
X009693Y005144D01*
X009713Y005170D01*
X009843Y005170D01*
X009805Y005209D02*
X009788Y005209D01*
X009802Y005211D02*
X009769Y005205D01*
X009739Y005191D01*
X009713Y005170D01*
X009687Y005132D02*
X009882Y005132D01*
X009920Y005093D02*
X009674Y005093D01*
X009699Y005055D02*
X009959Y005055D01*
X009987Y005026D02*
X010483Y005026D01*
X010483Y004700D01*
X010416Y004700D01*
X010370Y004694D01*
X010326Y004679D01*
X010286Y004654D01*
X010253Y004621D01*
X010228Y004581D01*
X010213Y004537D01*
X010207Y004491D01*
X010129Y004491D01*
X010124Y004445D01*
X010108Y004400D01*
X010121Y004439D02*
X010215Y004439D01*
X010209Y004477D02*
X010127Y004477D01*
X010126Y004516D02*
X010210Y004516D01*
X010219Y004554D02*
X010118Y004554D01*
X010101Y004593D02*
X010235Y004593D01*
X010263Y004631D02*
X010073Y004631D01*
X010026Y004670D02*
X010311Y004670D01*
X010483Y004708D02*
X009869Y004708D01*
X009869Y004747D02*
X010483Y004747D01*
X010483Y004785D02*
X009869Y004785D01*
X009869Y004824D02*
X010483Y004824D01*
X010483Y004862D02*
X009869Y004862D01*
X009853Y004901D02*
X010483Y004901D01*
X010483Y004939D02*
X009815Y004939D01*
X009776Y004978D02*
X010483Y004978D01*
X010483Y005016D02*
X009738Y005016D01*
X009802Y005211D02*
X009987Y005026D01*
X011290Y005026D02*
X011290Y004633D01*
X011471Y004633D01*
X011471Y004889D01*
X011668Y005085D01*
X011660Y005117D01*
X011645Y005147D01*
X011625Y005172D01*
X011599Y005193D01*
X011570Y005207D01*
X011538Y005215D01*
X011349Y005026D01*
X011290Y005026D01*
X011290Y005016D02*
X011599Y005016D01*
X011637Y005055D02*
X011377Y005055D01*
X011416Y005093D02*
X011666Y005093D01*
X011653Y005132D02*
X011454Y005132D01*
X011493Y005170D02*
X011626Y005170D01*
X011565Y005209D02*
X011531Y005209D01*
X011560Y004978D02*
X011290Y004978D01*
X011290Y004939D02*
X011522Y004939D01*
X011483Y004901D02*
X011290Y004901D01*
X011290Y004862D02*
X011471Y004862D01*
X011471Y004824D02*
X011290Y004824D01*
X011290Y004785D02*
X011471Y004785D01*
X011471Y004747D02*
X011290Y004747D01*
X011290Y004708D02*
X011471Y004708D01*
X011471Y004670D02*
X011290Y004670D01*
X011290Y004341D02*
X011290Y003948D01*
X011353Y003948D01*
X011538Y003763D01*
X011571Y003769D01*
X011601Y003783D01*
X011627Y003804D01*
X011647Y003830D01*
X011661Y003860D01*
X011668Y003893D01*
X011471Y004089D01*
X011471Y004341D01*
X011290Y004341D01*
X011290Y004323D02*
X011471Y004323D01*
X011471Y004285D02*
X011290Y004285D01*
X011290Y004246D02*
X011471Y004246D01*
X011471Y004208D02*
X011290Y004208D01*
X011290Y004169D02*
X011471Y004169D01*
X011471Y004131D02*
X011290Y004131D01*
X011290Y004092D02*
X011471Y004092D01*
X011507Y004054D02*
X011290Y004054D01*
X011290Y004015D02*
X011546Y004015D01*
X011584Y003977D02*
X011290Y003977D01*
X011363Y003938D02*
X011623Y003938D01*
X011661Y003900D02*
X011401Y003900D01*
X011440Y003861D02*
X011662Y003861D01*
X011641Y003823D02*
X011478Y003823D01*
X011517Y003784D02*
X011602Y003784D01*
X009904Y003861D02*
X009679Y003861D01*
X009699Y003823D02*
X009866Y003823D01*
X009827Y003784D02*
X009738Y003784D01*
D14*
X009443Y002725D02*
X009754Y002088D01*
X008855Y001649D02*
X008544Y002286D01*
D15*
X003550Y002950D03*
X004950Y004450D03*
X003450Y005950D03*
X007950Y006050D03*
X008619Y004450D03*
X007850Y002950D03*
M02*
