G75*
G70*
%OFA0B0*%
%FSLAX24Y24*%
%IPPOS*%
%LPD*%
%AMOC8*
5,1,8,0,0,1.08239X$1,22.5*
%
%ADD10C,0.0030*%
%ADD11C,0.0298*%
%ADD12C,0.0338*%
%ADD13C,0.0709*%
%ADD14C,0.0100*%
%ADD15C,0.0396*%
D10*
X010257Y006773D02*
X010368Y006719D01*
X010450Y006748D01*
X010394Y006913D02*
X010338Y006940D01*
X010256Y006911D01*
X010229Y006856D01*
X010257Y006773D01*
X010119Y006909D02*
X010006Y007239D01*
X009897Y007017D01*
X009926Y006935D01*
X010037Y006881D01*
X010119Y006909D01*
X010228Y007131D01*
X010199Y007214D01*
X010088Y007268D01*
X010006Y007239D01*
X009842Y007182D02*
X009621Y007290D01*
X009538Y007399D02*
X009482Y007564D01*
X009319Y007231D01*
X009430Y007177D02*
X009208Y007285D01*
X009099Y007338D02*
X008986Y007668D01*
X009013Y007724D01*
X009095Y007752D01*
X009206Y007698D01*
X009234Y007616D01*
X009099Y007338D02*
X008877Y007446D01*
X009595Y007096D02*
X009757Y007429D01*
X009842Y007182D01*
X010310Y007022D02*
X010338Y006940D01*
X010310Y007022D02*
X010337Y007078D01*
X010419Y007106D01*
X010530Y007052D01*
X010559Y006970D01*
X010806Y006918D02*
X010863Y006753D01*
X010999Y006755D02*
X011112Y006425D01*
X011030Y006396D01*
X010919Y006451D01*
X010891Y006533D01*
X010999Y006755D01*
X011081Y006783D01*
X011192Y006729D01*
X011221Y006647D01*
X011112Y006425D01*
X011195Y006316D02*
X011416Y006208D01*
X011303Y006538D01*
X011330Y006594D01*
X011412Y006622D01*
X011523Y006568D01*
X011552Y006485D01*
X011688Y006488D02*
X011526Y006155D01*
X011747Y006046D02*
X011910Y006379D01*
X011745Y006322D01*
X011688Y006488D01*
X012019Y006326D02*
X012241Y006218D01*
X012079Y005885D01*
X011857Y005993D01*
X012049Y006106D02*
X012160Y006051D01*
X010806Y006918D02*
X010643Y006585D01*
X010754Y006531D02*
X010532Y006639D01*
D11*
X010416Y004491D03*
X005278Y002495D03*
X002495Y004483D03*
X005270Y006479D03*
D12*
X005270Y005983D03*
X002991Y004483D03*
X005278Y002991D03*
X009920Y004491D03*
D13*
X009443Y002725D02*
X009754Y002088D01*
X008855Y001649D02*
X008544Y002286D01*
D14*
X008324Y001634D02*
X002311Y001634D01*
X002426Y001535D02*
X008372Y001535D01*
X008420Y001437D02*
X002541Y001437D01*
X002655Y001338D02*
X008476Y001338D01*
X008462Y001350D02*
X008606Y001223D01*
X008789Y001160D01*
X008981Y001172D01*
X009154Y001256D01*
X009282Y001401D01*
X009344Y001583D01*
X009333Y001775D01*
X008938Y002585D01*
X008793Y002713D01*
X008611Y002776D01*
X008419Y002764D01*
X008246Y002679D01*
X008118Y002535D01*
X008055Y002353D01*
X008067Y002161D01*
X008462Y001350D01*
X008587Y001240D02*
X002770Y001240D01*
X002885Y001141D02*
X009215Y001141D01*
X009120Y001240D02*
X009412Y001240D01*
X009226Y001338D02*
X009609Y001338D01*
X009806Y001437D02*
X009294Y001437D01*
X009328Y001535D02*
X010003Y001535D01*
X009927Y001634D02*
X010200Y001634D01*
X010053Y001695D02*
X010181Y001839D01*
X010243Y002021D01*
X010231Y002213D01*
X009836Y003024D01*
X009692Y003151D01*
X009510Y003214D01*
X009318Y003202D01*
X009144Y003118D01*
X009017Y002973D01*
X008954Y002791D01*
X008966Y002599D01*
X009361Y001789D01*
X009505Y001661D01*
X009687Y001598D01*
X009880Y001610D01*
X010053Y001695D01*
X010086Y001732D02*
X010397Y001732D01*
X010594Y001831D02*
X010173Y001831D01*
X010212Y001929D02*
X010791Y001929D01*
X010988Y002028D02*
X010243Y002028D01*
X010237Y002126D02*
X011185Y002126D01*
X011382Y002225D02*
X010226Y002225D01*
X010178Y002323D02*
X011579Y002323D01*
X011776Y002422D02*
X010130Y002422D01*
X010082Y002520D02*
X011973Y002520D01*
X012170Y002619D02*
X010034Y002619D01*
X009986Y002717D02*
X012367Y002717D01*
X012564Y002816D02*
X009938Y002816D01*
X009890Y002914D02*
X012761Y002914D01*
X012958Y003013D02*
X009842Y003013D01*
X009738Y003111D02*
X012973Y003111D01*
X012973Y003020D02*
X008383Y000725D01*
X003371Y000725D01*
X000725Y002993D01*
X000725Y005981D01*
X003371Y008249D01*
X008383Y008249D01*
X009000Y007940D01*
X008713Y007352D01*
X008708Y007336D01*
X008705Y007319D01*
X008704Y007302D01*
X008705Y007285D01*
X008708Y007268D01*
X008714Y007252D01*
X008721Y007237D01*
X008731Y007223D01*
X008742Y007210D01*
X008755Y007199D01*
X008769Y007189D01*
X012097Y005566D01*
X012114Y005561D01*
X012130Y005557D01*
X012147Y005556D01*
X012164Y005558D01*
X012181Y005561D01*
X012197Y005567D01*
X012212Y005574D01*
X012227Y005584D01*
X012239Y005595D01*
X012251Y005608D01*
X012260Y005622D01*
X012530Y006175D01*
X012973Y005954D01*
X012973Y003020D01*
X012973Y003210D02*
X009523Y003210D01*
X009437Y003210D02*
X000725Y003210D01*
X000725Y003308D02*
X012973Y003308D01*
X012973Y003407D02*
X000725Y003407D01*
X000725Y003505D02*
X012973Y003505D01*
X012973Y003604D02*
X007166Y003604D01*
X007036Y003550D02*
X007380Y003692D01*
X007644Y003956D01*
X007787Y004301D01*
X007787Y004673D01*
X007644Y005018D01*
X007380Y005282D01*
X007036Y005424D01*
X006663Y005424D01*
X006318Y005282D01*
X006055Y005018D01*
X005912Y004673D01*
X005912Y004301D01*
X006055Y003956D01*
X006318Y003692D01*
X006663Y003550D01*
X007036Y003550D01*
X007390Y003702D02*
X012973Y003702D01*
X012973Y003801D02*
X007488Y003801D01*
X007587Y003899D02*
X012973Y003899D01*
X012973Y003998D02*
X012466Y003998D01*
X012442Y003988D02*
X012612Y004058D01*
X012742Y004188D01*
X012812Y004358D01*
X012812Y004542D01*
X012742Y004712D01*
X012612Y004842D01*
X012442Y004912D01*
X012258Y004912D01*
X012088Y004842D01*
X011958Y004712D01*
X011888Y004542D01*
X011888Y004358D01*
X011958Y004188D01*
X012088Y004058D01*
X012258Y003988D01*
X012442Y003988D01*
X012234Y003998D02*
X007661Y003998D01*
X007702Y004096D02*
X012050Y004096D01*
X011955Y004195D02*
X007743Y004195D01*
X007783Y004293D02*
X011914Y004293D01*
X011888Y004392D02*
X007787Y004392D01*
X007787Y004490D02*
X011888Y004490D01*
X011907Y004589D02*
X007787Y004589D01*
X007781Y004687D02*
X011948Y004687D01*
X012031Y004786D02*
X007740Y004786D01*
X007699Y004884D02*
X012189Y004884D01*
X012511Y004884D02*
X012973Y004884D01*
X012973Y004786D02*
X012669Y004786D01*
X012752Y004687D02*
X012973Y004687D01*
X012973Y004589D02*
X012793Y004589D01*
X012812Y004490D02*
X012973Y004490D01*
X012973Y004392D02*
X012812Y004392D01*
X012786Y004293D02*
X012973Y004293D01*
X012973Y004195D02*
X012745Y004195D01*
X012650Y004096D02*
X012973Y004096D01*
X012973Y004983D02*
X007659Y004983D01*
X007581Y005081D02*
X012973Y005081D01*
X012973Y005180D02*
X007482Y005180D01*
X007384Y005278D02*
X012973Y005278D01*
X012973Y005377D02*
X007151Y005377D01*
X006547Y005377D02*
X000725Y005377D01*
X000725Y005475D02*
X012973Y005475D01*
X012973Y005574D02*
X012211Y005574D01*
X012284Y005672D02*
X012973Y005672D01*
X012973Y005771D02*
X012332Y005771D01*
X012380Y005869D02*
X012973Y005869D01*
X012946Y005968D02*
X012428Y005968D01*
X012476Y006066D02*
X012749Y006066D01*
X012552Y006165D02*
X012525Y006165D01*
X011880Y005672D02*
X000725Y005672D01*
X000725Y005574D02*
X012082Y005574D01*
X011678Y005771D02*
X000725Y005771D01*
X000725Y005869D02*
X011476Y005869D01*
X011274Y005968D02*
X000725Y005968D01*
X000824Y006066D02*
X011073Y006066D01*
X010871Y006165D02*
X000939Y006165D01*
X001054Y006263D02*
X010669Y006263D01*
X010467Y006362D02*
X001169Y006362D01*
X001283Y006460D02*
X010265Y006460D01*
X010063Y006559D02*
X001398Y006559D01*
X001513Y006657D02*
X009861Y006657D01*
X009659Y006756D02*
X001628Y006756D01*
X001743Y006854D02*
X009457Y006854D01*
X009255Y006953D02*
X001858Y006953D01*
X001973Y007051D02*
X009053Y007051D01*
X008851Y007150D02*
X002088Y007150D01*
X002203Y007248D02*
X008716Y007248D01*
X008712Y007347D02*
X002318Y007347D01*
X002433Y007445D02*
X008759Y007445D01*
X008807Y007544D02*
X002548Y007544D01*
X002662Y007642D02*
X008855Y007642D01*
X008903Y007741D02*
X002777Y007741D01*
X002892Y007839D02*
X008951Y007839D01*
X008999Y007938D02*
X003007Y007938D01*
X003122Y008036D02*
X008809Y008036D01*
X008612Y008135D02*
X003237Y008135D01*
X003352Y008233D02*
X008415Y008233D01*
X006315Y005278D02*
X000725Y005278D01*
X000725Y005180D02*
X006216Y005180D01*
X006118Y005081D02*
X000725Y005081D01*
X000725Y004983D02*
X006040Y004983D01*
X005999Y004884D02*
X000725Y004884D01*
X000725Y004786D02*
X005958Y004786D01*
X005917Y004687D02*
X000725Y004687D01*
X000725Y004589D02*
X005912Y004589D01*
X005912Y004490D02*
X000725Y004490D01*
X000725Y004392D02*
X005912Y004392D01*
X005915Y004293D02*
X000725Y004293D01*
X000725Y004195D02*
X005956Y004195D01*
X005997Y004096D02*
X000725Y004096D01*
X000725Y003998D02*
X006037Y003998D01*
X006112Y003899D02*
X000725Y003899D01*
X000725Y003801D02*
X006210Y003801D01*
X006309Y003702D02*
X000725Y003702D01*
X000725Y003604D02*
X006533Y003604D01*
X008113Y002520D02*
X001276Y002520D01*
X001162Y002619D02*
X008192Y002619D01*
X008323Y002717D02*
X001047Y002717D01*
X000932Y002816D02*
X008962Y002816D01*
X008959Y002717D02*
X008781Y002717D01*
X008900Y002619D02*
X008965Y002619D01*
X008969Y002520D02*
X009004Y002520D01*
X009017Y002422D02*
X009052Y002422D01*
X009065Y002323D02*
X009100Y002323D01*
X009113Y002225D02*
X009148Y002225D01*
X009162Y002126D02*
X009196Y002126D01*
X009210Y002028D02*
X009244Y002028D01*
X009258Y001929D02*
X009292Y001929D01*
X009306Y001831D02*
X009341Y001831D01*
X009335Y001732D02*
X009425Y001732D01*
X009341Y001634D02*
X009585Y001634D01*
X009018Y001043D02*
X003000Y001043D01*
X003115Y000944D02*
X008821Y000944D01*
X008624Y000846D02*
X003230Y000846D01*
X003345Y000747D02*
X008427Y000747D01*
X008276Y001732D02*
X002196Y001732D01*
X002081Y001831D02*
X008228Y001831D01*
X008180Y001929D02*
X001966Y001929D01*
X001851Y002028D02*
X008132Y002028D01*
X008084Y002126D02*
X001736Y002126D01*
X001621Y002225D02*
X008063Y002225D01*
X008057Y002323D02*
X001506Y002323D01*
X001391Y002422D02*
X008079Y002422D01*
X008996Y002914D02*
X000817Y002914D01*
X000725Y003013D02*
X009051Y003013D01*
X009138Y003111D02*
X000725Y003111D01*
D15*
X003550Y002950D03*
X004950Y004450D03*
X003450Y005950D03*
X007950Y006050D03*
X008619Y004450D03*
X007850Y002950D03*
M02*
