G75*
G70*
%OFA0B0*%
%FSLAX24Y24*%
%IPPOS*%
%LPD*%
%AMOC8*
5,1,8,0,0,1.08239X$1,22.5*
%
%ADD10C,0.0298*%
%ADD11C,0.0338*%
%ADD12C,0.0072*%
%ADD13R,0.0720X0.1126*%
%ADD14C,0.0112*%
%ADD15R,0.1126X0.0720*%
%ADD16C,0.0709*%
%ADD17C,0.0500*%
%ADD18C,0.0100*%
%ADD19C,0.0396*%
D10*
X005278Y002495D03*
X002495Y004483D03*
X005270Y006479D03*
X010416Y004491D03*
D11*
X009920Y004491D03*
X005278Y002991D03*
X002991Y004483D03*
X005270Y005983D03*
D12*
X005144Y007337D02*
X004720Y007337D01*
X004720Y007551D01*
X005144Y007551D01*
X005144Y007337D01*
X005144Y007408D02*
X004720Y007408D01*
X004720Y007479D02*
X005144Y007479D01*
X005144Y007550D02*
X004720Y007550D01*
X005405Y007337D02*
X005829Y007337D01*
X005405Y007337D02*
X005405Y007551D01*
X005829Y007551D01*
X005829Y007337D01*
X005829Y007408D02*
X005405Y007408D01*
X005405Y007479D02*
X005829Y007479D01*
X005829Y007550D02*
X005405Y007550D01*
X001637Y005042D02*
X001637Y004618D01*
X001423Y004618D01*
X001423Y005042D01*
X001637Y005042D01*
X001637Y004689D02*
X001423Y004689D01*
X001423Y004760D02*
X001637Y004760D01*
X001637Y004831D02*
X001423Y004831D01*
X001423Y004902D02*
X001637Y004902D01*
X001637Y004973D02*
X001423Y004973D01*
X001637Y004356D02*
X001637Y003932D01*
X001423Y003932D01*
X001423Y004356D01*
X001637Y004356D01*
X001637Y004003D02*
X001423Y004003D01*
X001423Y004074D02*
X001637Y004074D01*
X001637Y004145D02*
X001423Y004145D01*
X001423Y004216D02*
X001637Y004216D01*
X001637Y004287D02*
X001423Y004287D01*
X004720Y001637D02*
X005144Y001637D01*
X005144Y001423D01*
X004720Y001423D01*
X004720Y001637D01*
X004720Y001494D02*
X005144Y001494D01*
X005144Y001565D02*
X004720Y001565D01*
X004720Y001636D02*
X005144Y001636D01*
X005405Y001637D02*
X005829Y001637D01*
X005829Y001423D01*
X005405Y001423D01*
X005405Y001637D01*
X005405Y001494D02*
X005829Y001494D01*
X005829Y001565D02*
X005405Y001565D01*
X005405Y001636D02*
X005829Y001636D01*
X011274Y003932D02*
X011274Y004356D01*
X011488Y004356D01*
X011488Y003932D01*
X011274Y003932D01*
X011274Y004003D02*
X011488Y004003D01*
X011488Y004074D02*
X011274Y004074D01*
X011274Y004145D02*
X011488Y004145D01*
X011488Y004216D02*
X011274Y004216D01*
X011274Y004287D02*
X011488Y004287D01*
X011274Y004618D02*
X011274Y005042D01*
X011488Y005042D01*
X011488Y004618D01*
X011274Y004618D01*
X011274Y004689D02*
X011488Y004689D01*
X011488Y004760D02*
X011274Y004760D01*
X011274Y004831D02*
X011488Y004831D01*
X011488Y004902D02*
X011274Y004902D01*
X011274Y004973D02*
X011488Y004973D01*
D13*
X010200Y004491D03*
X002711Y004483D03*
D14*
X002910Y004013D02*
X003135Y003788D01*
X002910Y004013D02*
X002989Y004092D01*
X003214Y003867D01*
X003135Y003788D01*
X003182Y003899D02*
X003024Y003899D01*
X003071Y004010D02*
X002913Y004010D01*
X002985Y004882D02*
X003210Y005107D01*
X002985Y004882D02*
X002906Y004961D01*
X003131Y005186D01*
X003210Y005107D01*
X003096Y004993D02*
X002938Y004993D01*
X003049Y005104D02*
X003207Y005104D01*
X004575Y005839D02*
X004800Y006064D01*
X004879Y005985D01*
X004654Y005760D01*
X004575Y005839D01*
X004607Y005871D02*
X004765Y005871D01*
X004718Y005982D02*
X004876Y005982D01*
X005670Y005989D02*
X005895Y005764D01*
X005670Y005989D02*
X005749Y006068D01*
X005974Y005843D01*
X005895Y005764D01*
X005942Y005875D02*
X005784Y005875D01*
X005831Y005986D02*
X005673Y005986D01*
X004879Y007477D02*
X004654Y007702D01*
X004879Y007477D02*
X004800Y007398D01*
X004575Y007623D01*
X004654Y007702D01*
X004689Y007509D02*
X004847Y007509D01*
X004736Y007620D02*
X004578Y007620D01*
X005749Y007402D02*
X005974Y007627D01*
X005749Y007402D02*
X005670Y007481D01*
X005895Y007706D01*
X005974Y007627D01*
X005860Y007513D02*
X005702Y007513D01*
X005813Y007624D02*
X005971Y007624D01*
X009776Y005186D02*
X010001Y004961D01*
X009922Y004882D01*
X009697Y005107D01*
X009776Y005186D01*
X009811Y004993D02*
X009969Y004993D01*
X009858Y005104D02*
X009700Y005104D01*
X009926Y004092D02*
X009701Y003867D01*
X009926Y004092D02*
X010005Y004013D01*
X009780Y003788D01*
X009701Y003867D01*
X009733Y003899D02*
X009891Y003899D01*
X009844Y004010D02*
X010002Y004010D01*
X011339Y004013D02*
X011564Y003788D01*
X011339Y004013D02*
X011418Y004092D01*
X011643Y003867D01*
X011564Y003788D01*
X011611Y003899D02*
X011453Y003899D01*
X011500Y004010D02*
X011342Y004010D01*
X011414Y004882D02*
X011639Y005107D01*
X011414Y004882D02*
X011335Y004961D01*
X011560Y005186D01*
X011639Y005107D01*
X011525Y004993D02*
X011367Y004993D01*
X011478Y005104D02*
X011636Y005104D01*
X005974Y003135D02*
X005749Y002910D01*
X005670Y002989D01*
X005895Y003214D01*
X005974Y003135D01*
X005860Y003021D02*
X005702Y003021D01*
X005813Y003132D02*
X005971Y003132D01*
X004879Y002985D02*
X004654Y003210D01*
X004879Y002985D02*
X004800Y002906D01*
X004575Y003131D01*
X004654Y003210D01*
X004689Y003017D02*
X004847Y003017D01*
X004736Y003128D02*
X004578Y003128D01*
X004800Y001572D02*
X004575Y001347D01*
X004800Y001572D02*
X004879Y001493D01*
X004654Y001268D01*
X004575Y001347D01*
X004607Y001379D02*
X004765Y001379D01*
X004718Y001490D02*
X004876Y001490D01*
X005670Y001497D02*
X005895Y001272D01*
X005670Y001497D02*
X005749Y001576D01*
X005974Y001351D01*
X005895Y001272D01*
X005942Y001383D02*
X005784Y001383D01*
X005831Y001494D02*
X005673Y001494D01*
X001497Y004092D02*
X001272Y003867D01*
X001497Y004092D02*
X001576Y004013D01*
X001351Y003788D01*
X001272Y003867D01*
X001304Y003899D02*
X001462Y003899D01*
X001415Y004010D02*
X001573Y004010D01*
X001572Y004961D02*
X001347Y005186D01*
X001572Y004961D02*
X001493Y004882D01*
X001268Y005107D01*
X001347Y005186D01*
X001382Y004993D02*
X001540Y004993D01*
X001429Y005104D02*
X001271Y005104D01*
D15*
X005270Y006263D03*
X005278Y002711D03*
D16*
X008544Y002286D02*
X008855Y001649D01*
X009754Y002088D02*
X009443Y002725D01*
D17*
X009599Y002406D02*
X011050Y003150D01*
X011491Y003394D01*
X011491Y003940D01*
X011381Y004050D01*
X011381Y004144D01*
X011381Y004830D02*
X011487Y004936D01*
X011487Y005034D01*
X011550Y005097D01*
X011550Y005750D01*
X008250Y007550D01*
X008246Y007554D01*
X005822Y007554D01*
X005711Y007444D01*
X005617Y007444D01*
X004932Y007444D02*
X004826Y007550D01*
X004727Y007550D01*
X003450Y007550D01*
X001420Y005820D01*
X001420Y005034D01*
X001530Y004924D01*
X001530Y004830D01*
X001530Y004144D02*
X001530Y004046D01*
X001424Y003940D01*
X001424Y003076D01*
X003450Y001350D01*
X004657Y001350D01*
X004727Y001420D01*
X004837Y001530D01*
X004932Y001530D01*
X005617Y001530D02*
X005715Y001530D01*
X005822Y001424D01*
X007567Y001424D01*
X007850Y001550D01*
X008700Y001968D01*
D18*
X008084Y002126D02*
X003125Y002126D01*
X003009Y002225D02*
X008063Y002225D01*
X008067Y002161D02*
X008099Y002096D01*
X007689Y001894D01*
X007486Y001804D01*
X005979Y001804D01*
X005931Y001852D01*
X005791Y001910D01*
X005541Y001910D01*
X005402Y001852D01*
X005353Y001804D01*
X005336Y001804D01*
X005274Y001742D01*
X005213Y001804D01*
X005196Y001804D01*
X005147Y001852D01*
X005007Y001910D01*
X004762Y001910D01*
X004622Y001852D01*
X004500Y001730D01*
X003590Y001730D01*
X001804Y003251D01*
X001804Y003782D01*
X001852Y003831D01*
X001910Y003970D01*
X001910Y004220D01*
X001852Y004360D01*
X001804Y004408D01*
X001804Y004425D01*
X001742Y004487D01*
X001804Y004549D01*
X001804Y004566D01*
X001852Y004614D01*
X001910Y004754D01*
X001910Y005000D01*
X001852Y005139D01*
X001800Y005192D01*
X001800Y005645D01*
X003590Y007170D01*
X004668Y007170D01*
X004717Y007122D01*
X004856Y007064D01*
X005007Y007064D01*
X005147Y007122D01*
X005196Y007170D01*
X005213Y007170D01*
X005274Y007232D01*
X005336Y007170D01*
X005353Y007170D01*
X005402Y007122D01*
X005541Y007064D01*
X005787Y007064D01*
X005927Y007122D01*
X005979Y007174D01*
X008146Y007174D01*
X011170Y005524D01*
X011170Y005255D01*
X011165Y005250D01*
X011107Y005111D01*
X011107Y005110D01*
X011107Y005093D01*
X011059Y005045D01*
X011001Y004905D01*
X011001Y004754D01*
X011059Y004614D01*
X011107Y004566D01*
X011107Y004549D01*
X011169Y004487D01*
X011107Y004425D01*
X011107Y004408D01*
X011059Y004360D01*
X011001Y004220D01*
X011001Y003974D01*
X011059Y003835D01*
X011111Y003782D01*
X011111Y003618D01*
X010871Y003485D01*
X009863Y002969D01*
X009836Y003024D01*
X009692Y003151D01*
X009510Y003214D01*
X009318Y003202D01*
X009144Y003118D01*
X009017Y002973D01*
X008954Y002791D01*
X008966Y002599D01*
X009361Y001789D01*
X009505Y001661D01*
X009563Y001641D01*
X009324Y001525D01*
X009344Y001583D01*
X009333Y001775D01*
X008938Y002585D01*
X008793Y002713D01*
X008611Y002776D01*
X008419Y002764D01*
X008246Y002679D01*
X008118Y002535D01*
X008055Y002353D01*
X008067Y002161D01*
X007960Y002028D02*
X003241Y002028D01*
X003356Y001929D02*
X007760Y001929D01*
X007545Y001831D02*
X005953Y001831D01*
X005380Y001831D02*
X005169Y001831D01*
X004600Y001831D02*
X003472Y001831D01*
X003588Y001732D02*
X004502Y001732D01*
X002894Y002323D02*
X008057Y002323D01*
X008079Y002422D02*
X002778Y002422D01*
X002663Y002520D02*
X008113Y002520D01*
X008192Y002619D02*
X002547Y002619D01*
X002431Y002717D02*
X008323Y002717D01*
X008781Y002717D02*
X008959Y002717D01*
X008962Y002816D02*
X002316Y002816D01*
X002200Y002914D02*
X008996Y002914D01*
X009051Y003013D02*
X002084Y003013D01*
X001969Y003111D02*
X009138Y003111D01*
X009437Y003210D02*
X001853Y003210D01*
X001804Y003308D02*
X010525Y003308D01*
X010717Y003407D02*
X001804Y003407D01*
X001804Y003505D02*
X010907Y003505D01*
X011085Y003604D02*
X007166Y003604D01*
X007036Y003550D02*
X007380Y003692D01*
X007644Y003956D01*
X007787Y004301D01*
X007787Y004673D01*
X007644Y005018D01*
X007380Y005282D01*
X007036Y005424D01*
X006663Y005424D01*
X006318Y005282D01*
X006055Y005018D01*
X005912Y004673D01*
X005912Y004301D01*
X006055Y003956D01*
X006318Y003692D01*
X006663Y003550D01*
X007036Y003550D01*
X007390Y003702D02*
X011111Y003702D01*
X011093Y003801D02*
X007488Y003801D01*
X007587Y003899D02*
X011032Y003899D01*
X011001Y003998D02*
X007661Y003998D01*
X007702Y004096D02*
X011001Y004096D01*
X011001Y004195D02*
X007743Y004195D01*
X007783Y004293D02*
X011031Y004293D01*
X011090Y004392D02*
X007787Y004392D01*
X007787Y004490D02*
X011166Y004490D01*
X011084Y004589D02*
X007787Y004589D01*
X007781Y004687D02*
X011028Y004687D01*
X011001Y004786D02*
X007740Y004786D01*
X007699Y004884D02*
X011001Y004884D01*
X011033Y004983D02*
X007659Y004983D01*
X007581Y005081D02*
X011095Y005081D01*
X011136Y005180D02*
X007482Y005180D01*
X007384Y005278D02*
X011170Y005278D01*
X011170Y005377D02*
X007151Y005377D01*
X006547Y005377D02*
X001800Y005377D01*
X001800Y005475D02*
X011170Y005475D01*
X011080Y005574D02*
X001800Y005574D01*
X001832Y005672D02*
X010899Y005672D01*
X010719Y005771D02*
X001948Y005771D01*
X002063Y005869D02*
X010538Y005869D01*
X010358Y005968D02*
X002179Y005968D01*
X002295Y006066D02*
X010177Y006066D01*
X009996Y006165D02*
X002410Y006165D01*
X002526Y006263D02*
X009816Y006263D01*
X009635Y006362D02*
X002641Y006362D01*
X002757Y006460D02*
X009455Y006460D01*
X009274Y006559D02*
X002872Y006559D01*
X002988Y006657D02*
X009094Y006657D01*
X008913Y006756D02*
X003104Y006756D01*
X003219Y006854D02*
X008732Y006854D01*
X008552Y006953D02*
X003335Y006953D01*
X003450Y007051D02*
X008371Y007051D01*
X008191Y007150D02*
X005955Y007150D01*
X005374Y007150D02*
X005175Y007150D01*
X004689Y007150D02*
X003566Y007150D01*
X001800Y005278D02*
X006315Y005278D01*
X006216Y005180D02*
X001812Y005180D01*
X001877Y005081D02*
X006118Y005081D01*
X006040Y004983D02*
X001910Y004983D01*
X001910Y004884D02*
X005999Y004884D01*
X005958Y004786D02*
X001910Y004786D01*
X001883Y004687D02*
X005917Y004687D01*
X005912Y004589D02*
X001827Y004589D01*
X001745Y004490D02*
X005912Y004490D01*
X005912Y004392D02*
X001821Y004392D01*
X001880Y004293D02*
X005915Y004293D01*
X005956Y004195D02*
X001910Y004195D01*
X001910Y004096D02*
X005997Y004096D01*
X006037Y003998D02*
X001910Y003998D01*
X001881Y003899D02*
X006112Y003899D01*
X006210Y003801D02*
X001822Y003801D01*
X001804Y003702D02*
X006309Y003702D01*
X006533Y003604D02*
X001804Y003604D01*
X008900Y002619D02*
X008965Y002619D01*
X008969Y002520D02*
X009004Y002520D01*
X009017Y002422D02*
X009052Y002422D01*
X009065Y002323D02*
X009100Y002323D01*
X009113Y002225D02*
X009148Y002225D01*
X009162Y002126D02*
X009196Y002126D01*
X009210Y002028D02*
X009244Y002028D01*
X009258Y001929D02*
X009292Y001929D01*
X009306Y001831D02*
X009341Y001831D01*
X009335Y001732D02*
X009425Y001732D01*
X009341Y001634D02*
X009548Y001634D01*
X009346Y001535D02*
X009328Y001535D01*
X009842Y003013D02*
X009949Y003013D01*
X010141Y003111D02*
X009738Y003111D01*
X009523Y003210D02*
X010333Y003210D01*
D19*
X008619Y004450D03*
X007850Y002950D03*
X004950Y004450D03*
X003550Y002950D03*
X003450Y005950D03*
X007950Y006050D03*
M02*
